<?xml version="1.0" encoding="utf-8"?>
<!-- Generator: Adobe Illustrator 16.0.4, SVG Export Plug-In . SVG Version: 6.00 Build 0)  -->
<!DOCTYPE svg PUBLIC "-//W3C//DTD SVG 1.1//EN" "http://www.w3.org/Graphics/SVG/1.1/DTD/svg11.dtd">
<svg version="1.1" id="Layer_1" xmlns="http://www.w3.org/2000/svg" xmlns:xlink="http://www.w3.org/1999/xlink" x="0px" y="0px"
	 width="100%" height="100%" viewBox="49.945 50 412 412" enable-background="new 49.945 50 412 412" xml:space="preserve">
<path id="linkedin-square-rounded-icon" d="M411.945,50h-312c-27.614,0-50,22.386-50,50v312c0,27.614,22.386,50,50,50h312
	c27.613,0,50-22.386,50-50V100C461.945,72.386,439.56,50,411.945,50z M180.996,392.99h-56.537V210.336h56.537V392.99z
	 M152.457,186.417c-18.465,0-33.432-15.09-33.432-33.703c0-18.614,14.967-33.704,33.432-33.704c18.463,0,33.432,15.09,33.432,33.704
	C185.889,171.327,170.92,186.417,152.457,186.417z M392.865,392.99h-56.262c0,0,0-69.582,0-95.881
	c0-26.297-9.988-40.975-30.781-40.975c-22.629,0-34.453,15.289-34.453,40.975c0,28.133,0,95.881,0,95.881h-54.223V210.336h54.223
	v24.599c0,0,16.309-30.171,55.041-30.171s66.455,23.648,66.455,72.572C392.865,326.262,392.865,392.99,392.865,392.99z"/>
</svg>
