<?xml version="1.0" encoding="utf-8"?>
<!-- Generator: Adobe Illustrator 16.0.4, SVG Export Plug-In . SVG Version: 6.00 Build 0)  -->
<!DOCTYPE svg PUBLIC "-//W3C//DTD SVG 1.1//EN" "http://www.w3.org/Graphics/SVG/1.1/DTD/svg11.dtd">
<svg version="1.1" id="Layer_1" xmlns="http://www.w3.org/2000/svg" xmlns:xlink="http://www.w3.org/1999/xlink" x="0px" y="0px"
	 width="100%" height="100%" viewBox="50 50 412 412" enable-background="new 50 50 412 412" xml:space="preserve">
<path id="youtube-new-3-icon" d="M227.281,215.821l77.146,40.225l-77.146,40.222V215.821z M462,100v312c0,27.614-22.386,50-50,50
	H100c-27.614,0-50-22.386-50-50V100c0-27.614,22.386-50,50-50h312C439.614,50,462,72.386,462,100z M397.672,202.931
	c-4.533-38.532-19.809-43.843-50.203-45.91c-43.215-2.941-139.692-2.943-182.938,0c-30.396,2.067-45.669,7.378-50.203,45.91
	c-3.365,28.607-3.377,77.433,0,106.139c4.534,38.531,19.808,43.844,50.203,45.912c43.245,2.94,139.723,2.938,182.938,0
	c30.396-2.068,45.67-7.381,50.203-45.912C401.037,280.462,401.049,231.637,397.672,202.931z"/>
</svg>
