<?xml version="1.0" encoding="utf-8"?>
<!-- Generator: Adobe Illustrator 16.0.4, SVG Export Plug-In . SVG Version: 6.00 Build 0)  -->
<!DOCTYPE svg PUBLIC "-//W3C//DTD SVG 1.1//EN" "http://www.w3.org/Graphics/SVG/1.1/DTD/svg11.dtd">
<svg version="1.1" id="Layer_1" xmlns="http://www.w3.org/2000/svg" xmlns:xlink="http://www.w3.org/1999/xlink" x="0px" y="0px"
	 width="100%" height="100%" viewBox="50 50.001 411.999 411.998" enable-background="new 50 50.001 411.999 411.998"
	 xml:space="preserve">
<path id="instagram-6-icon" d="M414.474,224.292h-35.868c2.612,10.145,4.156,20.744,4.156,31.699
	c0,70.022-56.753,126.772-126.762,126.772s-126.763-56.75-126.763-126.772c0-10.955,1.549-21.555,4.162-31.699H97.53V398.61
	c0,8.741,7.096,15.832,15.86,15.832h285.219c8.766,0,15.863-7.091,15.863-15.832L414.474,224.292L414.474,224.292z M414.474,113.378
	c0-8.75-7.099-15.846-15.863-15.846h-47.526c-8.756,0-15.846,7.096-15.846,15.846v47.545c0,8.744,7.09,15.846,15.846,15.846h47.526
	c8.766,0,15.863-7.102,15.863-15.846V113.378z M256,176.769c-43.763,0-79.233,35.463-79.233,79.223
	c0,43.756,35.471,79.24,79.233,79.24c43.759,0,79.236-35.484,79.236-79.24C335.236,212.231,299.759,176.769,256,176.769
	 M414.474,461.999H97.53c-26.246,0-47.53-21.289-47.53-47.557V97.532c0-26.254,21.284-47.531,47.53-47.531h316.943
	c26.25,0,47.526,21.277,47.526,47.531v316.91C462,440.71,440.724,461.999,414.474,461.999"/>
</svg>
