<svg xmlns="http://www.w3.org/2000/svg" xml:space="preserve" fill-rule="evenodd" stroke-linejoin="round" stroke-miterlimit="2" clip-rule="evenodd" viewBox="0 0 484 73" aria-labelledby="title" role="img"><title>UC Santa Cruz</title><desc>The UC Santa Cruz word mark</desc>
  <path fill="#00458c" fill-rule="nonzero" d="M151.61343568 65.628468c0 .801-.351 1.484-1.074 2.087-.736.613-1.799.924-3.16.924-1.473 0-2.594-.299-3.33-.889-.719-.574-1.068-1.242-1.068-2.041v-65.014h-6.294v63.22c0 .976.189 1.922.562 2.81.38.906 1.014 1.7 1.887 2.359.854.644 1.97 1.161 3.32 1.537 1.338.371 2.995.56 4.923.56 1.98 0 3.661-.175 4.997-.52 1.357-.351 2.452-.857 3.256-1.506.814-.657 1.405-1.435 1.756-2.313v-.001c.344-.86.519-1.79.519-2.763v-63.383h-6.294v64.933ZM182.07843568 65.709468c0 .802-.319 1.458-.974 2.006-.673.562-1.803.873-3.344.924-1.343 0-2.431-.315-3.235-.935-.782-.603-1.161-1.284-1.161-2.08v-58.881c0-.518.052-1.04.155-1.552.096-.481.295-.903.609-1.289.303-.375.752-.676 1.332-.894.605-.227 1.407-.342 2.383-.342 1.075 0 1.923.139 2.519.411.584.268 1.01.58 1.265.928.258.353.425.771.496 1.244.078.52.118 1.021.118 1.488v15.667h6.294v-13.464c0-1.047-.084-2.098-.249-3.125-.174-1.079-.643-2.057-1.394-2.906-.743-.841-1.835-1.525-3.245-2.032-1.39-.5-3.316-.753-5.724-.753-2.46 0-4.437.241-5.875.716-1.47.484-2.581 1.158-3.301 2.001-.72.842-1.186 1.828-1.387 2.931-.193 1.056-.29 2.125-.29 3.178v55.039c0 2.027.847 3.743 2.518 5.098 1.666 1.352 4.417 2.037 8.418 2.094 1.928 0 3.585-.189 4.924-.56 1.348-.376 2.465-.893 3.32-1.537.869-.657 1.504-1.451 1.885-2.358v-.001c.373-.891.563-1.837.563-2.81v-16.238h-6.62v18.032ZM235.30043568 44.963468c-.167-.607-.364-1.222-.585-1.827-.222-.606-.5-1.299-.825-2.054-.607-1.481-1.336-2.889-2.167-4.185-.821-1.278-1.531-2.38-2.134-3.306l-5.166-7.913c-.807-1.23-1.462-2.34-1.945-3.303-.476-.948-.879-2.099-1.201-3.433-.426-1.534-.656-2.886-.682-4.017-.027-1.135-.04-2.48-.04-4.109v-4.079c0-.468.04-.968.119-1.488.07-.466.248-.88.529-1.229.286-.354.733-.671 1.328-.942.602-.273 1.458-.412 2.545-.412.985 0 1.778.114 2.358.339.555.216.978.513 1.258.882.291.386.487.823.584 1.301.103.515.156 1.036.156 1.549v15.505h6.294v-13.221c0-1.046-.084-2.111-.249-3.164-.175-1.108-.646-2.1-1.399-2.949-.749-.842-1.859-1.526-3.302-2.033-1.422-.498-3.395-.751-5.864-.751-2.417 0-4.348.241-5.741.716-1.416.484-2.514 1.154-3.261 1.992-.756.845-1.227 1.821-1.401 2.902-.164 1.018-.248 2.069-.248 3.124v3.344c0 1.466.027 2.75.081 3.814.054 1.082.277 2.386.661 3.876.381 1.476.782 2.755 1.192 3.8.415 1.058 1.098 2.292 2.026 3.663l5.358 8.241c.542.818 1.029 1.542 1.463 2.168.422.609.826 1.233 1.204 1.855.366.606.699 1.249.989 1.909.291.666.573 1.409.835 2.195.323 1.085.624 2.05.895 2.867.256.772.385 1.717.385 2.806v15.089c0 .468-.039.969-.117 1.489-.072.476-.241.912-.503 1.295-.257.372-.669.696-1.224.961-.568.272-1.372.409-2.39.409-1.025 0-1.834-.126-2.404-.374-.568-.246-1.026-.567-1.362-.952-.336-.384-.546-.802-.64-1.279-.103-.509-.155-1.031-.155-1.549v-17.06l-6.294.094v14.765c0 1.056.098 2.111.292 3.135.202 1.071.671 2.055 1.393 2.926.726.875 1.844 1.577 3.326 2.085 1.452.498 3.446.751 5.925.751 2.429 0 4.37-.255 5.769-.759 1.419-.512 2.507-1.197 3.232-2.036.727-.844 1.184-1.804 1.359-2.854.166-.996.25-2.035.25-3.085v-13.133c0-.874-.042-1.672-.126-2.373-.083-.689-.211-1.354-.381-1.978ZM259.57543567 6.750468v24.859h-8.877v-24.859c0-.519.052-1.042.155-1.555.095-.477.3-.912.609-1.292.304-.375.752-.676 1.333-.895.605-.227 1.406-.342 2.383-.342 1.074 0 1.923.139 2.518.412.584.269 1.01.583 1.265.932.259.354.426.774.496 1.248.079.523.118 1.025.118 1.492Zm4.726-3.864c-.697-.815-1.771-1.488-3.192-2-1.4-.505-3.34-.762-5.768-.762-2.481 0-4.473.241-5.921.717-1.481.486-2.6 1.159-3.325 2.002-.725.844-1.196 1.831-1.398 2.935-.194 1.051-.293 2.122-.293 3.183v61.73h6.294v-35.481h8.877v35.481h6.294v-61.812c0-1.052-.084-2.107-.25-3.132-.175-1.081-.618-2.043-1.318-2.861ZM290.36743568 39.385468l-9.373-38.853h-5.635v70.159h6.294v-47.585l8.632 34.009v13.576h6.375v-70.159h-6.293v38.853ZM301.20543567 3.971468h7.831v66.72h6.294v-66.72h8.156v-3.357h-22.281v3.357ZM343.79643567 6.750468v24.859h-8.877v-24.859c0-.521.052-1.044.155-1.555.095-.477.299-.911.608-1.292.304-.374.752-.676 1.333-.895.605-.227 1.407-.342 2.383-.342 1.076 0 1.923.139 2.518.412.585.269 1.011.583 1.266.932.258.354.425.774.496 1.248.078.523.118 1.025.118 1.492Zm4.726-3.865c-.698-.814-1.772-1.486-3.192-1.999-1.4-.505-3.341-.762-5.769-.762-2.48 0-4.472.241-5.92.717-1.482.486-2.6 1.159-3.325 2.002-.726.844-1.197 1.831-1.399 2.935-.194 1.053-.292 2.124-.292 3.183v61.73h6.294v-35.481h8.877v35.481h6.294v-61.812c0-1.052-.085-2.107-.25-3.132-.175-1.08-.618-2.042-1.318-2.862ZM389.58943568 65.709468c0 .802-.319 1.459-.974 2.006-.673.562-1.803.873-3.344.924-1.342 0-2.431-.315-3.235-.935-.781-.603-1.161-1.284-1.161-2.08v-58.881c0-.517.052-1.038.155-1.552.096-.482.295-.903.608-1.289.305-.376.753-.676 1.334-.894.604-.227 1.405-.342 2.382-.342 1.076 0 1.923.139 2.518.411.585.268 1.011.58 1.267.928.257.353.424.771.495 1.244.078.522.118 1.023.118 1.488v15.667h6.294v-13.464c0-1.047-.084-2.098-.249-3.125-.174-1.079-.642-2.057-1.394-2.906-.743-.841-1.835-1.525-3.245-2.032-1.389-.5-3.315-.753-5.724-.753-2.46 0-4.437.241-5.875.716-1.47.484-2.58 1.158-3.3 2.001-.721.843-1.188 1.829-1.389 2.931-.191 1.056-.289 2.125-.289 3.178v55.039c0 2.027.847 3.743 2.519 5.098 1.665 1.352 4.416 2.037 8.417 2.094 1.928 0 3.585-.189 4.924-.56 1.349-.377 2.466-.893 3.319-1.537.87-.657 1.505-1.45 1.886-2.358v-.001c.374-.892.563-1.838.563-2.81v-16.238h-6.62v18.032ZM419.48443567 7.635468v18.515c0 .887-.106 1.787-.316 2.679-.198.843-.463 1.435-.77 1.743-.501.451-1.261.847-2.261 1.18-1.009.338-2.076.509-3.172.509h-2.195v-28.861h2.93c1.519 0 2.872.211 4.035.634.746.233 1.206.617 1.406 1.172.228.632.343 1.449.343 2.429Zm6 30.954c-.204-1.017-.797-2.109-1.76-3.244-.3-.358-.69-.688-1.16-.981-.448-.279-.888-.52-1.309-.717-.205-.094-.398-.18-.579-.256.298-.135.618-.288.957-.457.503-.25.997-.531 1.466-.835.494-.316.895-.657 1.17-.986.65-.648 1.057-1.232 1.243-1.786.176-.528.266-1.145.266-1.838v-17.856c0-1.361-.084-2.637-.248-3.792-.181-1.258-1.038-2.368-2.554-3.3-.846-.507-1.79-.879-2.804-1.105-.981-.217-1.941-.37-2.855-.453-.903-.083-1.695-.124-2.352-.124h-10.489v69.914h6.294v-35.726h2.012c.936 0 1.778.079 2.5.236.715.154 1.497.444 2.309.852.767.436 1.244 1.058 1.46 1.903.233.918.351 1.858.351 2.794v29.941h6.459l-.083-28.799c0-1.269-.099-2.407-.294-3.385ZM449.27743567 65.628468c0 .801-.352 1.484-1.074 2.087-.737.613-1.8.924-3.161.924-1.473 0-2.593-.299-3.33-.889-.719-.574-1.068-1.242-1.068-2.041v-65.014h-6.294v63.22c0 .977.19 1.923.563 2.81.38.907 1.014 1.7 1.887 2.359.853.644 1.97 1.161 3.319 1.537 1.339.371 2.995.56 4.923.56 1.98 0 3.662-.175 4.998-.52 1.356-.351 2.451-.857 3.256-1.506.813-.657 1.404-1.434 1.755-2.313.345-.861.52-1.791.52-2.764v-63.383h-6.294v64.933ZM469.80943568 67.089468l12.888-66.72h-19.513v3.602h11.739l-12.806 66.72h21.226v-3.602h-13.534Z"/>
  <path fill="#fdd306" d="M112.00043568.473468h2v72h-2z"/>
  <path fill="#00458c" fill-rule="nonzero" d="M64.26743568 38.603468c-7.032 0-12.732-5.7-12.732-12.732 0-7.032 5.7-12.732 12.732-12.732 7.032 0 12.732 5.7 12.732 12.732 0 7.032-5.7 12.732-12.732 12.732Zm-42.401.873c-3.907.035-6.988-2.961-7.03-6.835-.043-4.057 2.868-7.064 6.886-7.11 4.016-.047 7.046 2.948 7.088 7.005.039 3.825-3.042 6.905-6.944 6.94Zm68.253-14.614c-.505-13.301-11.266-24.185-24.561-24.831-12.582-.612-23.312 7.77-26.322 19.274-.15.576-.848.809-1.303.426-1.209-1.017-2.604-1.887-4.263-2.548-1.149-.458-2.358-.75-3.583-.928-1.293-.188-2.591-.243-3.888-.031-.028.004-.056.007-.085.007-.335 0-.607-.272-.607-.607 0-.167.068-.317.177-.427 4.077-4.037 9.981-9.88 12.659-12.532.52-.515.155-1.4-.577-1.4h-16.939c-.548 0-1.066.232-1.429.642-1.881 2.128-7.973 9.016-11.193 12.635-1.522 1.711-2.998 3.456-4.263 5.369-2.128 3.214-3.587 6.671-3.882 10.564-.204 2.712.103 5.357 1.004 7.917 1.271 3.61 3.513 6.516 6.578 8.786 3.283 2.431 6.995 3.798 11.023 4.337 2.645.355 5.285.29 7.919-.168 2.852-.496 5.538-1.437 8.029-2.914 2.326-1.38 4.312-3.142 5.872-5.362.484-.689.909-1.4 1.279-2.13.281-.555 1.039-.62 1.399-.112 4.688 6.602 12.39 10.913 21.104 10.913 14.623 0 26.412-12.132 25.852-26.88ZM17.93843567 64.198468l-4.607-6.633h3.957l2.409 3.479 2.313-3.479h4.014l-4.76 6.633v6.117h-3.326v-6.117ZM35.52343568 60.375468h-3.938v2.122h3.727v2.81h-3.727v2.198h3.938v2.81h-7.245v-12.75h7.245v2.81ZM46.43643567 65.651468l-1.434-4.129-1.395 4.129h2.829Zm.879 2.523h-4.626l-.86 2.141h-3.498l4.894-12.75h3.612l4.798 12.75h-3.536l-.784-2.141ZM57.17743567 63.280468h.631c.497 0 1.204-.133 1.606-.515.248-.249.42-.67.42-1.071 0-.382-.152-.803-.439-1.07-.306-.306-.861-.497-1.587-.497h-.631v3.153Zm1.854-5.715c.956 0 2.179.153 3.116 1.128.726.746 1.09 1.854 1.09 2.868 0 1.089-.382 2.045-1.013 2.656-.497.478-1.167.765-1.759.88l3.995 5.218h-4.11l-3.173-4.893v4.893h-3.307v-12.75h5.161ZM67.84243568 66.492468c.707.669 1.778 1.3 2.924 1.3.67 0 1.071-.211 1.281-.44.191-.191.325-.478.325-.803 0-.248-.095-.535-.363-.764-.325-.287-.822-.421-1.644-.669l-.86-.268c-.535-.172-1.319-.459-1.835-1.032-.65-.707-.726-1.606-.726-2.255 0-1.568.612-2.524 1.166-3.078.65-.65 1.72-1.204 3.268-1.204 1.262 0 2.734.401 3.938 1.032l-1.319 2.58c-.994-.784-1.739-.86-2.179-.86-.325 0-.765.076-1.089.382-.192.191-.326.402-.326.688 0 .23.039.402.173.574.095.115.324.344 1.108.574l1.013.305c.803.249 1.644.536 2.313 1.262.65.688.822 1.395.822 2.275 0 1.166-.287 2.294-1.204 3.211-1.09 1.089-2.409 1.3-3.766 1.3-.803 0-1.567-.077-2.504-.421-.21-.076-1.013-.382-1.93-1.013l1.414-2.676Z"/>
</svg>
