<svg xmlns="http://www.w3.org/2000/svg" viewBox="0 0 426 96" enable-background="new 0 0 426 96">
    <path d="M129.54 46.44c-.03-.03-.51-.55-1.44-1.54.08-.42.12-.9.17-1.56l.08-1.04-.44.22c-.13.07-.54.53-1.03 1.08-1.04-1.11-2.39-2.53-4.04-4.26 0-1.82.01-3.29.01-4.45 3.16 2.33 5.74 4.22 5.74 4.22.16.12.35-.14.15-.3-1.12-.85-3.3-2.46-5.88-4.36v-2.52c0-.32.02-.98-.3-.78-.6.4-3.31-.1-3.38-.08-.25.07-.47.11-.7.17-2.41-1.77-4.87-3.58-6.98-5.14-.51-.38-.69-.13-.2.26.37.29 3.35 2.49 6.73 4.99-1.06.2-1.93.22-2.71.17-1.23-1.27-2.54-2.62-3.92-4.04-.42-.41-.71-.17-.32.27.07.07 1.49 1.58 3.52 3.7-.65-.08-1.27-.18-1.91-.25-.38-.54-.75-1.04-1.1-1.51-.64-.87-.73-.3-.34.26.2.29.48.71.81 1.21-.4-.02-.81-.02-1.26.01-.06-.18-.12-.36-.18-.52-.24-.69-.71-.9-.39.2l.12.41c-.23.07-.59.18-.99.34-.12-.69-.25-1.39-.38-2.07-.13-.72-.48-.67-.37.08.12.73.23 1.45.35 2.18-.47.24-.92.57-1.2 1.01-.01-1.23-.03-2.41-.05-3.53-.02-1.15-.33-.7-.34 0-.01.83-.02 1.94-.02 3.25-.32-.42-.85-.74-1.37-.96.1-.63.2-1.27.3-1.91.12-.75-.24-.8-.37-.08-.11.61-.23 1.22-.34 1.84-.42-.14-.79-.22-.99-.23.03-.09.06-.19.09-.28.31-1.12-.15-.9-.38-.2-.05.15-.11.32-.16.49l-1.31.03c.34-.51.62-.93.83-1.23.39-.56.3-1.13-.34-.27-.35.47-.71.98-1.09 1.51-.66.02-1.24.04-1.74.06 1.93-2.03 3.28-3.45 3.34-3.51.4-.44.1-.68-.32-.27-1.31 1.34-2.54 2.6-3.71 3.81-1.87.09-2.52.18-3.13.2 3.46-2.56 6.55-4.84 6.93-5.14.49-.39.3-.63-.21-.26-2.21 1.64-4.8 3.55-7.32 5.4-.08 0-.17-.01-.26-.01-.16-.01-.25.02-.52.02-.62.01-2.11.03-2.52-.02-.14-.01-.41-.12-.49-.12-.32-.01-.37.18-.37.5v2.69c-2.53 1.86-4.66 3.44-5.76 4.28-.2.14-.01.41.15.3 0 0 2.51-1.85 5.62-4.13 0 1.24.01 2.78.01 4.48-4.28 4.48-6.52 6.91-6.57 6.97-.3.3-.03.49.21.26.94-.88 3.48-3.49 6.37-6.49 0 2.14.01 4.5.02 6.83-2.33 3.76-4 6.54-4.03 6.58-.38.54-.3.86.09.4.09-.11 1.74-2.66 3.94-6.09 0 1.45.01 2.86.02 4.19-.57.06-1.35.22-1.62.56-.31.39-.22.76-.27 1.34-.03.36-.1.88-.2 1.15-.17.45-.54.76-.82 1.04-.24.25-.4.64-.56 1.02-.27.64.13 1.52.51 2.23.18.34.64.78 1.02.84 1.52.26 1.73-.82 1.95-1.39.01-.04.02-.06.04-.1.02 1 .03 1.61.05 1.65.02.04.79.01 1.95-.03-.28.82-.45 1.3-.46 1.32-.28.95.19.62.31.27.19-.53.38-1.07.57-1.61 1.03-.05 2.3-.11 3.62-.17.28.4.81 1.03 1.03 1.44l.25.46.17.3c.18.34.36.65.55.95l-.26 1.48c-.31 1.33-.04 1.43.3.19.02-.06.11-.49.25-1.23.15.23.31.46.5.7.42.54 1.3 1.1 3.34 2.02.79.35 1.88.56 3.11.61.04 1.02.32.75.34.01 1.6.03 3.4-.21 5.11-.79l.01-.01.01-.01c.94-.44 1.58-.97 1.99-1.41.01.02.02.05.02.06.34 1.24.61 1.14.3-.19-.01-.03-.03-.11-.04-.2.24-.3.36-.53.38-.58.11-.21 1-2.16-.08-3.58-.02-.02-.04-.03-.06-.05l.01-.01c-.03-.02-.05-.04-.08-.06-.06-.06-.13-.11-.19-.17 2.04.09 4.23.19 5.75.25.15.42.3.84.46 1.26.12.34.61.66.32-.28-.01-.02-.13-.36-.34-.96.9.03 1.47.05 1.49.01.01-.71.02-1.41.02-2.09 1.26-.23 1.7-.54 2.52-1.29.96-.88 1.58-2.05 1.54-3.24.06.09.1.14.11.16.39.47.47.14.09-.4-.01-.01-.13-.21-.34-.56-.19-.66-.54-1.24-1.04-1.71-.46-.77-1.04-1.71-1.69-2.76.68-.08 1.39-.3 1.93-.53.61-.28 1.53-1 1.96-2.09l.07-.2c.05-.13.09-.26.13-.38.57.58 1.04 1.05 1.34 1.32.23.2.51.01.2-.28zm-2.95-2.49c-.35.4-.7.83-1 1.18-.11-.42-.21-1.23-.31-1.79-.08-.47-.21-.81-.36-1.11.6.62 1.15 1.19 1.67 1.72zm-3.75-3.87c.45.46.88.91 1.3 1.35l.02.19c.16 1.55-.13 2.75-.37 3.51-.22.74-.4 1-.76 1.19-.07.03-.15.06-.23.09.02-2.41.03-4.52.04-6.33zm-1.2-7.89c.04-.32.56-.43.65.13.08.29.07 7.34.01 14.25-.21.04-.43.07-.63.05-.01 0-.02-.01-.03-.01.01-6.98-.01-14.28 0-14.42zm-.98-.02c-.01-.22.5-.3.47.15.03.12-.02 7.22-.1 14.09-.08-.04-.16-.07-.23-.1-.01-.12-.03-.21-.03-.21-.01-.73.32-.82.02-1.16-.07-.08-.21-.15-.34-.2.08-6.53.16-12.46.21-12.57zm-1.24-.32c.13-.43.52-.12.51.04-.01.16-.04 6.4-.08 12.82-.16.03-.36.06-.54.1.01-3.71.04-8.08.11-12.96zm-.12 13.21c.03-.01.06-.02.08-.02 0 0 .68-.22.86-.08.25.19.17 1.08.17 1.39 0 0-.02.15.02.32v-.01.01c.01.06.03.13.06.19.12.25.34.36.36.45-.15-.05-.28-.08-.42-.11 0 0-.01-.01-.02-.01-.2-.05-.39-.09-.58-.12-.19-.03-.37-.05-.54-.05v-.01c-.16-.01-.3-.01-.45 0v.01c-.42.03-.77.12-1.05.25 0 0-.01.01-.02.01-.12.06-.22.12-.31.19-.02.01-.04.02-.06.04-.09.08-.18.16-.24.24-.15.21-.27.45-.35.69-.05-.26-.34-.57-.34-.77 0-.82.49-1.39.88-1.7.12-.1.25-.19.38-.27.04-.03.07-.05.11-.07.09-.05.18-.1.26-.14l.12-.06c.08-.04.17-.08.25-.11l.09-.03c.33-.12.59-.19.74-.23zm1.61 2.71c.03.03.07.05.1.07-.01.62-.01 1.23-.02 1.83-.24.01-.44.05-.61.11l.03-2.2c.11.04.23.08.34.13l.16.06zm-1.08-.35c-.01.89-.01 1.77-.02 2.62-.04.02-.07.04-.11.05-.09.05-.26.12-.42.18v-2.93c.18 0 .36.03.55.08zm-.99-.06c-.01 1.06-.01 2.09-.01 3.04-.08.03-.15.04-.19.05-.79.05-1.22-.25-1.32-.45-.05-.09-.12-.19-.19-.36s-.08-.45-.08-.46c0-.4.21-.66.59-1.15.3-.39.71-.61 1.2-.67zM107.9 33.37c.13-1.45 3.97-1.96 4.67-1.78.62.14 1.68.35 2.17.44 0 0 2.17.51 4.12-.21 0 .34 0 6.84-.02 13.08-.36.08-1.16.29-1.74.79-.62.53-1.02 1.12-1.02 1.96 0 .57.19 1.07.48 1.81.16.41.28.85.29.86.35.59.27 1.07.37 1.57.17.84.68.98.88 1.03.25.07.48.13.72.18v.98c-.06-.01-.11-.01-.17-.01-1.28-.11-1.76-.3-2.5-.67l-.87-.51c-1.52-.7-3.57-.65-4.62-.22-.55.23-.88.39-1.17.79l-.08.11.04.13c.09.3.33.62.44.86.1.23.07.72.06.89-.01.4-.34.8-.46.93l.04-.02c-.36.21-.5.68-.56 1.27-.42.18-.74.38-1.02.58 0-.02-.18-24.82-.05-24.84zm3.97 25.11c.07.15.17.29.29.42.12.14.28.26.44.38.17.12.36.23.55.34.09.05.17.09.24.14.14.08.28.15.42.24l-.41.03-.64.05c-.14 0-.25.02-.37.03h-.01c-.37.04-.67.06-1.16-.03h-.01c-.15-.03-.31-.06-.5-.11-.29-.08-.53-.22-.73-.4v-.01c-.22-.2-.39-.46-.49-.74-.04-.14-.08-.26-.11-.4-.02-.13-.04-.26-.04-.38v-.02c0-.23.03-.42.07-.59.03-.13.07-.25.13-.35.01-.01.01-.02.02-.04.06-.09.13-.17.22-.23.03-.01.06-.04.09-.07.14-.04.28-.05.44-.06.09-.01.19 0 .29.01h.18l.47.06c.01.01.03.01.04.01.22.04.44.09.67.14-.04.09-.06.17-.09.25-.04.12-.08.24-.11.36-.02.12-.05.25-.05.37.03.23.07.42.16.6zm.23-.68c.01-.21.08-.44.19-.71l.25-.03c.51.15 1.03.33 1.56.52-.69.06-1.37.13-2 .22zm3.88.39c.66.18 1.39.33 2.17.42-1.67.05-3.76.16-5.48.27-.19-.13-.33-.27-.42-.43 1.23-.12 2.53-.21 3.73-.26zm-3.22 2.43c.02.24-.04.45-.23.61-1.14.94-2.04 1.13-4.18.84-.22-.03-.42-.06-.62-.11.01-.42.01-.84.02-1.26.57-.02 1.2-.17 1.79-.59.05-.02.23-.04.49-.04.22.13.48.23.77.31 1.05.27 1.21.28 1.96.24zm-3.78-2.02c-.01.01-.03.01-.05.02l-.43-.24c.17-.07.31-.14.44-.21v.01c0 .15.01.28.04.42zm-1.33.04c1.02.04 1.59 1.04 1.51 1.13-.74.81-2.25.85-2.91.03-.12-.16.55-1.12 1.4-1.16zm-1.51.43c.2.05-.19.19-.19.19-.49-.09-1.38-.17-2.47-.24-.01-.04-.03-.08-.05-.12-.02-.06-.04-.13-.06-.19 1.22.11 2.23.22 2.77.36zm-2.96-.94c-.07-.19-.16-.38-.29-.57 1.31.2 3.42.55 3.89.92-.25.12.04-.07-.34.28-.4-.26-1.69-.47-3.26-.63zm2.13 1.36c.16.02.49.02.36.29.02-.04-.71-.05-1.83-.06-.06-.1-.12-.19-.18-.3.8.03 1.4.05 1.65.07zm.43.67c.59.19.95.43 1.51.51v1.14c-.43-.14-.82-.33-1.22-.55 0 0-.5-.25-1.18-.57-.3-.14-.55-.36-.76-.62.84-.01 1.44.02 1.65.09zM95.96 32.1c.02-.18-.02-.26.29-.25 4.15.07 10.51-1.48 11.09 1.48 0 .12.14 19.03.06 24.84-1.38-.54-2.45-.76-4.82-1.06l-.41-.56c-.45-.67-.58-.93-.9-1.18l-.88-.83c-.47-.38-1.01-.94-1.12-1.01-1.3-.86-2.41-1.3-3.35-1.5.1-11.78-.06-18.55.04-19.93zm-.75.38c.01-.63.34-.59.29-.15.04.64-.01 7.19-.16 19.62-.15-.02-.31-.04-.45-.05.12-7.2.3-18.51.32-19.42zm-1.19-.16c-.06-.32.33-.45.34-.04.04.16-.11 12-.13 19.63-.16.01-.31.03-.46.04.03-7.72.19-19.5.25-19.63zm-1.34-.15c.04-.42.63-.22.62.23-.07 8.27-.16 15.01-.19 19.68l-.14.03s-.15 0-.31.01c.02-8.24.01-19.78.02-19.95zm-1.67 27.44c-.33.27-.61.38-1.04.3-.28 0-.76-.59-1.04-1.23-.09-.24-.09-.55-.08-1.01.01-.14.02-.25.06-.35.06-.16.16-.29.27-.42.15.22.44.4.74.57l.6.38c.35.26.87.43 1.25.47-.08.34-.32.92-.76 1.29zm.73-1.79c-.11 0-.54.04-1.14-.24l-.55-.31c-.32-.39-.44-.6-.44-.69 0-.02 0-.04.04-.07.3-.27 1.51-.27 2.33-.18.01.52.01 1 .02 1.44-.1.01-.23.04-.26.05zm.97 1.87c-.06-.2-.08-1.42-.08-1.71 0-.48 0-1.05.01-1.65.15.01.31.01.47.04.02 1.87.07 2.91.19 2.97.09.04 2 .06 4.28.07.01.01.02.03.03.03l.13.2c.01.03.04.08.06.14-2.7 0-5.06 0-5.09-.09zm4.15-1.33c.07.09.17.22.28.37-1.82-.07-3.21-.14-3.28-.22-.04-.04-.06-.81-.08-2.04.15.03.31.07.47.12.02 1 .04 1.6.07 1.62.06.04 1.1.09 2.54.15zm-2.03-1.54c.17.07.33.16.5.25.01.03.02.04.03.02.32.18.63.4.92.66-.89-.01-1.46 0-1.44.04-.02-.07-.01-.42-.01-.97zm20.71 5.19c0 .14-.02.3-.05.46-.01.04-.01.07-.02.11-.03.16-.08.32-.12.49v.01c-.05.16-.11.33-.18.49l-.03.09c-.06.16-.12.3-.19.44-.09.18-.18.33-.25.42-.42.54-1 .93-2.41 1.6-.4.13-.8.25-1.2.35-.07.02-.14.03-.22.04-.33.08-.65.15-.97.2-.04.01-.09.01-.14.02-.35.05-.69.09-1.02.12h-.04c-.36.03-.71.03-1.04.03h-.01c-.34 0-.67-.03-.98-.07-.06-.01-.12-.01-.18-.03-.17-.02-.34-.05-.5-.08-.11-.02-.22-.05-.32-.07-.12-.03-.24-.06-.35-.09-.22-.07-.43-.14-.63-.23-1.9-.85-3.19-1.47-3.76-2.24-.18-.24-.33-.48-.48-.72-.09-.15-.2-.32-.29-.47-.17-.29-.33-.58-.5-.9l-.17-.3-.25-.46c-.18-.33-.36-.66-.56-.97-.06-.11-.13-.22-.2-.34-.02-.05-.24-.53-.24-.53l-.02-.04-.14-.2c-.09-.13-.17-.26-.26-.38-.09-.13-.17-.25-.25-.36-.17-.24-.33-.44-.42-.53l-.01-.01c-.03-.04-.09-.08-.14-.13-.1-.1-.23-.2-.38-.3 0 0-.01 0-.02-.01-.17-.12-.37-.25-.59-.37-.23-.12-.46-.25-.71-.37-.15-.07-.29-.13-.45-.2-.2-.09-.41-.17-.61-.25-.15-.05-.31-.1-.46-.14-.23-.07-.45-.13-.67-.18-.16-.03-.31-.07-.45-.08-.19-.02-.37-.04-.53-.04h-.14c-.96.04-1.13-.05-1.44-.05h-.01c-.04 0-.09.01-.14.01h-.05c-.07.01-.15.02-.25.03.06-.11.12-.23.18-.37.12-.33.05-.78.08-1.17.04-.49.23-1.07.45-1.31.06-.08.16-.13.26-.17.03-.01.07-.02.11-.03.08-.02.16-.04.25-.05.04 0 .08-.01.12-.01.12-.01.23-.01.35-.01.13 0 .25 0 .37-.01l.41-.04.11-.01.34-.08h.01c.35-.08.71-.16 1.1-.22h.01c.21-.03.44-.05.67-.05h.02c.31 0 .64.03 1 .1.19.04.39.1.6.17l.09.03c.2.07.41.17.62.28l.12.06c.22.11.45.25.68.41.04.02.07.05.11.07.25.17.51.36.79.58l.02.01.04.02c.07.04.41.32.71.56l1.17.93c.25.19.74.91 1.12 1.48l.31.46c.26.38.45.88.62 1.36.03.06.05.13.08.2.06.14.12.29.19.44.05.1.1.2.16.3.07.12.14.23.21.34.07.1.14.21.22.3 0 .01.01.01.01.02.08.09.15.17.23.25.01.02.02.03.03.04.07.07.15.13.23.19l.05.05c.1.07.2.13.31.18l.66.37c.28.15.57.31.87.45.02.01.05.02.07.03.31.14.64.27 1.01.36.15.04.31.07.47.1.05.01.08.02.12.03 2.34.31 4.29-.01 5.07-.83.28-.29.4-.64.38-1.02l.16-.01c.76-.08 1.05-.1 1.46.26.3.42.61.74.61 1.19zm6.55-2.09c-.2-.08-4.5-.2-7.95-.28-.23-.12-.47-.24-.73-.36 3.38.04 7.02.06 8.12 0 .02-.04.03-.3.04-.72l.55-.08h.02c-.01.73-.03 1.24-.05 1.44zm3.48-7.83c.32.42.54.92.63 1.46.18 1.14.13 2.08-.79 2.95-.12.12-.23.22-.34.32-.07.06-.14.12-.2.18-.04.03-.08.07-.12.1-.07.06-.14.11-.2.16-.04.02-.06.05-.09.07-.07.05-.14.1-.21.14l-.09.06c-.07.04-.15.09-.23.12-.03.02-.06.03-.09.04-.08.04-.17.07-.26.1-.03.02-.06.03-.1.03-.1.03-.2.06-.31.09-.02.01-.06.01-.08.02-.12.03-.25.06-.38.08h-.01c-.15.02-.3.05-.47.08l-.65.09c-.25.04-.48.05-.72.08h-.01c-.31.03-.62.04-.92.05h-.04c-.29.01-.59.01-.87 0h-.07c-.28-.01-.56-.03-.83-.05-.02 0-.03-.01-.05-.01-1.45-.15-2.73-.51-3.71-.96-.24-.11-.48-.21-.72-.32-.2-.08-.4-.16-.6-.23-.5-.19-1-.35-1.47-.45-.03-.01-.06-.01-.08-.02-.19-.04-.37-.07-.54-.09-.05-.01-.11-.01-.16-.02-.2-.02-.4-.03-.58-.02.13-.32.22-.7.22-1 0-.07 0-.14-.02-.2-.04-.22-.15-.46-.26-.71-.09-.18-.17-.38-.25-.6.21-.26.33-.46.73-.63.79-.33 2.6-.53 4.07.15l1.06.45c.75.38 1.4.7 2.78.84.27.03.51.04.75.06l.48.03c.19.01.38.01.55.02h.61l.71-.03c.21-.01.4-.03.58-.05.19-.02.37-.04.53-.07.24-.04.46-.1.65-.15.04-.01.07-.02.1-.02.19-.06.35-.11.49-.17 1.37-.59 1.58-1.47 1.58-1.97zm-6.3 1.09c.18.02.35.03.52.01 0 .33-.01.65-.01.96-.16-.01-.33-.02-.51-.04.01-.3.01-.6 0-.93zm1.05 1c.01-.36.01-.74.02-1.11.01-.01.03-.01.04-.01.18-.07.37-.18.57-.3-.01.51-.01.99-.02 1.45-.18-.01-.38-.02-.61-.03zm1.31.03c0-.61.01-1.26.01-1.94.2-.16.4-.33.62-.54l-.03 2.42c-.19.03-.38.05-.6.06zm3.39-2.3c.05.31.14 1.35-1.17 1.79-.44.15-.78.26-1.1.34.01-.94.02-1.85.02-2.73.47-.3 1.05-.34 2.2.45.01.05.04.09.05.15zm-.23-.9c-.22-.04-.43-.07-.62-.09-.03 0-.06 0-.09-.01-.16-.01-.3-.02-.44-.02h-.06c-.14.01-.28.02-.41.04h-.02c-.13.02-.26.06-.38.1-.18.06-.36.14-.51.24-.2.12-.37.27-.55.44-.03.02-.05.04-.07.06-.26.24-.48.38-.68.48-.19.1-.37.16-.54.21-.03.01-.05.02-.07.02-.05.02-.11.04-.16.06-.13.05-.26.1-.39.14-.32.1-.65.14-.97.08-.12-.01-.23-.04-.34-.09-.59-.24-.85-.75-.9-.97-.07-.37.07-.43-.06-1 .17.05.37.08.59.1.21.02.46.02.72.01h.15c.1-.01.2-.04.3-.08.15-.06.31-.13.47-.23.01-.01.04-.02.05-.02.23-.13.49-.26.79-.35.12-.04.25-.07.38-.09.17-.02.35-.02.55.01l.55-.01c.32-.01.69-.02 1.08.03l.18.03.13.03c.07.02.15.05.23.07l.09.03c.1.04.2.09.31.15.03.02.05.04.08.06.08.05.15.11.23.17l.08.08c.11.1.21.2.3.32zm-3.15-1.31c0-.5.01-1 .01-1.52.22.1.44.19.64.26 0 .45-.01.89-.01 1.34l-.64-.08zm2.86.65c-.85-.62-1.21-.63-1.71-.59 0-.4.01-.8.01-1.19.18.04.38.04.59.04.38.62.76 1.21 1.11 1.74zm3.31-6.53c-.08.54-.21 1.02-.33 1.4-.04.12-.08.24-.12.34l-.08.2c-.41 1.04-.9 1.84-2.48 2.37-.2.07-.4.11-.59.12-.17.01-.34.01-.5-.01h-.03c-.21-.02-.41-.05-.61-.1h-.01c-.08-.01-.16-.03-.25-.05-.01 0-.01 0-.02-.01-.11-.03-.22-.05-.33-.08-.06-.01-.12-.04-.17-.05-.66-.18-1.17-.57-1.35-.92l-.02-.02-.05-.17s0-.03-.01-.07c.19.04.47.1.79.11.2.01.42 0 .65-.04.16-.03.33-.06.51-.12.01-.01.01-.01.02-.01l.09-.03c.49-.17 1.1-.39 1.41-1.39.14-.49.19-1.97.26-2.77.46 1 .7 2.83.74 3.03l.1.57s.19-.2.37-.44c.46-.64.79-1.09 1.05-1.45h.01c.1-.13.19-.24.28-.35.12-.14.24-.27.36-.39.01-.01.02-.01.03-.02.12-.11.24-.22.38-.33-.03.22-.06.45-.1.68zM97.12 57.85l.01.02c.01-.01 0-.01-.01-.02zM91.4 30.58c-.27.14-.42-.1-.13-.27.62-.36 10.39-4.74 11.16-5.1.46-.21.74.09.27.34 0-.01-10.68 4.72-11.3 5.03zM102.52 24.46s.14.16-.03.21c-.25.06-3.36.21-3.52.21-.12 0-.9.06-1.14.06-.56-.07-.16-.19.09-.23.99-.15 4.32-.4 4.6-.25zM123.23 30.55c.27.13.41-.1.13-.27-.62-.37-10.39-4.74-11.16-5.1-.46-.22-.74.08-.27.33 0 0 10.68 4.73 11.3 5.04zM112.46 24.42s-.13.15.04.19c.23.06 3.28.19 3.44.19.11 0 .88.06 1.12.06.55-.06.16-.17-.09-.21-.33-.05-4.1-.43-4.51-.23zM94.63 54.93l1 .36c.03.01.05 0 .1-.11l.04.02-.29.78-.04-.01c.03-.1.02-.12-.01-.13l-1.51-.55.02-.06c.08.02.1-.01.11-.05l.76-2.09c.02-.04.02-.07-.05-.11l.02-.05.6.22-.02.05c-.08-.02-.1.01-.11.05l-.62 1.68zM97.47 55.93l-.03-.02c.02-.06.03-.11-.02-.14l-.49-.3-.23.38.85.51c.03.02.05.01.12-.09l.03.02-.43.71-.03-.02c.03-.07.03-.1.01-.12l-1.32-.79.03-.04c.07.03.1 0 .11-.03l1.15-1.9c.02-.04.03-.07-.03-.12l.03-.06 1.32.8c.02.02.05 0 .12-.09l.03.02-.43.71-.03-.02c.05-.1.05-.12.02-.14l-.85-.51-.2.33.49.3c.06.03.1 0 .14-.05l.03.02-.39.64zM98.01 57.52l.04-.04c.06.04.09.03.12 0l1.24-1.28-.38-.37c-.02-.02-.04-.01-.13.06l-.03-.03.59-.61.03.03c-.07.09-.08.11-.05.13l1.1 1.06c.02.02.05.01.13-.06l.03.03-.59.61-.03-.03c.07-.09.08-.11.05-.13l-.38-.37-1.24 1.28c-.03.03-.04.06 0 .12l-.04.04-.46-.44zM99.76 59.96l.05-.02c.04.07.07.06.11.04l1.62-.74-.22-.48c-.02-.03-.04-.04-.14.01l-.02-.04.77-.35.02.03c-.09.05-.11.08-.1.11l.64 1.39c.01.03.04.03.14-.01l.02.04-.77.35-.02-.03c.1-.05.12-.08.1-.11l-.22-.48-1.62.74c-.04.02-.07.04-.04.12l-.05.02-.27-.59zM101.6 63.24c-.03.02-.06.05-.02.12l-.05.03-.38-.51.05-.03c.05.05.09.04.12.02l.71-.52-.47-.64-.71.52c-.03.02-.06.05-.01.12l-.05.03-.37-.51.04-.04c.06.05.09.05.12.02l1.79-1.3c.04-.03.06-.05.02-.12l.05-.03.38.51-.05.03c-.05-.06-.08-.04-.12-.02l-.61.44.47.65.61-.45c.04-.02.06-.05.02-.12l.05-.03.37.51-.05.04c-.05-.06-.09-.05-.12-.02l-1.79 1.3zM103.78 63.99l-.03-.02c.03-.05.04-.11-.01-.14l-.46-.34-.26.36.8.58c.03.02.06.01.13-.08l.03.02-.49.68-.03-.02c.04-.07.05-.1.01-.12l-1.24-.9.03-.04c.06.03.1.01.12-.02l1.3-1.8c.02-.03.04-.06-.02-.12l.03-.04 1.25.9c.03.02.05.01.12-.08l.03.02-.48.67-.03-.02c.06-.1.06-.12.03-.14l-.8-.59-.23.33.47.33c.05.03.09.01.14-.03l.03.02-.44.59zM104.86 65.36c-.01.04-.01.07.05.11l-.02.06-.61-.2.02-.05c.08.01.1-.01.11-.06l.69-2.11c.01-.04.01-.07-.06-.11l.02-.05 1.07.35c.43.14.54.44.38.95-.14.42-.39.58-.66.61l.1.86c0 .07.03.1.06.11l-.01.05-.61-.2.02-.05c.04.01.07-.01.09-.06.01-.04-.1-.77-.1-.87l-.29-.1-.25.76zm.41-1.24l.49.16c.17.06.26-.05.31-.17.04-.14.03-.27-.14-.33l-.5-.16-.16.5zM108.17 65.21l-.04-.01c0-.06-.02-.12-.08-.12l-.57-.04-.03.44.99.07c.03 0 .05-.02.06-.14h.04l-.06.83h-.03c0-.08-.02-.11-.05-.11l-1.53-.11v-.06c.08 0 .09-.04.09-.08l.16-2.21c0-.04-.01-.08-.08-.09v-.06l1.54.11c.04 0 .05-.02.07-.13h.04l-.06.83-.04-.01c0-.11-.01-.13-.04-.13l-.99-.07-.03.39.57.04c.06.01.09-.04.1-.1h.04l-.07.76zM109.84 63.59c-.01-.04-.03-.07-.11-.06l-.02-.05 1.12-.34c.32-.09.61.02.74.47.08.27.02.48-.12.58v.01c.22.02.41.14.52.48.11.37.03.73-.39.86l-1.14.35-.02-.05c.07-.03.07-.07.06-.11l-.64-2.14zm.68.64l.4-.12c.25-.08.31-.12.25-.31-.06-.18-.13-.19-.38-.11l-.4.12.13.42zm.31 1.01l.5-.15c.21-.06.27-.16.21-.36-.06-.2-.17-.25-.37-.19l-.5.16.16.54zM113.6 63.68l-.04.01c-.03-.05-.08-.08-.13-.05l-.51.26.2.39.88-.45c.04-.02.04-.04-.01-.16l.03-.02.38.74-.03.01c-.04-.07-.07-.08-.09-.07l-1.38.7-.03-.05c.06-.04.06-.07.04-.12l-1.01-1.98c-.02-.03-.04-.06-.12-.03l-.02-.05 1.37-.7c.03-.01.03-.04-.01-.15l.03-.01.38.74-.04.02c-.05-.09-.08-.11-.11-.09l-.88.45.18.35.51-.26c.06-.03.06-.08.03-.14l.04-.02.34.68zM112.76 55.43l1.03.26c.03.01.05-.02.08-.12l.04.01-.2.81-.04-.01c.02-.1.01-.13-.02-.13l-1.56-.39.01-.05c.07.01.1-.02.1-.06l.54-2.16c.01-.04.01-.08-.06-.1l.02-.06.62.15-.02.05c-.07-.01-.09.02-.1.06l-.44 1.74zM114.17 56.5l.02-.05c.07.02.1 0 .11-.05l.83-2.06c.02-.04.02-.07-.05-.11l.02-.05.59.24-.02.05c-.08-.02-.1.01-.12.05l-.83 2.06c-.02.04-.02.07.04.11l-.02.06-.57-.25zM117.26 56.56l-.38-.1c-.04-.01-.05.02-.07.08l-.04-.01.17-.64.04.01c-.02.06-.01.09.02.09l.88.24-.02.06c-.04-.01-.05.01-.07.06l-.21.76c-.01.04-.02.08.01.08h.02l-.02.06c-.33.16-.68.18-1.05.08-.5-.13-.86-.66-.64-1.5.22-.83.8-1.11 1.3-.98.19.05.28.1.46.24.08.07.16.17.19.18.02 0 .04-.01.05-.03l.03.03-.35.55-.03-.04c0-.01.02-.03.02-.05.03-.09-.23-.3-.48-.37-.28-.08-.61.09-.74.59s.12.79.38.87c.16.04.31.04.44.02l.09-.28zM120.27 57.69c0 .04.01.07.08.09v.06l-.64-.05.01-.05c.08 0 .09-.04.09-.08l.06-.88-.8-.06-.06.88c0 .04.01.08.08.09v.06l-.63-.04.01-.06c.08-.01.09-.04.09-.08l.15-2.21c0-.05 0-.08-.08-.09v-.06l.64.04-.01.06c-.08 0-.09.04-.09.08l-.05.75.8.06.05-.75c.01-.04 0-.08-.08-.09l.01-.06.63.05-.01.05c-.07.01-.08.04-.09.08l-.16 2.21zM121.84 57.67l-.01-.06c.08-.03.08-.06.07-.1l-.28-1.76-.52.08c-.04 0-.04.03-.04.13l-.04.01-.13-.84.04-.01c.03.11.04.13.08.12l1.5-.24c.03-.01.04-.03.03-.14h.04l.13.84-.04.01c-.03-.11-.04-.13-.07-.12l-.53.08.28 1.76c.01.05.02.07.1.07l.01.06-.62.11z" fill="#00467F"/>
    <g fill="#00467F">
        <path d="M100.05 53.92c.11.01.66.01.76 0 .12-.02.64.04.93.1.11.03.19.33.04.32-.84-.07-.53-.01-1.31-.1-.78-.08-.42-.32-.42-.32zM103.04 54.06c.22-.04 2.49.29 2.65.44-.02.01.1.05.04.2-.14.24-.57-.18-2.16-.25-.32-.04-.8.04-.77-.21 0-.1.13-.16.24-.18z"/>
    </g>
    <path d="M98.34 35.9c-.1.08-.11.41-.15.51-.02.06-.3.01-.29-.04 0 0 .08-.59.13-.76-.06-.04.66.04.64-.02.03-.1-.13-.71-.17-.74-.08.04-.2.75-.2.76l-.27-.01s.21-1.32.43-1.33c.04-.01.18-.05.24.04.07.13.58 1.85.57 2.02-.08.08-.37.14-.38.02 0 0-.02-.33-.13-.45-.04-.02-.32-.06-.42 0z" fill="#00467F"/>
    <g fill="#00467F">
        <path d="M100.07 40.83c-.07.22-.57.1-.92.11-.84.01-1.8.1-1.8-.12-.06-.37 1.03-.23 1.44-.23.61.03 1.39-.1 1.28.24zM101.36 40.79c-.1.16-.34.15-.68.12-.11-.01-.16-.02-.2-.1-.01-.22.33-.21.74-.21.12.02.2.1.14.19zM103 40.89c-.1.06-1 .13-1.07-.06-.07-.21.37-.23.78-.23.44 0 .42.22.29.29zM106.14 41.5c-.11.12-1.1-.4-1.6-.52-.33-.08-.6.02-.89-.04-.2-.03-.1-.24.09-.3.6-.16 2.6.65 2.4.86z"/>
    </g>
    <g fill="#00467F">
        <path d="M99.5 42.42c-.08.22-.57.1-.91.11-.84.01-1.22.02-1.23-.28-.01-.23.47-.06.87-.06.6.03 1.37-.1 1.27.23zM101.72 42.43c-.07.22-.58.1-.92.11-.83.01-.84.01-.87-.12-.03-.15.09-.22.5-.22.62.03 1.41-.1 1.29.23zM103.19 42.48c-.1.16-.37.07-.73.07-.12 0-.17-.02-.21-.1-.01-.23.35-.21.78-.21.12.01.21.14.16.24zM106.19 43.15c-.06.28-.54-.21-1-.32-.33-.08-1.1-.13-1.38-.18-.2-.03-.19-.24 0-.27.98-.16 2.44.5 2.38.77z"/>
    </g>
    <g fill="#00467F">
        <path d="M106.29 44.78c0 .37-.73-.09-1.17-.15-.37-.04-.99-.12-1.5-.05-.2.02-.18-.3.01-.33.43-.07 2.66.26 2.66.53zM102.87 44.36c-.1.15-.46.12-.79.09-.11-.01-.19-.06-.23-.14-.01-.22.2-.23.61-.22.43-.04.46.18.41.27zM99.78 44.27c-.09.14-.66.08-.97.02-.83-.15-1.52.24-1.54-.1-.01-.26.82-.19 1.23-.19.6.03 1.48-.07 1.28.27zM101.29 44.29c-.09.18-.33.17-.67.13-.11-.01-.18-.02-.22-.11-.01-.26.35-.24.76-.24.11.03.19.12.13.22z"/>
    </g>
    <g fill="#00467F">
        <path d="M102.1 33.79c.03.22-.58.11-1 .17-.85.1-.92.19-.86.01.12-.42 1.82-.5 1.86-.18zM102.56 33.93c-.05-.03-.12-.12 0-.22.35-.27.89-.04.97.06.11.13-.04.26-.14.26-.14-.04-.67 0-.83-.1zM106.04 34.77c-.09.09-.72-.33-1.04-.45-.51-.18-1.04-.15-1.03-.42.02-.49 2.54.43 2.07.87z"/>
    </g>
    <g fill="#00467F">
        <path d="M101.88 37.41c-.05.1-.49.02-.86.04-.39.02-.67.12-.7-.13-.02-.2.42-.16.84-.16.43 0 .88-.07.72.25zM102.32 37.46c-.13-.03-.12-.15 0-.25.39-.07.9-.01 1.03.02.18.04.11.27-.04.28-.85-.04-.76-.02-.99-.05zM106.04 38.23c-.09.07-.5-.19-.89-.27-.37-.09-.52-.13-.6-.18-.18-.06-.07-.26.02-.29.08-.04 1.87.43 1.47.74zM104.27 37.46c-.04.28-.32.17-.44.13-.08-.03-.12-.15-.06-.23.1-.11.48.01.5.1z"/>
    </g>
    <g fill="#00467F">
        <path d="M100.87 35.7c.12.25-.34.28-.46.24-.07-.03-.11-.15-.05-.23.1-.11.44-.08.51-.01zM101.53 35.86c-.05-.03-.09-.14.02-.25.37-.13 1.34-.05 1.45.01.27.15.12.31.02.31-.65-.1-1.35.01-1.49-.07zM105.21 36.26c-.09.09-.79-.17-1.13-.2-.38-.03-.59-.1-.61-.2.01-.25.57-.2 1.07-.1.49.11.9.27.67.5zM106.1 36.46c-.04.29-.3.14-.42.1-.08-.03-.14-.19-.08-.27.1-.12.53.09.5.17z"/>
    </g>
    <g fill="#00467F">
        <path d="M97.52 38.76c.52-.12.85.51.12.4-.26-.04-.29-.1-.29-.19 0-.07 0-.17.17-.21zM101.27 38.98c-.07.22-1.16.14-1.5.15-.86.01-1.17.02-1.26-.13-.01-.23.48-.22.89-.21.43.01 1.98-.14 1.87.19zM103.04 39.12c-.06.08-.15.04-.5.06-.38.03-.62.02-.65-.13-.01-.22.38-.23.79-.22.43-.01.46.15.36.29zM105.17 39.49c-.25.21-.39-.13-.83-.19-.34-.04-.69-.03-.97-.08-.18-.09-.12-.29.08-.34 1.04-.06 1.98.41 1.72.61zM105.98 39.85c-.03.23-.22.24-.4.09-.07-.03-.15-.2-.08-.28.09-.11.42 0 .48.19z"/>
    </g>
    <g fill="#00467F">
        <path d="M105.95 46.43c-.11.24-.89-.15-1.44-.17-.39-.02-.6.02-.65.02-.2-.04-.18-.29.01-.33.62-.11 2.21.18 2.08.48zM102.25 46.07c-.09.16-.33.08-.67.05-.11-.01-.56.12-.7-.03-.05-.26.57-.29.8-.28.43 0 .62.17.57.26zM99.98 46.06c-.1.18-1.26-.02-1.58-.03-.63-.03-1.05.21-1.05-.14.1-.22 1.17-.1 1.41-.1.6.02 1.37-.01 1.22.27zM103.36 45.92c.12.25-.34.28-.46.24-.08-.03-.12-.15-.06-.23.11-.12.44-.09.52-.01z"/>
    </g>
    <g fill="#00467F">
        <path d="M109.96 33.86c.49 0 .55.12.5.28-.06.11-.66.07-.83.07-.59.02-.87.38-1.08.31-.25-.07-.12-.28.16-.39.24-.11.71-.27 1.25-.27zM111.24 33.81s.7.03.84.12c.2.12.16.25.08.32-.04.04-1-.06-1.04-.08-.05-.03-.11-.05-.12-.16-.01-.13.03-.2.24-.2zM117.39 33.92c.21.03.28.37.08.4-.73.11-.87.07-.88-.04-.21-.43.76-.37.8-.36zM114.8 34.07s.83.01 1.01.05c.08.02.18.17.08.31-.08.1-1.14.13-1.23-.24-.01.02-.04-.11.14-.12zM112.97 34s.73.05.91.1c.08.02.28.13.17.27-.08.1-1.14.13-1.23-.23 0 0-.03-.12.15-.14z"/>
    </g>
    <g fill="#00467F">
        <path d="M111.1 35.76c.08-.23.71-.18.88-.05 0 0 .04.12-.04.19-.4.18-.9.01-.84-.14zM112.89 35.86c.19-.13.95 0 .72.29-.05.03-.59.12-.78.02-.04-.04-.13-.17.06-.31zM115.46 35.98c.28.34-.66.33-.77.32-.12-.02-.33-.05-.36-.16-.02-.32.94-.38 1.13-.16zM117.47 35.82c.13.45-.63.38-.73.38-.12 0-.34-.02-.38-.13-.05-.31 1.02-.54 1.11-.25zM109.98 35.43c.18-.01.59-.01.62.22-.15.27-.94.21-1.11.24-.7.11-.87.38-1.09.31-.25-.07-.12-.28.16-.39.24-.11.9-.36 1.42-.38z"/>
    </g>
    <g fill="#00467F">
        <path d="M113.38 37.52c.03.14-.06.2-.07.22-.07.09-.77.06-.89-.18-.02-.04-.02-.25.22-.2.2.04.71-.17.74.16zM114.13 37.39c.07-.01 1.28.01.96.36-.05.05-.15.12-.24.12-.32-.01-.85-.05-.92-.12-.05-.04-.05-.13 0-.24.03-.07.11-.1.2-.12zM115.83 37.4c.91.18 1.57-.11 1.66.1.1.21-.01.23-.01.23-.12.1-1.87.14-1.92-.13-.02-.14.18-.22.27-.2zM111.77 37.36c.2.32-.44.26-.52.26-.08-.02-.24-.05-.27-.15-.01-.31.64-.36.79-.11zM109.71 37.12c.19-.01.48-.08.59.17-.16.33-.54.15-1.11.24-.7.11-.71.32-.89.16-.16-.14 0-.26.28-.38.25-.1.61-.16 1.13-.19z"/>
    </g>
    <g fill="#00467F">
        <path d="M110.72 38.93c.09.02.33.03.44.13.09.09.07.2 0 .24-.87.11-.84-.08-.84-.08-.07-.31.27-.32.4-.29zM117.48 39.07c.4.2-.26.42-.7.29-.04-.01-.12-.05-.16-.12-.07-.23.68-.25.86-.17zM112.52 38.93c.23.06.23.34 0 .39-.08.02-.89.15-.92-.12.01-.45.85-.29.92-.27zM116.29 39.17c.06.28-.18.24-.42.22-.3-.03-1.18.08-1.13-.13.03-.17.38-.08.49-.13.28-.12 1.02-.12 1.06.04zM114.13 39.34c-.09.19-.96.09-.84-.2.04-.09.94-.23.84.2zM109.26 38.8c.18 0 .55-.02.61.25-.26.22-.55.06-1.12.18-.52.12-.63.22-.62-.06.02-.2.62-.37 1.13-.37z"/>
    </g>
    <g fill="#00467F">
        <path d="M110.53 40.64s.69-.09.91.04c.07.04.19.14.1.29-.06.11-1.11.14-1.11-.16 0 0-.04-.13.1-.17zM112.29 40.78c.23-.09 1.08.12.7.42-.07.06-.66-.01-.83-.15-.04-.04-.1-.18.13-.27zM113.85 40.83c.2-.07.91.1.59.34-.06.05-.51.08-.66-.03-.04-.03-.14-.24.07-.31zM115.87 40.96c-.27.04-.6.12-.63.24.03.15.2.12.74.1.27-.01 1.02.11 1.22.06.2-.05.22-.23.14-.24-.43-.03-.82-.23-1.47-.16zM109.34 40.63c.18 0 .55-.1.55.21-.18.27-.51.16-1.08.28-.52.11-.64.19-.62-.09.01-.19.64-.4 1.15-.4z"/>
    </g>
    <path d="M110.73 42.72h.43c.21 0 .12.27.1.3-.02.06-.35.09-.59.07-.12-.01-.34-.07-.35-.25.04-.15.25-.11.41-.12zM112.14 42.75c.06-.01 1.17.01.88.3-.04.04-.13.1-.22.1-.29-.01-.78-.04-.85-.1-.05-.04-.04-.11 0-.2.03-.06.1-.09.19-.1zM113.86 42.8c.22-.09.92.21.64.43-.06.02-.6-.01-.76-.16-.04-.03-.1-.18.12-.27zM115.39 42.94c.07-.02 1.29.01.96.36-.04.05-.14.12-.24.12-.32 0-.84-.04-.92-.12-.05-.04-.05-.13 0-.24.03-.06.11-.1.2-.12zM109.26 42.63c.25-.02.63-.12.62.18-.18.27-.39.15-.95.27-.51.11-.64.19-.62-.09 0-.19.44-.32.95-.36zM116.95 43.04c.2-.08.91.1.59.34-.06.05-.52.08-.67-.03-.02-.03-.12-.24.08-.31zM112.86 44.68c.06-.01 1.18.01.89.29-.04.04-.14.1-.22.1-.29-.01-.77-.04-.85-.1-.04-.04-.04-.1 0-.2.03-.05.1-.07.18-.09zM114.69 44.85c.35-.04.99.06.92.36-.04.2-.24.04-.37.04-.25.01-1.01.12-.92-.22 0-.14.28-.17.37-.18zM116.05 45.23c.01.21.86.46.86.14 0-.1-.76-.58-.86-.14zM111.94 44.64s-.6-.16-.85-.09c-.06.02-.17.13-.1.28.05.1 1.01.22 1.02-.05-.01.01.03-.08-.07-.14zM109.62 44.51c.19 0 .97.01.96.31-.11.25-.72.01-1.5.11-.52.07-.63.19-.62-.09.01-.19.65-.33 1.16-.33zM111.49 46.34c.23-.09 1.14.09.77.39-.06.06-.72.02-.9-.12-.04-.04-.11-.18.13-.27zM113.23 46.56c.2-.08.91.1.59.35-.05.05-.55-.01-.7-.13-.03-.02-.09-.14.11-.22zM115.42 46.91c.19.36-.56.27-.64.25-.09-.02-.26-.07-.27-.19 0-.31.78-.3.91-.06zM115.91 47.15c.01.21.49.35.49.03 0-.11-.4-.47-.49-.03zM108.62 46.43c.07-.02 2.06-.29 1.98.07-.01.06.08.14-1.02.19-.28.01-1.08.17-1.16.1-.05-.05-.14-.23.2-.36zM110.85 49.71s.7-.05.92.08c.07.04.18.15.07.3-.07.1-1.11.08-1.1-.22.01 0-.02-.13.11-.16zM112.83 49.95c.06-.01 1.18.07.87.34-.05.04-.14.09-.23.09-.29-.02-.77-.07-.84-.14-.04-.04-.04-.11.01-.2.03-.05.11-.08.19-.09zM114.87 50.54c-.29-.06-.79-.18-.69-.38.07-.15.39.04.5.03.64-.06.74.47.19.35zM116.47 50.71c-.3.01-.81-.11-.76-.31.04-.17.3-.03.42-.06.8-.27.9.35.34.37zM109.99 49.82c.04.21-.25.17-.78.16-.5-.01-.9.42-1.02.12-.04-.1.07-.2.35-.32.24-.1 1.41-.18 1.45.04zM111.2 48c.04-.01.87 0 .65.29-.03.04-.1.1-.17.1-.21 0-.57-.04-.62-.1-.04-.03-.03-.1 0-.19.02-.06.07-.09.14-.1zM112.51 48.11c.21-.09 1.38.09 1.02.48-.06.02-.97-.06-1.13-.2-.04-.03-.11-.19.11-.28zM115.06 48.44c.19-.01 1.06.14 1.01.43-.02.06-.3.05-.45.02-.46-.1-.7-.18-1.09-.18-.16 0-.15-.15-.1-.26.03-.06.53-.01.63-.01zM110.34 48.18c.03.32-.43.18-.96.17-.5-.01-.89.37-1.02.07-.05-.11.07-.21.34-.32.25-.11 1.62-.14 1.64.08zM115.85 51.71c.07-.01 1.28.07.94.41-.05.05-.15.11-.25.11-.31-.02-.84-.09-.92-.16-.05-.05-.04-.14.02-.24.03-.08.11-.11.21-.12zM115.02 51.95c-.1.19-.97.04-.83-.24.05-.1.95-.19.83.24zM112.81 51.43c.06 0 1.18.07.87.34-.04.04-.14.09-.23.09-.29-.03-.77-.08-.84-.14-.04-.04-.04-.11.01-.2.03-.05.1-.08.19-.09zM111.71 51.37c.18.34-.46.24-.54.23-.08-.02-.24-.06-.26-.16.01-.31.66-.32.8-.07zM109.39 51.23c.18 0 .59-.13.58.18-.18.27-.51.16-1.08.29-.51.11-.63.19-.62-.1 0-.19.6-.37 1.12-.37zM108.52 53.01s.62-.2.92-.11c.08.02.16.08.08.24-.29 0-.93.08-1.03.18.01 0-.08-.25.03-.31z" fill="#00467F"/>
    <g fill="#00467F">
        <path d="M101.15 47.6c.32-.07 1.08.31.25.37-.05.01-.51.02-.56-.04-.29-.29.23-.32.31-.33zM100.23 47.79c0 .18-.88.17-1.56.12-.82-.05-1.32.03-1.32-.21.04-.3.83-.1 1.23-.1.61.04 1.67-.2 1.65.19zM104.93 48.08c-.06.32-1.24-.09-1.79-.12-.39-.01-.72-.03-.77-.04-.2-.04-.18-.29.01-.32.4-.07 2.59.26 2.55.48zM106.01 48.71c-.1.15-.25 0-.54-.08-.11-.03-.24-.09-.2-.27.14-.2.39-.03.49.04.26.13.3.23.25.31z"/>
    </g>
    <g fill="#00467F">
        <path d="M103.9 51.52c-.01.28-1.27-.12-1.81-.14-.39-.01-1.04.01-1.09 0-.2-.03-.2-.31-.01-.35.61-.1 2.93.11 2.91.49zM100.27 51.22c-.01.15-.79.11-1.55.06-1.28-.01-1.37-.06-1.32-.23.08-.29.81-.19 1.22-.22.62.03 1.69 0 1.65.39zM106.07 52.18c-.1.16-.53-.17-.88-.2-.11-.01-.5-.04-.48-.22.01-.23.3-.21.73-.09.42.11.76.32.63.51z"/>
    </g>
    <g fill="#00467F">
        <path d="M104.9 49.91c-.08.42-.55-.06-1.79-.12-.39-.02-.72-.03-.78-.04-.2-.04-.18-.29.01-.33.63-.1 2.62.18 2.56.49zM101.26 49.29c.32-.06 1.08.32.24.37-.06.01-.51.02-.57-.03-.29-.25.24-.32.33-.34zM100.22 49.45c-.01.28-1.39.11-1.71.09-.82-.05-1.15.09-1.16-.25.04-.3.83-.1 1.23-.1.61.03 1.66-.14 1.64.26zM105.68 50.08c.32.1.8.78.04.44-.06-.02-.46-.22-.49-.29-.13-.36.37-.17.45-.15z"/>
    </g>
    <g fill="#00467F">
        <path d="M105.91 56.16c.04.02.2.02.09.23-.11.17-2.27-.21-2.38-.23-.22-.04-.21-.08-.2-.24.06-.13.23-.09.26-.09.07-.02 2.18.31 2.23.33zM102.7 55.91c-.08.11-1.03.13-1-.09.01-.23.25-.13.65-.12.46 0 .43.09.35.21z"/>
    </g>
    <path d="M109.56 55.86c.18-.02.36-.12.35.18-.06.18-.31.12-.88.24-.51.11-.64.23-.59-.04.02-.14.6-.32 1.12-.38zM109.54 54.3c.18 0 .44-.09.42.21-.1.13-.43.07-.99.19-.52.11-.6.28-.58-.01.01-.19.64-.39 1.15-.39zM97.49 34.03c-.03 0-.04.15-.04.39 0 .23.01.55.02.89l.01 1.54h.04c-.04-.07-.04-1.54-.04-1.54-.01-.34-.02-.66-.02-.9 0-.23 0-.38.03-.38.45-.1 1.74-.26 2.05-.12.08.04.12.46.12.97 0 .78-.07 1.76-.11 1.86-.03.08-.48.12-.95.15.48-.02.93-.07.96-.15.04-.09.11-1.08.11-1.86 0-.51-.03-.93-.12-.97-.32-.15-1.61.02-2.06.12zm0 0zm.03 2.84c.14.04.62.04 1.08.02-.45.02-.89.01-1.08-.04v.02zM97.45 33.86c-.18.04-.19.12-.15 1.36v.84l.01.8c.04.27.34.24.62.21l.44-.04.46-.01c.84-.01 1-.03 1.06-.18l-.01-.5-.05-1.04c.03-1.43-.11-1.49-.21-1.54-.41-.19-1.82.03-2.17.1zm2.02.2v.02c0 .07.02.31.02.79 0 .12 0 .26-.01.41l.06 1.08s.01.17.02.28c-.13.01-.74.04-.74.04l-.46.01-.47.04s-.27.02-.29.02c.04-.01.04-.4.04-.59v-1.99c.54-.1 1.59-.21 1.83-.11z" fill="#00467F"/>
    <g fill="#00467F">
        <path d="M105.85 53.19c-.06.27-1.24-.22-1.79-.24-.38-.01-1.39-.05-1.45-.06-.2-.03-.29-.26-.1-.29.63-.11 3.4.28 3.34.59zM100.16 52.67c-.01.24 0 0-1.22.02-1.28-.02-1.37 0-1.32-.17.08-.29.83-.11 1.25-.14.6.03 1.31-.09 1.29.29zM100.93 52.62c.08-.11.85-.15.82.08-.02.23-.12.13-.52.13-.45 0-.38-.1-.3-.21z"/>
    </g>
    <g fill="#00467F">
        <path d="M107.77 13.47c-.34-.01-.6-.28-.6-.62.01-.34.28-.61.62-.6.34 0 .61.28.6.62 0 .34-.28.61-.62.6zM105.6 13.53c-.35.02-.63-.24-.65-.57-.02-.34.23-.63.57-.65.34-.02.63.23.65.57.02.34-.23.63-.57.65zM103.39 13.74c-.34.04-.64-.19-.68-.53-.04-.34.18-.65.53-.69.34-.04.65.19.69.53.04.35-.2.64-.54.69zM101.21 14.1c-.34.07-.65-.14-.72-.48-.07-.33.14-.65.48-.72.34-.07.66.15.72.49.07.32-.14.64-.48.71zM99.06 14.61c-.33.09-.66-.1-.75-.43-.09-.33.09-.66.43-.75.33-.09.66.1.76.43.08.33-.11.66-.44.75zM96.94 15.27c-.33.11-.67-.05-.78-.37-.11-.32.04-.67.37-.79.33-.11.67.06.79.38s-.05.66-.38.78zM94.9 16.07c-.32.14-.67 0-.8-.32s0-.67.32-.81.67 0 .81.32c.12.32-.02.67-.33.81zM92.9 17.01c-.31.16-.67.04-.82-.27-.16-.3-.04-.67.26-.83s.67-.04.83.26c.15.32.03.69-.27.84zM90.97 18.09c-.29.18-.66.08-.84-.21-.18-.29-.09-.66.21-.84.29-.18.67-.08.84.21.18.29.09.66-.21.84zM89.11 19.3c-.28.2-.65.13-.85-.15-.2-.28-.14-.65.14-.86.28-.2.66-.13.86.15.2.29.14.66-.15.86zM87.35 20.64c-.27.22-.65.18-.86-.09-.21-.26-.18-.64.09-.86.27-.22.65-.17.87.08.21.27.17.65-.1.87zM85.68 22.09c-.25.23-.63.22-.86-.03-.23-.25-.23-.63.03-.87.25-.24.64-.22.87.03.22.25.21.63-.04.87zM84.12 23.65c-.24.25-.62.26-.86.03-.25-.23-.27-.61-.03-.87.24-.25.62-.26.87-.03.24.24.25.62.02.87zM82.66 25.32c-.22.27-.59.3-.86.09-.26-.21-.31-.59-.09-.86.22-.26.6-.3.87-.09.26.22.3.6.08.86zM81.34 27.07c-.2.28-.57.34-.85.15-.28-.19-.35-.57-.15-.85.2-.28.58-.34.86-.15s.34.57.14.85zM80.12 28.93c-.18.29-.55.38-.84.2-.29-.18-.39-.54-.21-.84.18-.29.55-.38.84-.21.3.18.39.55.21.85zM79.04 30.85c-.16.31-.52.42-.82.26-.3-.15-.43-.52-.27-.83.16-.3.53-.42.83-.26.31.16.42.52.26.83zM78.1 32.85c-.14.32-.49.45-.8.32-.31-.14-.46-.49-.32-.81.13-.32.5-.46.81-.32.31.14.45.49.31.81zM77.3 34.9c-.11.32-.46.49-.78.37-.32-.11-.49-.45-.38-.78.11-.33.46-.49.78-.38.33.12.5.46.38.79zM76.64 37.01c-.09.33-.42.52-.75.43-.33-.09-.52-.42-.43-.75.09-.33.43-.52.76-.43.32.09.51.42.42.75zM76.13 39.16c-.07.34-.39.54-.72.48-.33-.07-.55-.38-.48-.72.07-.34.39-.55.72-.48.33.06.54.39.48.72zM75.77 41.34c-.04.34-.35.57-.68.53-.34-.04-.58-.34-.53-.69.05-.34.35-.57.69-.53.33.05.56.35.52.69zM75.56 43.54c-.02.35-.31.59-.65.57-.34-.02-.6-.3-.58-.65.02-.34.31-.6.65-.58.34.03.6.32.58.66zM75.49 45.74c.01.34-.26.62-.6.62-.34.01-.62-.25-.63-.6 0-.34.27-.62.61-.63.35 0 .62.27.62.61zM75.59 47.97c.02.34-.22.63-.56.66-.34.03-.63-.22-.66-.56-.03-.35.23-.64.57-.66.33-.04.62.21.65.56zM75.83 50.16c.05.34-.18.65-.52.69-.34.05-.65-.18-.7-.52-.05-.34.19-.65.52-.7.34-.04.65.19.7.53zM76.22 52.33c.07.34-.14.66-.47.73-.33.07-.66-.13-.73-.47s.14-.66.47-.73c.33-.08.66.13.73.47zM76.76 54.46c.1.33-.09.66-.42.76-.33.09-.67-.08-.76-.42-.1-.33.09-.67.42-.76.33-.09.66.09.76.42zM77.45 56.57c.12.33-.04.67-.36.79s-.67-.04-.79-.36.04-.67.37-.79c.31-.13.66.04.78.36zM78.28 58.61c.14.31 0 .67-.31.81s-.67.01-.81-.31 0-.67.31-.81c.31-.15.67-.01.81.31zM79.25 60.58c.17.31.05.67-.25.83-.3.16-.67.05-.83-.25-.16-.3-.04-.67.25-.83.3-.16.67-.05.83.25zM80.36 62.51c.18.29.09.66-.19.84-.29.18-.66.1-.85-.19-.19-.29-.1-.67.19-.85.3-.17.67-.09.85.2zM81.59 64.33c.2.28.14.65-.13.85-.28.2-.66.15-.86-.13-.2-.28-.14-.66.14-.86.27-.2.65-.13.85.14zM82.95 66.07c.22.27.19.64-.08.86-.26.22-.64.19-.87-.07-.22-.27-.18-.65.08-.87.27-.21.65-.18.87.08zM84.43 67.72c.24.25.23.63-.02.86-.25.24-.63.24-.87-.01s-.23-.63.02-.87c.25-.23.63-.22.87.02zM86.02 69.27c.25.23.27.61.04.86-.23.26-.61.28-.86.05-.26-.23-.27-.62-.04-.87.22-.26.6-.27.86-.04zM87.71 70.7c.27.22.31.59.1.86-.21.26-.59.32-.86.1-.27-.21-.31-.59-.1-.87.2-.26.59-.31.86-.09zM89.49 72.01c.29.2.35.57.16.85-.19.28-.57.36-.85.17-.29-.2-.35-.57-.16-.85.19-.3.56-.36.85-.17zM91.34 73.19c.3.17.39.54.22.83-.17.29-.54.39-.84.22s-.39-.55-.22-.84c.18-.29.55-.39.84-.21zM93.28 74.24c.31.15.42.51.27.82-.15.31-.51.44-.82.28-.31-.15-.43-.52-.28-.82.16-.32.53-.44.83-.28zM95.3 75.15c.32.13.46.49.33.8-.13.32-.48.47-.8.33-.32-.13-.47-.49-.33-.8.13-.31.48-.46.8-.33zM97.36 75.92c.33.11.49.45.39.77-.11.32-.45.5-.77.39-.33-.11-.5-.45-.39-.78.1-.32.45-.48.77-.38zM99.49 76.55c.33.09.52.42.44.75-.08.33-.41.53-.75.44-.33-.08-.52-.42-.44-.75.09-.33.42-.52.75-.44zM101.65 77.04c.34.06.55.38.49.71-.06.33-.37.56-.71.49-.34-.06-.56-.38-.49-.72.06-.33.37-.55.71-.48zM103.82 77.36c.34.04.58.34.54.68-.04.33-.34.58-.68.54-.34-.04-.58-.34-.54-.68.04-.34.34-.58.68-.54zM106.03 77.54c.34.02.6.3.58.64-.01.34-.29.6-.64.59-.35-.02-.6-.3-.59-.64.02-.34.31-.61.65-.59zM108.25 77.57c.34-.01.62.26.62.6.01.34-.25.62-.6.63-.34.01-.62-.26-.63-.6 0-.35.27-.62.61-.63zM110.45 77.45c.34-.03.63.22.66.56.03.34-.21.64-.55.67s-.64-.22-.67-.56c-.03-.35.22-.64.56-.67zM112.64 77.18c.34-.05.65.17.7.51.05.34-.17.65-.51.71-.34.05-.65-.17-.7-.51-.06-.35.17-.66.51-.71zM114.82 76.75c.34-.08.66.13.73.46.07.33-.12.66-.46.74-.33.08-.66-.13-.74-.46-.07-.34.13-.66.47-.74zM116.95 76.18c.33-.1.66.08.76.4.1.32-.07.67-.4.77-.33.1-.67-.09-.77-.41-.1-.32.08-.66.41-.76zM119.03 75.46c.32-.12.67.04.79.36.12.31-.03.67-.35.79-.32.12-.67-.04-.79-.36s.03-.67.35-.79zM121.06 74.61c.31-.15.67-.01.81.29.14.31.02.67-.29.82-.31.14-.67.01-.82-.3-.15-.31-.02-.67.3-.81zM123.04 73.6c.3-.17.66-.06.83.24.17.3.07.67-.24.84-.3.17-.67.05-.84-.24-.15-.31-.05-.68.25-.84zM124.93 72.46c.29-.19.66-.11.84.18.18.29.11.66-.18.85-.29.19-.67.1-.85-.18-.18-.29-.09-.66.19-.85zM126.75 71.19c.28-.21.65-.15.86.12.21.27.16.65-.12.86-.28.2-.66.15-.86-.13-.21-.26-.16-.64.12-.85zM128.46 69.82c.26-.23.64-.2.86.06.22.26.2.64-.06.87-.26.22-.64.19-.87-.07-.22-.25-.19-.63.07-.86zM130.09 68.32c.24-.24.62-.24.86.01s.24.62 0 .87c-.25.25-.63.24-.87 0-.24-.25-.24-.63.01-.88zM131.6 66.71c.23-.26.6-.28.86-.05.26.22.29.61.06.87-.23.26-.61.28-.87.05-.25-.22-.27-.6-.05-.87zM133.01 65.01c.21-.28.59-.32.86-.12.27.21.33.58.12.86-.21.27-.59.32-.86.11-.28-.2-.33-.58-.12-.85zM134.3 63.2c.19-.29.56-.36.85-.17.28.19.37.56.18.85-.19.29-.57.36-.85.18-.29-.19-.37-.57-.18-.86zM135.45 61.33c.17-.3.54-.4.83-.23.3.17.41.54.23.84-.17.29-.54.39-.84.23-.29-.17-.39-.54-.22-.84zM136.47 59.38c.15-.31.51-.43.82-.29.31.15.44.51.29.82-.15.31-.51.43-.82.29-.31-.15-.44-.51-.29-.82zM137.36 57.35c.13-.32.48-.47.79-.34.31.12.47.47.35.79-.13.32-.48.47-.8.35-.31-.13-.47-.49-.34-.8zM138.1 55.27c.1-.33.44-.5.77-.39.32.1.5.44.4.77-.11.33-.45.5-.77.4-.32-.11-.5-.45-.4-.78zM138.7 53.13c.08-.34.41-.54.74-.45.33.08.54.4.45.74-.08.33-.41.53-.74.45-.33-.08-.53-.4-.45-.74zM139.15 50.98c.06-.34.37-.56.7-.5.34.06.56.37.51.71-.06.34-.38.56-.71.5-.34-.06-.56-.37-.5-.71zM139.45 48.78c.03-.35.33-.58.67-.55.34.04.59.32.55.67-.03.34-.33.58-.67.55-.34-.03-.58-.33-.55-.67zM139.59 46.58c.01-.34.29-.6.63-.59.34.01.61.29.6.63-.01.35-.3.61-.64.6-.33-.01-.6-.29-.59-.64zM139.59 44.36c-.01-.34.25-.62.59-.63.34-.01.62.24.64.59.01.35-.26.63-.6.64-.34.01-.62-.25-.63-.6zM139.44 42.17c-.04-.34.21-.64.54-.67.34-.04.64.2.68.54.04.34-.21.64-.55.67-.34.05-.64-.2-.67-.54zM139.13 39.97c-.06-.34.16-.65.5-.71.33-.06.65.15.71.49.06.34-.17.65-.5.71-.33.07-.65-.15-.71-.49zM138.68 37.83c-.08-.33.12-.65.45-.74.33-.08.66.11.74.45.08.33-.12.66-.45.74s-.66-.12-.74-.45zM138.07 35.69c-.11-.33.07-.66.39-.77.33-.11.67.07.77.39.1.33-.07.67-.4.77-.31.11-.65-.06-.76-.39zM137.33 33.61c-.13-.32.02-.67.34-.79.32-.13.67.02.8.34s-.02.67-.34.8c-.32.12-.68-.03-.8-.35zM136.43 31.58c-.15-.31-.02-.67.29-.81.31-.15.67-.03.82.28.15.31.02.68-.29.83-.31.14-.67.02-.82-.3zM135.4 29.64c-.17-.3-.07-.67.23-.83.29-.17.67-.07.84.22.17.3.07.67-.23.84-.3.17-.67.06-.84-.23zM134.25 27.77c-.19-.29-.12-.66.17-.85.28-.19.66-.12.85.17.19.29.11.66-.17.85-.29.19-.66.11-.85-.17zM132.95 25.97c-.21-.27-.16-.65.11-.85.27-.21.65-.17.86.11.21.27.16.65-.11.87-.27.19-.65.14-.86-.13zM131.54 24.26c-.23-.26-.2-.64.05-.86.26-.22.64-.21.87.05.23.26.2.64-.05.87-.26.22-.64.2-.87-.06zM130.02 22.66c-.25-.24-.25-.62-.01-.86s.62-.25.87-.01.25.63.01.87-.63.24-.87 0zM128.39 21.16c-.26-.22-.29-.6-.07-.86.22-.26.6-.29.86-.07.26.22.29.61.07.86-.22.27-.6.3-.86.07zM126.66 19.78c-.28-.21-.33-.58-.13-.85.21-.27.58-.33.86-.13.28.21.33.59.13.86-.21.27-.59.33-.86.12zM124.85 18.53c-.29-.19-.37-.56-.18-.84.18-.29.56-.38.85-.19.29.19.37.57.18.85-.18.29-.56.37-.85.18zM122.94 17.4c-.3-.17-.41-.53-.24-.83.16-.3.53-.41.83-.25.3.17.41.54.25.84-.17.3-.54.4-.84.24zM120.97 16.4c-.31-.14-.44-.5-.3-.81.14-.31.5-.45.81-.3.31.15.44.51.3.82-.14.31-.5.44-.81.29zM118.94 15.55c-.33-.12-.48-.47-.36-.79.12-.32.47-.48.79-.36.32.13.48.48.36.79-.12.33-.46.49-.79.36zM116.85 14.84c-.33-.1-.51-.44-.41-.76.1-.33.43-.51.76-.41.33.1.51.44.41.77-.09.32-.43.5-.76.4zM114.72 14.28c-.34-.08-.53-.4-.46-.73.07-.33.39-.54.73-.47.34.08.54.41.46.74-.07.33-.39.54-.73.46zM112.54 13.86c-.34-.05-.56-.36-.51-.7s.36-.57.7-.51c.34.05.57.37.51.7-.05.34-.36.56-.7.51zM110.35 13.6c-.34-.03-.58-.32-.55-.66.03-.34.32-.59.66-.56.34.03.59.32.56.67-.03.33-.32.57-.67.55z"/>
    </g>
    <path d="M137.77 43.82c-.28-1.63-.31-3.02-.34-4.15-.03-1.15-.05-1.99-.33-2.5l.02.04-2.43-6.01.01.03c-.5-1.78-4.78-6.77-4.99-7.03-.5-.78-3.4-2.96-4.22-3.38l-3.19-2.2c-1.3-.93-3.41-1.77-5.17-2.32l-2.04-.72c-2.53-.87-6.52-.98-7.04-.94-.21.01-1.21.01-1.42 0-.53-.04-4.51.06-6.89.97l-1.49.52c-1.91.53-3.65 1.07-4.96 2 0 0-3.55 2.49-3.71 2.59-.82.43-4.56 3.11-4.99 3.86l.03-.04c-.19.24-4.06 4.83-4.55 6.61l.01-.03-2.51 6.08.02-.04c-.28.51-.22 1.52-.25 2.68-.03 1.12-.14 2.34-.42 3.97-.22 1.3-.05 2.45.12 3.84.17 1.4.23 3.04.48 4.27.21 1.03.5 1.93.57 2.58.35 1.66 1.18 3.82 1.6 4.42l.88 1.25c.5.68 1.1 1.5 1.46 2.08.36.59.49.95.78 1.46.4.71.77 1.35 1.17 1.93.41.58.87 1.1 1.46 1.58.15.13 1.48 1.02 2.12 1.44.75.5 1.01.67 1.16.81l.47.47c1.3 1.31 2.27 2.32 3.11 2.81.33.18 1.15.39 1.43.4.28 0 .51-.05.71-.17.35-.2.59-.55.71-1.09.02-.07.19-.46.37-.88.28.06.64.41.9.65l-.18.61c-.15.52-.05 1.04.29 1.49 1.39 1.81 6.56 2.48 11.07 2.36 4.66.14 10.47-1.25 11.24-3.01.15-.34.08-.68-.2-.97-.08-.08-.14-.18-.21-.28.03-.05.07-.09.16-.14.21-.1.47-.03.59-.04h.01c.19.34.39.71.61 1.12.08.17.24.28.44.31 1.35.23 5.7-3.6 5.74-3.64.15-.14.96-.83 1.71-1.34.64-.42 1.19-.79 1.35-.92 1.19-.95 2.05-2.07 2.86-3.5.58-1.02 1.23-2.17 2.24-3.54l.09-.11c.94-1.27 2.2-3.76 2.4-5.55.06-.66.25-1.56.46-2.59.49-2.44 1.12-5.49.68-8.1zm-41.7 21.94c-.33-.16-.62-.31-1.03-.61-.63-.46-2.17-1.68-2.85-2.08-.46-.28-.5-.54-1.05-1.11-.47-.5-.97-1.01-1.4-1.34-.57-.43-1.56-1.95-1.89-2.5-1.14-1.87-2.97-5.47-3.38-9.05-.05-.46-.06-1.64-.07-2.69-.01-.9-.02-1.67-.05-2.02.05-.73.23-2.68.42-3.2.14-.37.24-1.13.38-1.74.12-.54.26-1.33.36-1.6.01-.03.52-1.5.87-2.13 0-.01 1.63-3.08 1.63-3.08.01-.03.85-1.77 1.47-2.42l.63-.67c.67-.72 1.36-1.47 2.02-1.98 1.05-.81 2.69-1.92 4.15-2.61l1.98-.98c.7-.36 1.08-.55 1.67-.74.04-.01 4-1.27 6.65-1.42 1.16-.05 1.37-.05 2.02.04.65.04 1.06.1 1.79.22l.03.01c1.92.31 4.07 1.13 4.99 1.48-.01 0 .78.32.87.35.04.02 1.37.57 1.37.57.9.48 1.7.96 2.04 1.22.01.01.48.34.48.34.99.69 3.11 2.11 3.46 2.67l.54.73c.32.41.5.93.67 1.34.3.75 1.01 1.61 1.69 2.44.48.58.93 1.13 1.2 1.59 0 0 .88 1.23 1.05 2.37.22 1.42.58 3.6.77 4.24 1.03 3.45.73 5.27.33 7.1-.13.56-.4 1.34-.46 1.87-.07.61-.17 1.34-.56 2.16-.15.32-.45 1.02-.58 1.42-.2.65-.41 1.32-.79 1.82-.14.2-.42.63-.8 1.23-.89 1.42-2.24 3.57-3.42 5-.38.46-1.37 1.27-2.18 1.92-.5.4-.94.76-1.15.96-.32.31-.99.81-1.55 1.22.01-.05.03-.1.03-.15 0-.08-.01-.16-.04-.25-.06-.18-.2-.41-.59-.52-.43-.12-.85.07-1.42.3-.41.16-.89.39-1.52.96-.26.23-.63.6-.5.91.1.23.31.43.58.58-1.38.42-2.72.82-3.21.92-.33.07-1.45.4-2.16.52-.79.14-1.63.27-2.04.29-1.68.04-4.12-.57-4.61-.84l-.02-.01-.02-.01c-1.15-.43-2.7-1-3.69-1.26l.06-.03c.42-.17.67-.41.74-.69.04-.18.04-.45-.24-.78-.3-.35-.77-.71-1.23-.93-.12-.06-1.19-.46-1.64-.48-.35-.01-.53-.03-.68.06l-.02.01c-.19.11-.26.29-.26.5.03.15.08.35.16.56z" fill="#00467F"/>
    <path d="M102.5 70.16l-.03.09c-.1-.02-.18.01-.21.13l-.8 3c-.03.13.02.19.12.22l-.03.09-1.19-.32.03-.1c.13.04.21.01.25-.12l.6-2.26c-.12-.01-.38-.02-.44.13l-.11-.02.23-.85.12.03c-.02.08.06.12.16.15.13.04.25-.04.29-.19.02-.08-.01-.14-.09-.18l.03-.09 1.07.29zM104.17 72.14c-.34-.14-.57-.51-.54-.8.04-.52.65-.92 1.68-.83 1.11.1 1.64.58 1.6 1.08-.03.33-.3.65-.71.74.48.2.71.55.67.98-.05.64-.71 1.04-1.84.93-1.15-.1-1.75-.68-1.7-1.24.05-.43.35-.73.84-.86zm.89 1.51c.49.04.94-.12.97-.5s-.38-.61-.87-.66c-.48-.04-.94.12-.97.5s.39.62.87.66zm.16-1.67c.54.05.81-.12.83-.4.03-.29-.2-.5-.75-.54-.54-.05-.81.12-.83.4-.03.28.2.49.75.54zM110.06 71.53l-.1-.04c0-.2-.35-.39-.81-.37-.68.04-1.03.6-.99 1.24.27-.27.65-.49 1.08-.51.83-.04 1.47.32 1.51 1.2.03.59-.52 1.22-1.55 1.28-1.25.06-1.81-.74-1.85-1.62-.06-1.1.49-2.06 1.81-2.13.6-.03 1.09.2 1.22.19.05 0 .08-.02.11-.04l.07.04-.5.76zm-.12 1.52c-.02-.38-.39-.66-.85-.64-.46.02-.8.34-.78.72.02.38.39.67.85.64.46-.02.8-.34.78-.72zM111.88 71.96c-.37-.01-.72-.26-.8-.55-.14-.5.28-1.09 1.27-1.38 1.07-.31 1.75-.05 1.88.43.09.32-.05.71-.4.95.52.01.86.25.98.67.18.61-.3 1.22-1.38 1.53-1.11.32-1.88-.01-2.03-.55-.1-.41.07-.8.48-1.1zm.92-.53c.52-.15.71-.4.63-.67-.08-.28-.37-.39-.89-.24-.53.15-.71.4-.63.67.08.28.37.39.89.24zm.46 1.62c.47-.13.83-.44.73-.81-.1-.37-.58-.43-1.04-.3s-.83.44-.73.81c.1.37.57.44 1.04.3zM91.07 63.47l-.06.07c-.11-.08-.17-.08-.25.01l-1.94 2.01.74.71c.14.14.2.17.32.09l.09.08-.61.63-.09-.08c.06-.09.02-.16-.12-.29l-2.09-2.02c-.14-.13-.2-.17-.29-.11l-.09-.08.6-.63.09.09c-.08.12-.04.18.1.31l.74.71 1.95-2.01c.08-.08.08-.14-.02-.27l.07-.07.86.85zM86.65 61.17l1.15-.8c.1-.07.11-.13.02-.29l.08-.05.74 1.06-.08.06c-.12-.14-.18-.15-.27-.08l-2.54 1.78c-.1.07-.11.13-.02.28l-.08.06-.74-1.06.08-.06c.12.13.18.15.27.08l.96-.67-1.06-1.51-.96.67c-.1.07-.11.13-.02.29l-.08.05-.74-1.06.08-.06c.12.13.18.14.27.08l2.54-1.78c.1-.07.11-.13.02-.29l.08-.05.74 1.06-.08.06c-.12-.13-.18-.14-.27-.08l-1.15.81 1.06 1.5zM84.81 56.12l-.8-1.79c-.08-.18-.13-.23-.23-.21l-.05-.12.76-.34.05.11c-.09.07-.08.13 0 .32l1.26 2.82-.09.04c-.11-.2-.17-.22-.28-.18l-2.83 1.26c-.11.05-.13.11-.05.35l-.09.04-1.21-2.73c-.08-.18-.13-.23-.23-.21l-.05-.11.75-.33.05.11c-.07.06-.06.13.02.31l.75 1.68.83-.37-.44-1c-.08-.18-.13-.23-.23-.21l-.05-.11.75-.33.05.11c-.07.06-.06.13.02.31l.44 1 .9-.42zM79.26 46.83h.1c.03.16.07.2.19.2l2.06-.07c.47-.02.77-.36.75-.98-.02-.62-.34-.94-.81-.93l-2.06.07c-.12 0-.16.05-.17.21h-.1l-.04-1.21h.1c.03.18.07.22.19.22l2.05-.08c.83-.03 1.4.46 1.44 1.72.04 1.27-.48 1.79-1.32 1.82l-2.05.07c-.12 0-.16.05-.17.25h-.1l-.06-1.29zM82.89 42.88l-.1-.01c0-.16-.03-.2-.15-.22l-3.06-.49c-.12-.02-.17.02-.21.13l-.1-.01.22-1.39.1.01c-.01.12 0 .15.04.16.12.02 2.19-1.14 2.52-1.18v-.02L80 39.52c-.12-.02-.17.02-.21.16l-.09-.02.18-1.14.1.02c0 .15.03.2.15.21l3.07.48c.14.02.16-.02.2-.12l.1.01-.2 1.23-.1-.02c0-.08 0-.17-.07-.18-.12-.02-2.06 1.14-2.73 1.31v.02l2.38.38c.12.02.17-.02.21-.14l.1.01-.2 1.15zM83.91 37.94l-.09-.03c.06-.24.03-.29-.08-.33l-2.95-.96c-.11-.04-.16-.01-.26.22l-.09-.03.44-1.36.09.03c-.06.24-.03.3.08.33l2.95.96c.11.04.17.01.26-.22l.09.03-.44 1.36zM85.18 34.53l-.09-.04c.05-.11.04-.21-.01-.23-.08-.03-2.4-.1-3.33-.19-.15-.01-.28-.01-.34.07l-.09-.04.53-1.08.09.04c-.04.13-.03.19.03.21.12.06 1.83.11 2.68.2l.01-.02c-.63-.67-1.75-1.93-1.85-1.97-.04-.02-.08.01-.17.14l-.09-.04.5-1.04.09.04c-.03.15.03.21.15.34.81.91 2.07 2.33 2.24 2.42.06.02.12-.02.18-.12l.09.04-.62 1.27zM87.06 30.2l1.18-1.57c.12-.15.14-.22.07-.3l.07-.1.67.5-.07.09c-.1-.04-.16 0-.27.16l-1.86 2.47-.08-.06c.12-.2.11-.26.02-.32l-2.48-1.87c-.1-.07-.15-.06-.32.12l-.08-.06 1.8-2.38c.12-.16.14-.23.07-.31l.07-.09.66.49-.07.09c-.08-.03-.14.01-.26.16l-1.11 1.47.72.54.66-.87c.12-.15.14-.22.07-.31l.07-.1.66.49-.07.1c-.09-.04-.14.01-.26.17l-.66.87.8.62zM89.77 27.78l-.06-.07c.09-.11.1-.17.02-.26l-2.08-2.3c-.08-.09-.14-.09-.27 0l-.07-.07 1.58-1.42c.69-.63 1.37-.72 1.79-.25.35.39.38.89-.02 1.41l1.2.34c.35.11.46.17.6.07l.06.07-.94.84-.06-.07c.06-.07.11-.14.06-.18-.02-.03-.05-.05-.22-.09l-1.27-.35-.57.52.83.92c.08.09.14.09.28 0l.06.08-.92.81zm-.64-2.26l.73-.65c.38-.35.43-.63.22-.86-.21-.22-.49-.21-.88.13l-.73.66.66.72zM93.3 23.48l.12-.03c.01.03.01.05.02.07.12.21.82 0 1.23-.25.67-.41.79-.73.62-1-.39-.66-2.44 1.16-3.11.05-.28-.47-.12-1.16.84-1.73.39-.23.71-.34.96-.4.24-.06.4-.07.47-.11.08-.05.11-.1.12-.17l.07-.01-.1 1.06-.12.03c-.01-.02-.03-.07-.05-.11-.08-.14-.53-.16-1.14.2-.42.25-.48.52-.36.72.38.63 2.41-1.22 3.15.01.29.49.07 1.3-1.07 1.99-.36.2-.69.31-.95.38-.28.07-.42.07-.53.14-.04.03-.05.08-.07.16l-.09.01-.01-1.01zM97.58 22.39l-.04-.09c.22-.11.24-.17.2-.28l-1.16-2.88c-.04-.11-.1-.13-.33-.06l-.04-.08 1.33-.54.04.09c-.22.11-.24.17-.2.28l1.16 2.88c.04.11.1.13.33.06l.04.09-1.33.53zM101.08 21.12l-.02-.1c.12-.05.15-.1.12-.21l-.68-2.71-.99.25c-.19.05-.25.09-.24.23l-.12.03-.21-.85.12-.03c.05.09.12.1.31.05l2.81-.7c.19-.05.25-.09.25-.19l.12-.03.21.84-.12.03c-.06-.13-.13-.13-.32-.09l-.99.25.67 2.71c.03.11.08.15.25.12l.02.1-1.19.3zM106.78 20.24l-1.26.09v-.09c.16-.03.2-.08.19-.19l-.08-1.24-1.45-1.8c-.04-.06-.12-.12-.22-.13l-.01-.1 1.33-.09.01.1c-.13.01-.19.05-.18.11 0 .05.61.77.96 1.19.21-.43.76-1.18.75-1.31 0-.07-.05-.09-.21-.09v-.1l1.26-.09.01.09c-.08.03-.15.07-.21.18l-1.18 1.97.08 1.23c.01.12.05.16.22.17l-.01.1zM116.87 18.04c1.23.43 1.67 1.45 1.33 2.44-.34.99-1.31 1.53-2.55 1.1-1.23-.43-1.67-1.45-1.33-2.44.35-.98 1.32-1.52 2.55-1.1zm-1.02 2.99c.72.25 1.28-.04 1.55-.83.27-.78.01-1.36-.71-1.6-.72-.25-1.28.04-1.55.82-.28.79-.01 1.36.71 1.61zM118.4 22.63l.05-.08c.21.09.27.08.33-.02l1.5-2.71c.06-.1.04-.16-.17-.3l.05-.08 2.62 1.45c.15.08.22.09.29.02l.1.06-.4.73-.1-.06c.03-.1-.02-.16-.17-.24l-1.62-.9-.44.79 1.01.56c.17.1.24.11.32.02l.1.06-.41.73-.11-.05c.02-.1-.03-.15-.2-.24l-1.01-.56-.63 1.14c-.06.1-.04.16.17.3l-.05.08-1.23-.7zM130.55 28.47l-1 .1-.03-.08c.02-.01.04-.02.06-.04.19-.16.1-.62-.18-.96-.53-.63-1.13-.76-1.86-.16-.56.47-.62 1.2-.14 1.79.31.37.77.53.95.38.02-.01.08-.08.09-.12l.09.06-.12 1.04-.09-.01c.01-.06-.01-.12-.04-.16-.13-.15-.67-.04-1.38-.89-.83-.99-.67-2.11.09-2.75.99-.83 2.14-.41 2.84.42.25.3.37.57.43.79.06.21.08.36.12.41.03.04.09.07.17.11v.07zM128.36 31.23l.09-.05c.06.09.17.08.23.08l3.2-.36c.14-.01.19-.02.25-.04.04-.02.04-.06-.02-.2l.08-.05.69 1.25-.09.05c-.07-.11-.13-.13-.19-.1-.04.02-.07.07-.2.23l-1.94 2.47c-.08.11-.09.15-.06.24l-.09.05-.56-1.01.09-.05c.07.09.1.12.14.09.03-.02.06-.04.09-.09l.43-.55-.74-1.34-.62.07c-.05 0-.1.02-.12.03-.06.03-.09.1-.03.23l-.08.05-.55-1zm2.48 1.55l1-1.2-.01-.01-1.55.22.56.99zM133.89 34.6c.11-.04.14-.09.09-.3l.09-.04.46 1.32-.09.03c-.1-.22-.15-.26-.26-.21l-2.64.91.61 1.78c.06.19.1.24.25.22l.04.11-.83.29-.04-.11c.09-.06.09-.13.02-.31l-.97-2.81.09-.03c.08.17.14.2.25.16l2.93-1.01zM131.87 39.48l.1-.02c.07.24.12.27.23.25l3.04-.59c.11-.02.15-.07.12-.32l.1-.02.27 1.41-.09.02c-.07-.24-.12-.27-.23-.25l-3.04.59c-.12.02-.15.07-.12.32l-.1.02-.28-1.41zM132.34 41.92l.1-.01c.04.23.08.27.2.26l3.09-.22c.12-.01.16-.05.16-.3l.09-.01.21 2.99c.01.17.04.24.14.26l.01.12-.83.06-.01-.12c.1-.03.12-.1.11-.27l-.13-1.85-.9.06.08 1.16c.02.2.04.26.16.28l.01.12-.84.05-.01-.12c.09-.03.11-.1.1-.3l-.08-1.15-1.3.09c-.12.01-.16.06-.16.31l-.1.01-.1-1.42zM135.99 48.53c-.16 1.29-1.07 1.93-2.11 1.8-1.03-.13-1.77-.96-1.61-2.26.16-1.29 1.07-1.93 2.11-1.8 1.04.13 1.77.96 1.61 2.26zm-3.13-.39c-.09.75.31 1.24 1.13 1.34.82.1 1.33-.28 1.42-1.03.09-.76-.31-1.24-1.13-1.34-.82-.1-1.33.28-1.42 1.03zM131.8 51.23l.09.03c-.03.14 0 .2.11.24l2.93 1.01c.11.04.16.01.24-.14l.09.03-.69 2.02c-.31.89-.86 1.29-1.45 1.09-.5-.17-.77-.6-.67-1.25l-1.22.29c-.36.08-.48.08-.56.23l-.09-.03.41-1.19.09.03c-.03.09-.03.17.03.19.03.01.07.01.24-.03l1.29-.3.25-.73-1.17-.4c-.11-.04-.17-.02-.24.14l-.09-.03.41-1.2zm1.65 1.66l-.32.93c-.17.5-.07.76.22.86.29.1.53-.05.7-.54l.32-.93-.92-.32z" fill="#fff"/>
    <path d="M130.1 55.88l.09.05c-.06.15-.04.2.06.26l2.68 1.55c.1.05.16.04.24-.05l.09.05-.71 1.22-.08-.05c.05-.11.06-.14.02-.16-.1-.06-2.46.29-2.77.2l-.01.01 1.89 1.09c.1.06.16.04.25-.07l.08.05-.58 1-.08-.05c.06-.13.04-.2-.06-.25l-2.69-1.55c-.12-.07-.16-.04-.23.04l-.08-.05.62-1.07.08.04c-.03.08-.05.16 0 .19.1.06 2.33-.33 3.02-.25l.01-.02-2.09-1.2c-.1-.06-.16-.04-.24.06l-.09-.05.58-.99zM127.39 60.14l.08.06c-.14.21-.13.27-.04.34l2.41 1.95c.09.08.15.07.32-.11l.08.06-.9 1.12-.08-.06c.14-.21.13-.26.04-.34l-2.41-1.95c-.09-.07-.15-.07-.32.11l-.08-.06.9-1.12z" fill="#FFCB05"/>
    <path d="M125.96 61.93l.07.07c-.08.08-.04.19-.02.24l1.12 3.03c.05.13.07.19.1.22s.07.03.2-.06l.07.07-1.04.97-.07-.07c.09-.09.1-.16.05-.21-.03-.03-.08-.05-.27-.14l-2.87-1.29c-.12-.06-.17-.05-.25 0l-.07-.07.85-.79.07.07c-.07.09-.09.13-.06.16.02.02.05.04.11.06l.63.28 1.12-1.04-.22-.58c-.02-.05-.04-.09-.06-.12-.04-.05-.12-.06-.22.03l-.07-.08.83-.75zm-.9 2.78l1.41.68.01-.01-.59-1.44-.83.77zM81.77 50.16c-.31 0-.57.26-.57.58 0 .32.26.57.57.57.32 0 .57-.26.57-.57.01-.32-.25-.58-.57-.58zM92.33 66.59c-.31 0-.57.26-.57.57 0 .32.26.58.57.58.32 0 .57-.26.57-.58 0-.31-.26-.57-.57-.57zM99.23 70.5c-.32 0-.57.26-.57.58 0 .31.26.57.57.57.31 0 .57-.26.57-.57 0-.32-.26-.58-.57-.58z" fill="#fff"/>
    <circle cx="115.95" cy="70.84" r=".57" fill="#fff"/>
    <circle cx="121.88" cy="67.43" r=".57" fill="#fff"/>
    <circle cx="124.85" cy="24.59" r=".57" fill="#fff" enable-background="new"/>
    <circle cx="111.42" cy="18.68" r=".57" fill="#fff"/>
    <g fill="#fff">
        <path d="M130.08 55.85l.08.05c-.06.15-.04.2.06.26l2.69 1.55c.1.06.16.04.24-.05l.09.04-.71 1.22-.08-.04c.05-.11.06-.15.02-.17-.1-.06-2.46.29-2.77.2l-.01.01 1.89 1.09c.1.06.16.04.25-.08l.08.05-.58 1-.08-.04c.06-.13.04-.19-.06-.25l-2.69-1.55c-.12-.07-.16-.04-.23.04l-.08-.05.62-1.07.08.05c-.03.08-.06.15.01.19.1.06 2.33-.33 3.02-.25l.01-.02-2.08-1.2c-.1-.06-.16-.05-.25.06l-.09-.05.57-.99zM127.37 60.11l.08.06c-.14.21-.13.27-.04.34l2.41 1.95c.09.08.15.07.33-.11l.07.06-.9 1.12-.08-.06c.14-.2.13-.26.04-.34l-2.41-1.95c-.09-.07-.15-.07-.32.11l-.08-.06.9-1.12z"/>
    </g>
    <g fill="#00467F">
        <path d="M156.65 75.14c-5.67 0-6.1-3.02-6.1-6.09V58.64h3.13v12.01c0 1.6.49 3.31 2.91 3.31 2.62-.06 2.77-1.83 2.77-3.31V59.71c0-1.66-.35-2.6-.78-4.2-.64-2.43-1.42-3.73-2.62-5.97l-3.12-5.97c-1.06-1.95-1.42-3.19-1.84-5.32-.43-2.07-.43-3.37-.43-5.5v-2.42c0-3.02.43-6.03 5.97-6.03 5.67 0 6.03 3.07 6.03 6.09v9.28h-3.2V28.72c0-1.54-.35-3.25-2.77-3.25-2.63.06-2.91 1.77-2.91 3.25v3.25c0 2.13.07 3.49.49 5.68.43 1.95.85 3.14 1.85 5.03l2.98 5.68c.63 1.36 1.77 3.25 2.41 5.38.71 2.25 1.14 3.25 1.14 5.86v9.52c-.02 3.01-.38 5.96-5.91 6.02zM181.06 74.79h-3.12V49h-5.61v25.79h-3.2V30.38c0-3.08.43-6.09 6.11-6.09 5.54 0 5.82 3.01 5.82 6.03v44.47zm-3.12-27.8V28.72c0-1.48-.15-3.2-2.77-3.25-2.41 0-2.84 1.72-2.84 3.25v18.27h5.61zM196.75 54.92v-30.4h3.12v50.27h-3.12v-9.58l-5.68-26.97v36.55h-3.13V24.52h2.84l5.97 30.4zM217.61 26.41h-4.68v48.37h-3.2V26.41h-4.54v-1.83h12.42v1.83zM234.92 74.79h-3.12V49h-5.61v25.79H223V30.38c0-3.08.43-6.09 6.1-6.09 5.54 0 5.82 3.01 5.82 6.03v44.47zm-3.12-27.8V28.72c0-1.48-.14-3.2-2.77-3.25-2.41 0-2.84 1.72-2.84 3.25v18.27h5.61zM263.38 58.64v11.42c0 2.78-1.42 5.08-5.89 5.08s-6.11-2.19-6.11-4.91V30.38c0-3.08.43-6.09 6.11-6.09 5.54 0 5.89 3.01 5.89 6.03v9.46h-3.2V28.72c0-1.48-.14-3.2-2.7-3.25-2.48 0-2.91 1.72-2.91 3.25v42.64c0 1.3 1.14 2.48 2.91 2.48 1.85-.06 2.7-1.12 2.7-2.43V58.64h3.2zM279.2 74.79V53.5c0-1.48-.21-3.02-1.21-3.66-.99-.71-1.71-.89-2.91-.89h-1.42v25.84h-3.2V24.64H276.14c.85 0 3.2.12 4.68 1.24 1.56 1.13 1.56 2.66 1.56 4.44v13.42c0 .94-.14 1.6-.78 2.42-.71.95-2.48 1.83-2.63 1.9.15.06 1.56.82 2.21 1.59 1.13 1.18 1.21 2.36 1.21 3.73v21.4h-3.19zm-1.27-48.32c-.57-.23-1.42-.47-2.34-.47h-1.92v21.53h1.49c1.35 0 2.7-.59 3.26-1.3.5-.53.78-2.13.78-3.49V29.31c0-1.42-.21-2.37-1.27-2.84zM292.05 71.42c0 1.3.92 2.43 2.76 2.43 1.78 0 2.7-1.18 2.7-2.48V24.58h3.19v45.65c0 2.72-1.42 4.91-5.89 4.91s-5.96-2.31-5.96-5.08V24.58h3.2v46.84zM314.62 26.41h-6.89v-1.89h10.79l-7.45 48.2h7.88v2.07h-11.78l7.45-48.38zM157.05 16.79c0 .94-.05 1.82-.69 2.58-.64.77-1.59 1.06-2.57 1.06-.93 0-1.91-.19-2.55-.92-.7-.78-.75-1.74-.75-2.72v-6.03h1.19v6.03c0 .57.01 1.35.36 1.85.39.57 1.19.73 1.85.73.61 0 1.3-.19 1.71-.68.46-.54.46-1.25.46-1.9v-6.03h1v6.03zM166.3 20.3h-1.17l-4.84-8.31v8.31h-1v-9.53h1.5l4.51 7.76v-7.76h1v9.53zM168.58 20.3v-9.53h1.2v9.53h-1.2zM175.44 20.3h-1.14l-3.22-9.53h1.25l2.65 7.86 2.63-7.86h1.04l-3.21 9.53zM186.1 20.3h-6.16v-9.53h6.03v1.03h-4.83v3.02h3.83v.96h-3.83v3.49h4.97v1.03zM193.26 20.3l-1.76-4.13h-2.63v4.13h-1.2v-9.53h3.57c.78 0 1.53.1 2.17.58.63.48 1.01 1.28 1.01 2.08 0 1.13-.67 2.14-1.78 2.45l1.88 4.41h-1.26zm-2.17-5.1c.63 0 1.17-.04 1.63-.53.34-.33.49-.79.49-1.25 0-.56-.21-1.01-.67-1.32-.42-.29-.82-.3-1.32-.3h-2.37v3.4h2.24zM196.82 17.49c.38 1.32 1.48 1.93 2.81 1.93.57 0 1.26-.13 1.71-.47.36-.28.59-.76.59-1.22 0-.96-.79-1.35-1.62-1.56l-1.58-.39c-.64-.15-1.22-.3-1.72-.76-.5-.45-.78-1.1-.78-1.76 0-1.83 1.58-2.62 3.24-2.62 1.59 0 2.87.79 3.38 2.33l-1.08.29c-.21-1.04-1.32-1.68-2.33-1.68-.9 0-2.04.47-2.04 1.51 0 1.07.83 1.3 1.72 1.51l1.43.35c.62.14 1.25.32 1.73.74.6.49.89 1.14.89 1.89 0 .86-.38 1.64-1.07 2.17-.7.53-1.62.69-2.49.69-1.94 0-3.22-.86-3.86-2.71l1.07-.24zM204.96 20.3v-9.53h1.2v9.53h-1.2zM211.44 20.3h-1.2v-8.49h-2.71v-1.04h6.61v1.04h-2.71v8.49zM218.8 16.28v4.01h-1.19v-4.01l-3.18-5.51h1.39l2.53 4.39 2.55-4.39h1.08l-3.18 5.51zM226.65 15.6c0-2.38 1.16-4.97 3.91-4.97 2.68 0 3.92 2.44 3.92 4.79 0 2.33-1.2 5.01-3.9 5.01-2.74 0-3.93-2.44-3.93-4.83zm6.58-.11c0-.85-.14-1.83-.57-2.6-.43-.75-1.17-1.28-2.06-1.28-2.13 0-2.71 2.29-2.71 4 0 1.64.67 3.85 2.68 3.85 2.04 0 2.66-2.33 2.66-3.97zM236.28 20.3v-9.53h5.83v1.03h-4.64v3.02h3.85v.96h-3.85v4.52h-1.19zM253.96 17.33c-.45 1.8-1.51 3.11-3.53 3.11-2.75 0-3.88-2.65-3.88-5 0-2.46 1.21-4.81 3.97-4.81 1.92 0 3.04 1.29 3.43 3.04l-1.12.21c-.33-1.21-.93-2.25-2.35-2.25-2.07 0-2.62 2.25-2.62 3.9 0 .75.12 1.67.44 2.37.39.85 1.13 1.53 2.13 1.53 1.46 0 2.14-1.1 2.44-2.35l1.09.25zM262.25 20.3h-1.22l-.96-2.78h-3.53l-.85 2.78h-1l3.08-9.53h1.38l3.1 9.53zm-3.9-8.25l-1.47 4.57h2.93l-1.46-4.57zM269.16 20.3h-5.63v-9.53h1.2v8.47h4.43v1.06zM270.51 20.3v-9.53h1.2v9.53h-1.2zM274.06 20.3v-9.53h5.83v1.03h-4.64v3.02h3.85v.96h-3.85v4.52h-1.19zM280.25 15.6c0-2.38 1.17-4.97 3.91-4.97 2.68 0 3.92 2.44 3.92 4.79 0 2.33-1.2 5.01-3.9 5.01-2.74 0-3.93-2.44-3.93-4.83zm6.58-.11c0-.85-.14-1.83-.57-2.6-.43-.75-1.17-1.28-2.05-1.28-2.13 0-2.71 2.29-2.71 4 0 1.64.67 3.85 2.68 3.85 2.04 0 2.65-2.33 2.65-3.97zM295.47 20.3l-1.76-4.13h-2.64v4.13h-1.2v-9.53h3.57c.78 0 1.53.1 2.17.58.64.48 1.01 1.28 1.01 2.08 0 1.13-.67 2.14-1.78 2.45l1.87 4.41h-1.24zm-2.17-5.1c.64 0 1.16-.04 1.64-.53.33-.33.49-.79.49-1.25 0-.56-.21-1.01-.67-1.32-.42-.29-.82-.3-1.32-.3h-2.38v3.4h2.24zM305.45 20.3h-1.17l-4.85-8.31v8.31h-1v-9.53h1.5l4.51 7.76v-7.76h1v9.53zM307.73 20.3v-9.53h1.2v9.53h-1.2zM317.8 20.3h-1.22l-.96-2.78h-3.53l-.84 2.78h-1l3.08-9.53h1.38l3.09 9.53zm-3.9-8.25l-1.47 4.57h2.93l-1.46-4.57z"/>
    </g>
    <path d="M100.88 1.47c-1.61 2.45-3.91 4.66-6.92 6.61-3.01 1.95-6.57 3.51-10.69 4.68-4.13 1.17-8.7 1.76-13.74 1.76-1.96 0-4.19-.08-6.71-.25-2.52-.17-4.9-.47-7.13-.92-3.64 2.79-6.19 5.43-7.65 7.94-1.47 2.51-2.2 4.21-2.2 5.1 0 1.56.84 3.01 2.52 4.35 1.68 1.34 4.68 3.01 9.02 5.02 2.38 1.12 4.61 2.54 6.71 4.26 2.1 1.73 3.15 4.04 3.15 6.94 0 2.79-.94 5.77-2.83 8.95-1.89 3.18-4.4 6.33-7.55 9.45s-6.68 6.1-10.59 8.95c-3.92 2.84-7.94 5.38-12.06 7.61-4.12 2.23-8.18 3.98-12.16 5.27-3.98 1.28-7.52 1.92-10.59 1.92-3.22 0-5.69-.45-7.44-1.34-1.75-.89-2.62-2.62-2.62-5.18 0-1.23.35-2.01 1.05-2.34.28 2.01 1.4 3.34 3.36 4.01 1.96.67 4.54 1 7.76 1 4.19 0 8.81-.89 13.84-2.68 5.03-1.79 9.75-4.21 14.16-7.28 4.4-3.06 8.11-6.66 11.11-10.79 3-4.12 4.51-8.53 4.51-13.21 0-1.56-.39-3.15-1.15-4.77-.77-1.61-2.34-3.2-4.72-4.77-1.82-1.22-3.43-2.2-4.82-2.93-1.4-.72-2.62-1.39-3.67-2.01-1.05-.61-1.85-1.28-2.41-2.01-.56-.72-.84-1.59-.84-2.59 1.12-3.9 3.42-7.94 6.92-12.12 3.49-4.18 7.48-8.5 11.95-12.96.7-.67 1.33-1 1.89-1 .28 0 1.43.23 3.46.67 2.02.45 5.27.67 9.75.67 9.78 0 16.99-1.39 21.6-4.18m5.84-12.87" fill="#00467F"/>
    <g fill="#00467F">
        <path d="M246.07 94.5h-1.78V83.03l-2.01 1.35v-1.7c.45-.19 1.72-1.16 2.26-1.61h1.53V94.5zM256.59 87.84c0 3.5.02 6.94-3.62 6.94-2.01 0-3.35-1.37-3.31-3.5h1.78c0 .99.39 2.01 1.53 2.01 1.72 0 1.84-1.9 1.84-5.34h-.04c-.43.93-1.28 1.26-2.3 1.26-1.06 0-3.07-.56-3.07-4.23 0-3.02 1.8-4.12 3.58-4.12 3.67 0 3.61 3.37 3.61 6.98zm-5.42-2.9c0 1.33.25 2.79 1.8 2.79s1.8-1.45 1.8-2.79c0-1.22-.27-2.78-1.8-2.78s-1.8 1.57-1.8 2.78zM258.77 87.84c0-3.61-.06-6.98 3.62-6.98 2.01 0 3.4 1.24 3.32 3.27h-1.78c0-.93-.5-1.97-1.57-1.97-1.45 0-1.82 1.28-1.82 4.85h.04c.45-.77 1.26-1.26 2.19-1.26 1.72 0 3.19 1.01 3.19 4.5 0 2.4-.97 4.52-3.58 4.52-3.63.01-3.61-3.43-3.61-6.93zm3.71 5.46c1.45 0 1.7-1.59 1.7-3.35 0-1.22-.27-2.71-1.82-2.71-1.56 0-1.78 1.7-1.78 2.9 0 1.34.18 3.16 1.9 3.16zM274.69 81.08v1.55h-4.49v3.91l.04.04c.29-.58 1.22-1 2.13-1 1.92 0 2.8 1.43 2.8 4.52 0 2.15-.27 4.7-3.63 4.7-2.78 0-3.31-1.53-3.31-3.32h1.78c0 1.04.41 2.03 1.59 2.03 1.68 0 1.8-1.64 1.8-2.96 0-1.95-.06-3.48-1.72-3.48-.97 0-1.49.68-1.65 1.57h-1.6V81.1h6.26zM277.01 88.71h9.67v1.08h-9.67v-1.08zM287.85 94.5v-1.46c3.71-5.19 4.8-6.14 4.8-8.33 0-1-.49-1.68-1.57-1.68-1.26 0-1.5 1.04-1.48 2.06h-1.72c-.15-2.1.91-3.47 3.07-3.47 2.28 0 3.38 1.04 3.38 3.32 0 2.83-1.42 3.78-4.69 8.09h5.02v1.46h-6.81zM303.28 88.21c0 3.3.02 6.55-3.41 6.55s-3.41-3.25-3.41-6.55c0-3.42-.05-6.59 3.41-6.59s3.41 3.18 3.41 6.59zm-5.15.33c0 2.14-.13 4.82 1.73 4.82s1.74-2.68 1.74-4.82c0-3.41-.02-5.51-1.74-5.51s-1.73 2.1-1.73 5.51zM309.4 94.5h-1.68V83.67l-1.9 1.28v-1.61c.42-.18 1.63-1.1 2.14-1.52h1.44V94.5zM318.76 81.82v1.46h-4.23v3.69l.04.04c.27-.55 1.15-.95 2.01-.95 1.81 0 2.65 1.35 2.65 4.27 0 2.03-.26 4.44-3.43 4.44-2.63 0-3.12-1.44-3.12-3.14h1.68c0 .98.38 1.92 1.5 1.92 1.59 0 1.7-1.55 1.7-2.79 0-1.84-.06-3.29-1.63-3.29-.91 0-1.41.64-1.55 1.48h-1.52v-7.12h5.9z"/>
    </g>
    <path d="M107.22 24.84c-.4-.32-1.26-1.81-1.26-1.81.05-.2 1.26-2.86 1.26-2.86.1.46.09 1.41.05 2.35-.04.95-.09 1.89-.05 2.32zm-4.57-1.03c.39.1 1.6.47 1.6.47.87.33 1.66.65 2.59.9-.13.28-.42.8-.42.8s-1.99 3.1-2.15 3.32c0 0 .6-3.17.57-3.21-.13-.2-1.34-1.25-2.19-2.28zm8.29.94c-.02.13-.75.99-.75.99-.14.01-2.37-.5-2.62-.62 0 0 .91-1.7 1.25-1.87l3.25.33c-.26.09-1.2.34-2.04.63-.97.38-1.89.72-1.89.72s2.49-.14 2.8-.18zm-.76 4.57c-.25-.07-2.45-1.28-2.45-1.28-.08-.06-.41-2.39-.38-2.82l2.83 4.1zm-4.01-8.04c-.27.66-.48 1.26-.56 1.54 0 0-.7.14-1.67.18-.52.02-2.1.3-2.1.3 1.1 1.68 2.06 2.7 2.51 3.16 0 0-.55 3.21-.54 3.58.05-.02 1.74-.88 2.29-1.19.56-.31 1.2-.52 1.29-.51.03.01 1.59.66 1.97.89.87.52 1.45.84 1.66.9v-.04s-.81-3.41-.8-3.58c0-.02.42-.43.7-.77.46-.57.94-.96 1.24-1.31.31-.35.87-1 .88-1.03-.03-.01-3.68-.45-3.91-.54-.01 0-.35-.8-.65-1.52l-.24-.59c-.07-.18-.13-.34-.17-.44-.1-.31-.49-1.01-.64-1.43-.26.19-.68 1.01-1.05 1.87" fill="#00467F"/>
    <path d="M107.17 24.76c-.4-.32-1.26-1.81-1.26-1.81.05-.2 1.26-2.85 1.26-2.85.1.46.09 1.41.05 2.35-.03.94-.08 1.87-.05 2.31z" fill="#fff"/>
    <path fill="none" d="M338.05 10.59h134.37v72.46H338.05z"/>
    <path d="M341.01 11.32h-2.79v-.72h6.33v.72h-2.75l-.01 7.94h-.77l-.01-7.94zM345.91 19.26V10.6h.78v3.8h4.73v-3.8h.78v8.66h-.78v-4.14h-4.73v4.14h-.78zM354.61 19.26V10.6h5.14v.72h-4.37v3.11h4.2v.72h-4.2v3.39h4.55v.72h-5.32zM368.72 19.44c-2.48 0-3.86-1.81-3.86-4.51s1.38-4.51 3.86-4.51 3.86 1.81 3.86 4.51-1.38 4.51-3.86 4.51zm0-.72c2.16 0 3.02-1.9 3.02-3.79s-.86-3.79-3.02-3.79-3.02 1.9-3.02 3.79.86 3.79 3.02 3.79zM375.41 19.26h-.78V10.6h2.83c.76 0 1.38.05 2.04.46.6.36.89.98.89 1.81 0 .94-.66 1.61-1.67 1.86v.02c1.1.18 1.34.92 1.45 1.93.16 1.4.11 2.05.46 2.58h-.9c-.2-.58-.25-1.19-.3-1.8-.18-1.98-.3-2.33-1.87-2.33h-2.15v4.13zm1.66-4.85c1.1 0 2.47-.07 2.47-1.55 0-1.67-1.56-1.55-2.39-1.55h-1.75v3.09h1.67zM382.68 19.26v-8.7h.78v8.7h-.78zM392.3 14.84v4.05c-1.04.41-1.99.54-3.11.54-2.36 0-3.69-1.85-3.69-4.51 0-2.23 1.19-4.51 3.69-4.51 1.44 0 2.91.78 3.05 2.31h-.89c-.16-1.1-1.13-1.6-2.16-1.6-2.08 0-2.85 1.99-2.85 3.79 0 2.21.92 3.79 3.26 3.79.65 0 1.31-.18 1.92-.36v-2.79h-2.17v-.72h2.95zM394.68 19.26v-8.7h.78v8.7h-.78zM397.83 10.6h.89l4.77 7.62h.02V10.6h.78v8.66h-.98l-4.68-7.48h-.02v7.48h-.78V10.6zM405.5 19.26l3.43-8.66h.91l3.45 8.66h-.85l-.92-2.34h-4.31l-.91 2.34h-.8zm5.75-3.06l-1.87-4.88-1.91 4.88h3.78zM414.6 19.26V10.6h.78v7.94h4.35v.72h-5.13zM338.16 37.26l3.43-8.66h.91l3.45 8.66h-.85l-.92-2.34h-4.31l-.91 2.34h-.8zm5.74-3.06l-1.87-4.88-1.91 4.88h3.78zM347.52 28.6v5.6c.06 1.57.96 2.52 2.39 2.52 1.43 0 2.33-.95 2.39-2.52v-5.6h.78v5.61c-.02 1.86-1.07 3.23-3.17 3.23-2.1 0-3.14-1.37-3.17-3.23V28.6h.78zM356.66 29.32h-2.79v-.72h6.33v.72h-2.75l-.01 7.94h-.77l-.01-7.94zM361.56 37.26V28.6h.78v3.8h4.73v-3.8h.78v8.66h-.78v-4.14h-4.73v4.14h-.78zM373.46 37.44c-2.48 0-3.86-1.81-3.86-4.51s1.38-4.51 3.86-4.51 3.86 1.81 3.86 4.51-1.38 4.51-3.86 4.51zm0-.72c2.16 0 3.02-1.9 3.02-3.79s-.86-3.79-3.02-3.79-3.02 1.9-3.02 3.79.86 3.79 3.02 3.79zM380.15 37.26h-.78V28.6h2.83c.76 0 1.38.05 2.04.46.6.36.89.98.89 1.81 0 .94-.66 1.61-1.67 1.86v.02c1.1.18 1.34.92 1.45 1.93.16 1.4.11 2.05.46 2.58h-.9c-.2-.58-.25-1.19-.3-1.8-.18-1.98-.3-2.33-1.87-2.33h-2.15v4.13zm1.66-4.85c1.1 0 2.47-.07 2.47-1.55 0-1.67-1.56-1.55-2.39-1.55h-1.75v3.09h1.67zM387.42 37.26v-8.7h.78v8.7h-.78zM392.19 29.32h-2.79v-.72h6.33v.72h-2.75l-.01 7.94h-.77l-.01-7.94zM399.19 33.51L396 28.6h1l2.65 4.19 2.65-4.19h.84l-3.17 4.89v3.77h-.78v-3.75zM411.24 37.44c-2.48 0-3.86-1.81-3.86-4.51s1.38-4.51 3.86-4.51 3.86 1.81 3.86 4.51-1.38 4.51-3.86 4.51zm0-.72c2.16 0 3.02-1.9 3.02-3.79s-.86-3.79-3.02-3.79-3.02 1.9-3.02 3.79.86 3.79 3.02 3.79zM417.01 28.6h.89l4.77 7.62h.02V28.6h.78v8.66h-.98l-4.68-7.48h-.02v7.48h-.78V28.6zM345.14 55.26c-.37 0-1.07-.12-1.54.01-.3.1-.64.17-.89.17-2.48 0-3.86-1.81-3.86-4.51s1.38-4.51 3.86-4.51 3.86 1.81 3.86 4.51c0 1.4-.49 2.84-1.58 3.67l.02.02c.6-.1 1.25-.06 1.88-.08v.72h-1.75zm-2.42-.54c2.16 0 3.02-1.9 3.02-3.79s-.86-3.79-3.02-3.79-3.02 1.9-3.02 3.79.86 3.79 3.02 3.79zM349.33 46.6v5.6c.06 1.57.96 2.52 2.39 2.52 1.43 0 2.33-.95 2.39-2.52v-5.6h.78v5.61c-.02 1.86-1.07 3.23-3.17 3.23-2.1 0-3.14-1.37-3.17-3.23V46.6h.78zM357.27 55.26V46.6h5.14v.72h-4.37v3.11h4.2v.72h-4.2v3.39h4.55v.72h-5.32zM366.66 55.44c-1.38 0-2.54-1.01-2.58-2.43h.84c.02 1.33 1.01 1.72 2.17 1.72.97 0 2.09-.56 2.09-1.67 0-.86-.62-1.27-1.36-1.51-1.4-.47-3.54-.91-3.54-2.78 0-1.51 1.39-2.34 2.76-2.34 1.14 0 2.63.4 2.82 2.06h-.84c-.02-1.07-1-1.34-1.88-1.34-.9 0-2.01.46-2.01 1.51 0 2.46 4.89 1.34 4.89 4.33 0 1.87-1.62 2.45-3.36 2.45zM373.44 47.32h-2.79v-.72h6.33v.72h-2.75l-.01 7.94h-.77l-.01-7.94zM378.43 55.26v-8.7h.78v8.7h-.78zM385.15 55.44c-2.48 0-3.86-1.81-3.86-4.51s1.38-4.51 3.86-4.51 3.86 1.81 3.86 4.51-1.38 4.51-3.86 4.51zm0-.72c2.16 0 3.02-1.9 3.02-3.79s-.86-3.79-3.02-3.79-3.02 1.9-3.02 3.79.86 3.79 3.02 3.79zM390.92 46.6h.89l4.77 7.62h.02V46.6h.78v8.66h-.98l-4.68-7.48h-.02v7.48h-.78V46.6zM399.77 55.26v-8.7h.78v8.7h-.78zM402.92 46.6h.89l4.77 7.62h.02V46.6h.78v8.66h-.98l-4.68-7.48h-.02v7.48h-.78V46.6zM418.05 50.84v4.05c-1.04.41-1.99.54-3.11.54-2.36 0-3.69-1.85-3.69-4.51 0-2.23 1.19-4.51 3.69-4.51 1.44 0 2.91.78 3.05 2.31h-.89c-.16-1.1-1.13-1.6-2.16-1.6-2.08 0-2.85 1.99-2.85 3.79 0 2.21.92 3.79 3.26 3.79.65 0 1.31-.18 1.92-.36v-2.79h-2.17v-.72h2.95zM338.16 73.26l3.43-8.66h.91l3.45 8.66h-.85l-.92-2.34h-4.31l-.91 2.34h-.8zm5.74-3.06l-1.87-4.88-1.91 4.88h3.78zM347.52 64.6v5.6c.06 1.57.96 2.52 2.39 2.52 1.43 0 2.33-.95 2.39-2.52v-5.6h.78v5.61c-.02 1.86-1.07 3.23-3.17 3.23-2.1 0-3.14-1.37-3.17-3.23V64.6h.78zM356.66 65.32h-2.79v-.72h6.33v.72h-2.75l-.01 7.94h-.77l-.01-7.94zM361.56 73.26V64.6h.78v3.8h4.73v-3.8h.78v8.66h-.78v-4.14h-4.73v4.14h-.78zM373.46 73.44c-2.48 0-3.86-1.81-3.86-4.51 0-2.7 1.38-4.51 3.86-4.51s3.86 1.81 3.86 4.51c0 2.69-1.38 4.51-3.86 4.51zm0-.72c2.16 0 3.02-1.89 3.02-3.79 0-1.9-.86-3.79-3.02-3.79s-3.02 1.9-3.02 3.79c0 1.89.86 3.79 3.02 3.79zM380.15 73.26h-.78V64.6h2.83c.76 0 1.38.05 2.04.46.6.36.89.98.89 1.81 0 .94-.66 1.61-1.67 1.86v.02c1.1.18 1.34.92 1.45 1.93.16 1.4.11 2.05.46 2.58h-.9c-.2-.58-.25-1.19-.3-1.8-.18-1.98-.3-2.33-1.87-2.33h-2.15v4.13zm1.66-4.85c1.1 0 2.47-.07 2.47-1.55 0-1.67-1.56-1.55-2.39-1.55h-1.75v3.09h1.67zM387.42 73.26v-8.7h.78v8.7h-.78zM392.19 65.32h-2.79v-.72h6.33v.72h-2.75l-.01 7.94h-.77l-.01-7.94zM399.19 69.51L396 64.6h1l2.65 4.19 2.65-4.19h.84l-3.17 4.89v3.77h-.78v-3.75z" fill="#00467F"/>
    <path fill="none" stroke="#00467F" stroke-width=".787" stroke-miterlimit="10" d="M329.04 8.68v64.46"/>
</svg>
