<svg xmlns="http://www.w3.org/2000/svg" viewBox="0 188.02 952.5 184.22"><style type="text/css"><![CDATA[
	.st0{enable-background:new    ;}
	.st1{fill:none;stroke:#003E70;stroke-width:0.832;stroke-miterlimit:10;}
	.st2{fill:none;}
	.st3{fill:#003E70;}
]]></style><path class="st3" d="M221.68 369.03c-15.49 0-16.68-8.34-16.68-16.69v-28.6h8.58v33.13c0 4.29 1.43 9.06 7.87 9.06 7.15-.24 7.63-5.01 7.63-9.06v-30.03c0-4.53-.95-7.15-2.15-11.44-1.67-6.67-3.81-10.25-7.15-16.44l-8.58-16.45c-2.86-5.24-3.81-8.82-5-14.54-1.19-5.48-1.19-9.06-1.19-14.78v-6.67c0-8.34 1.19-16.45 16.21-16.45 15.49 0 16.45 8.34 16.45 16.69v25.5h-8.82v-30.03c0-4.29-.95-8.82-7.63-8.82-7.15.24-7.87 4.77-7.87 8.82v8.809999999999999c0 5.72.24 9.54 1.43 15.49 1.19 5.24 2.38 8.58 5 13.82l8.1 15.49c1.67 3.81 4.77 8.82 6.67 14.78 1.91 6.2 3.1 8.82 3.1 15.97v25.98c0 8.35-.96 16.46-15.97 16.46zM288.42 368.07h-8.58v-70.55h-15.25v70.56h-8.82v-121.57c0-8.34 1.19-16.68 16.68-16.68 15.26 0 15.97 8.34 15.97 16.45v121.79zm-8.58-76.03v-50.06c0-4.05-.48-8.82-7.63-8.82-6.67 0-7.87 4.77-7.87 8.82v50.06h15.5zM331.32 313.73v-83.19h8.58v137.53h-8.58v-26.22l-15.49-73.89v100.11h-8.58v-137.53h7.87l16.2 83.19zM388.53 235.78h-12.87v132.29h-8.82v-132.29h-12.4v-5.01h34.08l.01 5.01zM435.96 368.07h-8.58v-70.55h-15.25v70.56h-8.82v-121.57c0-8.34 1.19-16.68 16.69-16.68 15.26 0 15.97 8.34 15.97 16.45l-.01 121.79zm-8.58-76.03v-50.06c0-4.05-.48-8.82-7.63-8.82-6.67 0-7.87 4.77-7.87 8.82v50.06h15.5zM513.67 323.98v31.23c0 7.63-3.81 13.83-16.21 13.83-12.16 0-16.69-5.96-16.69-13.35v-108.94c0-8.34 1.19-16.69 16.69-16.69 15.25 0 16.21 8.34 16.21 16.45v25.98h-8.82v-30.27c0-4.05-.48-8.82-7.39-8.82s-7.87 4.77-7.87 8.82v116.8c0 3.58 3.1 6.91 7.87 6.91 5.01-.24 7.39-3.1 7.39-6.67v-35.28h8.82zM557.05 368.07v-58.16c0-4.05-.48-8.34-3.34-10.01-2.62-1.91-4.77-2.38-7.87-2.38h-3.81v70.79h-8.82v-137.3h15.489999999999998c2.38 0 8.82.24 12.87 3.34 4.29 3.1 4.29 7.39 4.29 12.16v36.71c0 2.62-.48 4.29-2.15 6.68-1.91 2.62-6.91 5.01-7.15 5.24.48.24 4.29 2.38 5.96 4.29 3.1 3.33 3.34 6.43 3.34 10.25v58.63h-8.82l.01-.24zm-3.58-132.05c-1.67-.71-3.82-1.19-6.44-1.19h-5.24v58.88h4.05c3.58 0 7.39-1.67 8.82-3.57 1.43-1.43 2.14-5.72 2.14-9.54v-36.95c.25-3.81-.47-6.44-3.33-7.63zM592.09 359.02c0 3.58 2.62 6.67 7.62 6.67 4.77 0 7.39-3.34 7.39-6.91v-128h8.82v124.9c0 7.39-3.82 13.35-16.21 13.35-12.16 0-16.21-6.2-16.21-13.83v-124.42h8.82v128.24h-.23zM653.83 235.78h-18.83v-5.24h29.56l-20.5 131.81h21.45v5.72h-32.18l20.5-132.29zM222.63 209.56c0 2.62-.24 5-1.91 7.15-1.67 2.15-4.29 2.86-6.91 2.86s-5.24-.48-6.91-2.62c-1.91-2.15-2.15-4.77-2.15-7.39v-16.69h3.34v16.45c0 1.67 0 3.58.95 5.01.95 1.67 3.34 1.91 5 1.91s3.58-.48 4.77-1.91c1.19-1.43 1.19-3.34 1.19-5.24v-16.21h2.62l.01 16.68zM248.13 219.1h-3.1l-13.35-22.64v22.64h-2.86v-26.22h4.05l12.4 21.21v-21.21h2.62v26.22h.24zM254.33 219.1v-26.22h3.34v25.98h-3.34v.24zM273.16 219.1h-3.1l-8.82-25.98h3.34l7.15 21.45 7.15-21.45h2.86l-8.58 25.98zM302.24 219.1h-16.92v-26.22h16.45v2.86h-13.11v8.34h10.49v2.62h-10.49v9.53h13.59v2.87zM321.79 219.1l-4.77-11.2h-7.15v11.2h-3.34v-26.22h9.77c2.15 0 4.29.24 5.96 1.67s2.86 3.58 2.86 5.72c0 3.1-1.91 5.96-4.77 6.67l5.24 12.16h-3.8zm-5.96-14.06c1.67 0 3.1 0 4.53-1.43.95-.95 1.43-2.15 1.43-3.34 0-1.43-.48-2.86-1.91-3.58-1.19-.71-2.15-.95-3.58-.95h-6.44v9.3h5.97zM331.56 211.47c.95 3.57 4.05 5.24 7.63 5.24 1.67 0 3.58-.24 4.77-1.19.95-.71 1.67-2.15 1.67-3.34 0-2.62-2.15-3.58-4.53-4.29l-4.29-1.19c-1.67-.48-3.34-.95-4.77-2.15-1.43-1.19-2.15-3.1-2.15-4.77 0-5.01 4.29-7.15 8.82-7.15 4.29 0 7.87 2.15 9.3 6.44l-2.86.71c-.48-2.86-3.57-4.53-6.44-4.53-2.38 0-5.48 1.19-5.48 4.05s2.38 3.58 4.77 4.05l3.81.95c1.67.48 3.34.95 4.77 1.91 1.67 1.43 2.38 3.1 2.38 5.24 0 2.38-.95 4.53-2.86 5.96-1.91 1.43-4.53 1.91-6.91 1.91-5.24 0-8.82-2.38-10.49-7.39l2.86-.46zM353.97 219.1v-26.22h3.34v25.98h-3.34v.24zM371.6 219.1h-3.34v-23.36h-7.39v-2.86h18.13v2.86h-7.39v23.36h-.01zM391.63 208.13v10.96h-3.1v-10.96l-8.58-15.02h3.81l6.91 11.92 6.91-11.92h2.86l-8.81 15.02zM413.08 206.23c0-6.44 3.1-13.59 10.73-13.59 7.39 0 10.73 6.67 10.73 13.11s-3.34 13.83-10.73 13.83c-7.39-.24-10.73-6.92-10.73-13.35zm18.12-.24c0-2.38-.48-5.01-1.67-7.15-1.19-2.15-3.1-3.57-5.72-3.57-5.72 0-7.39 6.2-7.39 10.96 0 4.53 1.91 10.49 7.39 10.49 5.72-.01 7.39-6.44 7.39-10.73zM439.54 219.1v-26.22h15.97v2.86h-12.63v8.34h10.49v2.62h-10.49v12.4h-3.34zM487.93 211c-1.19 5-4.05 8.58-9.54 8.58-7.63 0-10.49-7.15-10.49-13.59 0-6.67 3.34-13.11 10.97-13.11 5.24 0 8.34 3.58 9.29 8.34l-3.1.48c-.95-3.34-2.62-6.2-6.44-6.2-5.72 0-7.15 6.2-7.15 10.73 0 2.15.24 4.53 1.19 6.44.95 2.38 3.1 4.29 5.72 4.29 4.05 0 5.96-3.1 6.68-6.44l2.87.48zM510.57 219.1h-3.34l-2.62-7.63h-9.53l-2.38 7.63h-2.62l8.34-25.98h3.82l8.33 25.98zm-10.73-22.64l-4.05 12.4h8.1l-4.05-12.4zM529.4 219.1h-15.49v-26.22h3.34v23.36h12.16v2.86zM533.21 219.1v-26.22h3.33v25.98h-3.33v.24zM542.99 219.1v-26.22h15.97v2.86h-12.63v8.34h10.48v2.62h-10.48v12.4h-3.34zM559.91 206.23c0-6.44 3.1-13.59 10.73-13.59 7.39 0 10.73 6.67 10.73 13.11s-3.34 13.83-10.73 13.83c-7.39-.24-10.73-6.92-10.73-13.35zm17.88-.24c0-2.38-.48-5.01-1.67-7.15-1.19-2.15-3.1-3.57-5.72-3.57-5.72 0-7.39 6.2-7.39 10.96 0 4.53 1.91 10.49 7.39 10.49 5.72-.01 7.39-6.44 7.39-10.73zM601.62 219.1l-4.77-11.2h-7.15v11.2h-3.34v-26.22h9.77c2.15 0 4.29.24 5.96 1.67s2.86 3.58 2.86 5.72c0 3.1-1.91 5.96-4.77 6.67l5.24 12.16h-3.8zm-5.95-14.06c1.67 0 3.1 0 4.53-1.43.95-.95 1.43-2.15 1.43-3.34 0-1.43-.48-2.86-1.91-3.58-1.19-.71-2.14-.95-3.58-.95h-6.43v9.3h5.96zM628.8 219.1h-3.1l-13.35-22.64v22.64h-2.62v-26.22h4.05l12.39 21.21v-21.21h2.62v26.22h.01zM634.99 219.1v-26.22h3.33v25.98h-3.33v.24zM662.64 219.1h-3.34l-2.62-7.63h-9.53l-2.38 7.63h-2.62l8.34-25.98h3.81l8.34 25.98zm-10.72-22.64l-4.05 12.4h8.1l-4.05-12.4zM156.37 282.5s-1.43-1.43-4.05-4.29c.24-1.19.24-2.38.48-4.29l.24-2.86-1.19.71c-.48.24-1.43 1.43-2.86 2.86-2.86-3.1-6.44-6.91-10.96-11.68v-12.16c8.58 6.44 15.73 11.44 15.73 11.44.48.24.95-.48.48-.72-3.1-2.38-9.06-6.67-16.21-11.92v-6.91c0-.95 0-2.62-.72-2.15-1.67 1.19-9.06-.24-9.3-.24l-1.91.48c-6.67-4.77-13.35-9.77-19.07-14.06-1.43-.95-1.91-.24-.48.71.95.72 9.06 6.91 18.35 13.59-2.86.48-5.24.72-7.39.48-3.34-3.58-6.91-7.15-10.73-10.96-1.19-1.19-1.91-.48-.95.71.24.24 4.05 4.29 9.53 10.25-1.67-.24-3.58-.48-5.24-.71-.95-1.43-2.15-2.86-3.1-4.05-1.67-2.38-1.91-.71-.95.72.48.71 1.43 1.91 2.15 3.34h-3.57l-.48-1.43c-.71-1.91-1.91-2.38-.95.48l.24 1.19c-.72.24-1.67.48-2.62.95-.24-1.91-.72-3.81-.95-5.72-.48-1.91-1.43-1.91-.95.24l.95 5.96c-1.19.71-2.62 1.67-3.34 2.86 0-3.34 0-6.67-.24-9.77 0-3.1-.95-1.91-.95 0v8.82c-.95-1.19-2.38-1.91-3.81-2.62l.72-5.24c.24-2.15-.72-2.15-.95-.24-.24 1.67-.71 3.34-.95 5-1.19-.48-2.15-.71-2.62-.71l.24-.72c.95-3.1-.48-2.38-.95-.48l-.48 1.43h-3.57c.95-1.43 1.67-2.62 2.38-3.34.95-1.43.71-3.1-.95-.71-.95 1.19-1.91 2.62-3.1 4.05-1.91 0-3.34 0-4.77.24 5.24-5.48 9.06-9.53 9.06-9.53 1.19-1.19.24-1.91-.95-.71-3.58 3.58-6.91 7.15-10.25 10.49-5.01.24-6.91.48-8.58.48 9.53-6.91 17.88-13.35 19.07-14.06 1.43-.95.71-1.67-.48-.72-5.96 4.53-13.11 9.77-20.02 14.78h-9.05c-.48 0-1.19-.24-1.43-.24-.95 0-.95.48-.95 1.43v7.39c-6.91 5-12.87 9.3-15.73 11.68-.48.48 0 1.19.48.72 0 0 6.91-5.01 15.25-11.2v12.16c-11.68 12.4-17.88 18.83-17.88 19.07-.95.71 0 1.43.48.71 2.62-2.38 9.53-9.53 17.4-17.88v18.59c-6.44 10.25-10.96 17.88-10.96 18.12-.95 1.43-.72 2.38.24 1.19.24-.24 4.77-7.39 10.73-16.69v11.44c-1.67.24-3.58.72-4.53 1.43-.95.95-.71 2.15-.71 3.58 0 .95-.24 2.38-.48 3.1-.48 1.19-1.43 2.15-2.15 2.86-.71.72-1.19 1.67-1.43 2.86-.72 1.67.24 4.05 1.43 6.2.48.95 1.67 2.15 2.86 2.38 4.05.72 4.77-2.14 5.24-3.81v-.24c0 2.86 0 4.29.24 4.53h5.24c-.71 2.15-1.19 3.58-1.19 3.58-.71 2.62.48 1.67.95.72.48-1.43.95-2.86 1.67-4.53 2.86-.24 6.2-.24 9.77-.48.72 1.19 2.15 2.86 2.86 4.05l.71 1.19.48.71 1.43 2.62c-.48 2.38-.71 3.82-.71 4.05-.95 3.58 0 3.81.71.48 0-.24.24-1.43.72-3.34l1.43 1.91c1.19 1.43 3.58 3.1 9.06 5.48 2.15.95 5.24 1.43 8.58 1.67.24 2.86.95 2.15.95 0 4.29 0 9.3-.48 14.06-2.14 2.62-1.19 4.29-2.62 5.48-3.82v.24c.95 3.33 1.67 3.1.71-.48v-.48c.72-.71.95-1.43.95-1.67.24-.47 2.62-5.96-.24-9.77l-.24-.24s-.24 0-.24-.24c-.24-.24-.48-.24-.48-.48 5.72.24 11.68.48 15.73.72.48 1.19.95 2.38 1.19 3.33.24.95 1.67 1.91.95-.72 0 0-.24-.95-.95-2.62 2.38 0 4.05.24 4.05 0v-5.72c3.58-.72 4.53-1.43 6.91-3.58 2.62-2.38 4.29-5.72 4.29-8.82.24.24.24.48.24.48.95 1.19 1.19.48.24-1.19 0 0-.24-.48-.95-1.43-.48-1.91-1.43-3.34-2.86-4.77-1.19-2.15-2.86-4.77-4.53-7.63 1.91-.24 3.81-.72 5.24-1.43 1.67-.72 4.29-2.62 5.48-5.72l.24-.48c.24-.24.24-.71.24-.95 1.67 1.67 2.86 2.86 3.58 3.57 1.17.49 1.88.01 1.17-.71zm-8.11-6.91c-.95 1.19-1.91 2.38-2.62 3.34-.24-1.19-.48-3.34-.95-5-.24-1.19-.48-2.15-.95-3.1 1.42 1.9 3.09 3.33 4.52 4.76zm-10.25-10.49c1.19 1.19 2.38 2.38 3.57 3.81v.48c.48 4.29-.48 7.63-.95 9.53-.71 1.91-1.19 2.86-2.15 3.34l-.71.24c0-6.67.24-12.39.24-17.4zm-3.34-21.69c0-.95 1.43-1.19 1.67.24.24.72.24 20.02 0 39.09-.48.24-1.19.24-1.67.24v-39.57zm-2.62 0c0-.71 1.43-.71 1.19.48 0 .24 0 19.78-.24 38.61l-.71-.24v-.48c0-1.91.95-2.15 0-3.1-.24-.24-.48-.48-.95-.48.24-18.34.47-34.55.71-34.79zm-3.57-.95c.24-1.19 1.43-.24 1.43 0 0 .48 0 17.64-.24 35.04l-1.43.24c0-9.78.24-21.93.24-35.28zm-.24 36.23c.24 0 2.15-.71 2.62-.24.72.48.48 2.86.48 3.81v.95c0 .24 0 .24.24.48.24.71.95.95.95 1.19-.48-.24-.71-.24-1.19-.24-.48-.24-1.19-.24-1.67-.24l-1.43-.24h-1.19c-1.19 0-2.15.24-2.86.72l-.95.48h-.24l-.71.71c-.48.48-.72 1.19-.95 1.91-.24-.71-.95-1.43-.95-2.14 0-2.14 1.43-3.82 2.38-4.53l.95-.71.24-.24.71-.48s.24 0 .24-.24l.72-.24h.24c1.18-.47 1.89-.47 2.37-.71zm4.29 7.39s.24 0 .24.24v5.01c-.71 0-1.19.24-1.67.24v-5.96l.95.24.48.23zm-2.86-.96v7.15s-.24 0-.24.24c-.24.24-.72.24-1.19.48v-8.1l1.43.23zm-2.62-.23v8.34c-.24 0-.48 0-.48.24-2.15.24-3.34-.72-3.57-1.19-.24-.24-.24-.48-.48-.95-.24-.48-.24-1.19-.24-1.19 0-1.19.48-1.91 1.67-3.1.47-1.2 1.67-1.92 3.1-2.15zm-30.04-38.14c.48-4.05 10.96-5.24 12.87-4.77 1.67.48 4.53.95 5.96 1.19 0 0 5.96 1.43 11.2-.48v35.75c-.95.24-3.1.71-4.77 2.14-1.67 1.43-2.86 3.1-2.86 5.24 0 1.43.48 2.86 1.43 5.01.48 1.19.71 2.38.71 2.38.95 1.67.71 2.86.95 4.29.48 2.38 1.91 2.62 2.38 2.86.72.24 1.43.24 1.91.48v2.62h-.48c-3.58-.24-4.77-.71-6.91-1.91l-2.38-1.43c-4.05-1.91-9.77-1.91-12.63-.72-1.43.72-2.38.95-3.1 2.14l-.24.48v.24c.24.72.95 1.67 1.19 2.38.24.72.24 1.91.24 2.38 0 1.19-.95 2.15-1.19 2.62-.95.48-1.43 1.91-1.43 3.58-1.19.48-1.91.95-2.86 1.67.25-.21-.23-68.14.01-68.14zm10.97 68.65l.71 1.19c.24.48.72.72 1.19.95l1.43.95.71.48 1.19.72h-1.19l-1.67.24h-.95c-.95 0-1.91.24-3.1 0l-1.43-.24c-.71-.24-1.43-.48-1.91-1.19-.72-.48-.95-1.19-1.43-2.15-.24-.48-.24-.71-.24-1.19v-.95c0-.71 0-1.19.24-1.67 0-.48.24-.72.48-.95l.71-.72s.24 0 .24-.24l1.19-.24h1.19c.48 0 .95 0 1.19.24.48 0 1.19.24 1.91.48l-.24.71-.24.95-.24.95c-.22.72.02 1.2.26 1.68zm.48-1.91c0-.48.24-1.19.48-1.91h.71l4.29 1.43c-1.91 0-3.58.24-5.48.48zm10.72 1.19c1.91.48 3.81.95 5.96 1.19-4.53.24-10.25.48-15.02.72-.48-.47-.95-.72-1.19-1.19 3.34-.48 6.91-.72 10.25-.72zm-8.82 6.68c0 .72 0 1.19-.71 1.67-3.1 2.62-5.48 3.1-11.44 2.38-.71 0-1.19-.24-1.67-.24v-3.34c1.67 0 3.34-.48 5.01-1.67h1.43c.71.24 1.43.72 2.15.95 2.61.25 3.09.25 5.23.25zm-10.49-5.49l-1.19-.48c.48-.24.95-.48 1.19-.48v.96zm-3.57 0c2.86 0 4.29 2.86 4.05 3.1-2.15 2.15-6.2 2.38-7.87 0-.23-.47 1.44-3.1 3.82-3.1zm-4.05 1.2c.48.24-.48.48-.48.48-1.43-.24-3.81-.48-6.67-.71 0 0 0-.24-.24-.24 0-.24 0-.24-.24-.47 3.34.22 6.19.46 7.63.94zm-8.11-2.63c-.24-.48-.48-.95-.72-1.67 3.58.48 9.3 1.43 10.73 2.38-.71.24 0-.24-.95.71-1.19-.46-4.77-.94-9.06-1.42zm5.72 3.82c.48 0 1.43 0 .95.71 0 0-1.91-.24-5-.24l-.48-.72c2.39.01 3.82.01 4.53.25zm1.19 1.67c1.67.48 2.62 1.19 4.05 1.43v3.1c-1.19-.48-2.15-.96-3.34-1.43 0 0-1.43-.72-3.34-1.67-.72-.48-1.43-.95-2.15-1.67 2.64 0 4.31.24 4.78.24zm-26.69-76.76c0-.48 0-.71.71-.71 11.44.24 28.84-4.05 30.27 4.05 0 .24.48 52.2.24 67.93-3.81-1.43-6.67-2.15-13.11-2.86l-1.19-1.67c-1.19-1.91-1.67-2.62-2.38-3.1l-2.38-2.38c-1.19-.95-2.86-2.62-3.1-2.86-3.58-2.38-6.67-3.58-9.06-4.05.24-31.94-.24-50.53 0-54.35zm-2.15 1.2c0-1.67.95-1.67.71-.48 0 1.67 0 19.78-.48 53.63-.48 0-.95 0-1.19-.24.48-19.55.96-50.53.96-52.91zm-3.1-.48c-.24-.95.95-1.19.95 0 0 .48-.24 32.89-.48 53.63-.48 0-.95 0-1.19.24.01-21.22.49-53.63.72-53.87zm-3.81-.48c0-1.19 1.67-.71 1.67.71-.24 22.65-.48 41-.48 53.87h-1.43c.24-22.64.24-54.1.24-54.58zm-4.53 75.09c-.95.72-1.67.95-2.86.72-.72 0-2.15-1.67-2.86-3.34-.24-.71-.24-1.43-.24-2.86 0-.47 0-.71.24-.95l.72-1.19c.48.71 1.19 1.19 2.15 1.67l1.67.95c.95.71 2.38 1.19 3.34 1.19-.25 1.18-.97 2.85-2.16 3.81zm2.15-4.77c-.24 0-1.43 0-3.1-.72l-1.43-.95c-.95-.95-1.19-1.67-1.19-1.91v-.24c.72-.71 4.05-.71 6.44-.48v4.05c-.49.01-.72.01-.72.25zm2.62 5c-.24-.48-.24-3.81-.24-4.77v-4.53h1.19c0 5.01.24 7.87.48 8.1.24.24 5.48.24 11.68.24l.24.48s0 .24.24.48c-7.16.24-13.59.24-13.59 0zm11.2-3.57c.24.24.48.71.71.95-5-.24-8.82-.48-9.06-.72 0 0-.24-2.14-.24-5.48.48 0 .95.24 1.19.24 0 2.62 0 4.29.24 4.53.49.24 3.35.24 7.16.48zm-5.48-4.29c.48.24.95.48 1.43.71.95.48 1.67 1.19 2.62 1.91h-4.05v-2.62zm56.73 14.3c0 .48 0 .71-.24 1.19v.24l-.24 1.43-.48 1.43v.24l-.48 1.19c-.24.48-.48.95-.71 1.19-1.19 1.43-2.62 2.62-6.67 4.29-1.19.47-2.15.72-3.34.95-.24 0-.48 0-.71.24-.95.24-1.67.48-2.62.48h-.48c-.95.24-1.91.24-2.86.24h-2.86c-.95 0-1.91 0-2.62-.24h-.48l-1.43-.24c-.24 0-.48-.24-.95-.24l-.95-.24c-.71-.24-1.19-.48-1.67-.71-5.24-2.38-8.82-4.05-10.25-6.2-.48-.71-.95-1.42-1.19-1.9s-.48-.95-.71-1.19c-.48-.72-.95-1.67-1.43-2.38l-.71-.71-.71-1.19c-.48-.95-.95-1.91-1.43-2.62-.24-.24-.48-.71-.48-.95l-.71-1.43-.48-.48c-.24-.48-.48-.71-.71-.95l-.72-.95c-.48-.71-.95-1.19-1.19-1.43 0 0-.24-.24-.48-.24-.24-.24-.71-.48-.95-.71-.48-.24-.95-.71-1.67-.95-.71-.24-1.19-.72-1.91-.95-.48-.24-.72-.48-1.19-.48l-1.67-.72c-.48-.24-.95-.24-1.19-.48-.71-.24-1.19-.48-1.91-.48-.48 0-.95-.24-1.19-.24h-1.91c-2.62 0-3.1-.24-4.05-.24h-1.43l.48-.95c.24-.95.24-2.15.24-3.1 0-1.43.71-2.86 1.19-3.58l.72-.47h.24c.24 0 .48 0 .71-.24h3.5699999999999994l.95-.24c.95-.24 1.91-.48 3.1-.72.48 0 1.19-.24 1.91-.24.95 0 1.67 0 2.62.24.48 0 1.19.24 1.67.48h.24l1.67.72s.24 0 .24.24c.71.24 1.19.71 1.91 1.19l.24.24c.71.48 1.43.95 2.15 1.67.24 0 1.19.95 1.91 1.43l3.1 2.62c.71.48 1.91 2.38 3.1 4.05l.95 1.19c.71.95 1.19 2.38 1.67 3.81l.24.48.48 1.19.48.72c.24.24.48.71.48.95l.71.71.71.71c.24.24.48.48.72.48l.24.24c.24.24.48.48.95.48l1.91.95c.72.48 1.43.95 2.38 1.19h.24c.95.48 1.67.71 2.86.95.48 0 .95.24 1.19.24h.24c6.44.95 11.68 0 13.83-2.38.71-.72 1.19-1.67.95-2.86h.48c2.15-.24 2.86-.24 4.05.71 1.39 1.18 2.34 1.9 2.34 3.33zm17.88-5.72c-.48-.24-12.4-.48-21.69-.72-.71-.24-1.19-.72-1.91-.95 9.3 0 19.31.24 22.17 0v-1.91l1.43-.24v3.82zm9.53-21.45c.95 1.19 1.43 2.62 1.67 4.05.48 3.1.48 5.72-2.15 8.1-.24.24-.71.72-.95.95-.24.24-.48.24-.48.48l-.24.24c-.24.24-.48.24-.48.48l-.24.24c-.24.24-.48.24-.48.47 0 0-.24 0-.24.24-.24.24-.48.24-.71.24 0 0-.24 0-.24.24l-.72.24h-.24c-.24 0-.48.24-.95.24h-.24l-.95.24-1.19.24-1.67.23c-.72 0-1.43.24-1.91.24l-2.62.24h-2.8600000000000003c-.71 0-1.43 0-2.38-.24h-.24c-4.05-.48-7.39-1.43-10.25-2.62-.71-.24-1.43-.48-1.91-.95-.48-.24-1.19-.48-1.67-.71-1.43-.48-2.62-.95-4.05-1.19h-.24l-1.43-.24h-2.15c.24-.95.71-1.91.71-2.62v-.48c-.24-.72-.48-1.19-.71-1.91-.24-.48-.48-.95-.71-1.67.48-.72.95-1.19 1.91-1.67 2.15-.95 7.15-1.43 11.2.48l2.86 1.19c2.15.95 3.81 1.91 7.63 2.38.72 0 1.43 0 2.15.24h6.4399999999999995s1.19 0 1.67-.24c.48 0 .95 0 1.43-.24.71-.24 1.19-.24 1.67-.48h.24l1.43-.48c3.81-2.14 4.29-4.76 4.29-5.95zm-17.16 2.86h1.43v2.62h-1.43v-2.62zm2.86 2.86v-3.1h.24c.48-.24.95-.48 1.67-.72v4.05c-.72-.23-1.43-.23-1.91-.23zm3.57 0v-5.24l1.67-1.43v6.67h-1.67zm9.3-6.2c.24.95.48 3.58-3.1 5.01-1.19.48-2.15.72-3.1.95v-7.39c1.19-.71 2.86-.95 5.96 1.19l.24.24zm-.72-2.62c-.71-.24-1.19-.24-1.67-.24h-2.86c-.48 0-.71.24-.95.24l-1.43.72c-.48.24-.95.71-1.43 1.19 0 0-.24 0-.24.24-.71.71-1.43.95-1.91 1.19s-.95.48-1.43.48h-.24c-.24 0-.24 0-.48.24l-.95.48c-.95.24-1.67.47-2.62.24-.24 0-.71 0-.95-.24-1.67-.72-2.38-2.15-2.38-2.62-.24-.95.24-1.19-.24-2.62.48.24.95.24 1.67.24h2.3899999999999997c.24 0 .48 0 .72-.24.48-.24.95-.48 1.19-.72h.24c.71-.24 1.43-.71 2.15-.95l.95-.24h6.68l.72.24h.24c.24 0 .48.24.95.48 0 0 .24 0 .24.24l.72.48.24.24c.21.45.45.69.68.93zm-8.58-3.58v-4.05c.72.24 1.19.48 1.67.71v3.58l-1.67-.24zm7.87 1.91c-2.38-1.67-3.34-1.67-4.77-1.67v-3.33h1.67c.96 1.9 2.15 3.57 3.1 5zm9.06-17.88c-.24 1.43-.48 2.86-.95 3.81l-.24.95-.24.48c-1.19 2.86-2.38 5.01-6.67 6.44-.48.24-1.19.24-1.67.24h-1.43l-1.67-.24c-.24 0-.48 0-.71-.24-.24 0-.48-.24-.95-.24-.24 0-.24 0-.48-.24-1.91-.48-3.1-1.43-3.58-2.62l-.24-.48v-.24c.48.24 1.19.24 2.15.24h1.91l1.43-.24h.24c1.43-.48 3.1-.95 3.81-3.81.48-1.43.48-5.48.72-7.63 1.19 2.86 1.91 7.87 1.91 8.34l.24 1.67s.48-.48.95-1.19c1.19-1.67 2.15-3.1 2.86-4.05l.71-.95c.24-.48.71-.71.95-.95l.95-.95v1.9zm-84.14 38.38zM51.96 239.12c-.71.48-1.19-.24-.24-.71 1.67-.95 28.36-12.87 30.51-14.06 1.19-.48 1.91.24.72.95-.24 0-29.32 12.87-30.99 13.82zM82.23 222.2s.48.48 0 .48c-.71.24-9.3.48-9.53.48-.24 0-2.38.24-3.1.24-1.43-.24-.48-.48.24-.72 2.62-.01 11.68-.72 12.39-.48zM138.96 238.88c.72.48 1.19-.24.24-.71-1.67-.95-28.37-12.87-30.51-14.06-1.19-.71-1.91.24-.71.95 0 .24 29.32 13.11 30.98 13.82zM109.41 222.2s-.48.48 0 .48c.71.24 9.06.48 9.53.48.24 0 2.38.24 3.1.24 1.43-.24.48-.48-.24-.48-.95-.25-11.2-1.2-12.39-.72zM81.28 348.29v.24c-.24 0-.48 0-.48.48l-2.15 8.1c0 .24 0 .48.24.72v.24l-3.34-.95v-.24c.48 0 .48 0 .71-.24l1.67-6.2c-.24 0-.95 0-1.19.24h-.24l.71-2.38h.24c0 .24.24.24.48.47.48 0 .72 0 .72-.47 0-.24 0-.48-.24-.48v-.24l2.87.71zM85.81 353.77c-.95-.48-1.67-1.43-1.43-2.15.24-1.43 1.91-2.62 4.53-2.38 3.1.24 4.53 1.67 4.29 2.86 0 .95-.95 1.67-1.91 2.15 1.43.47 1.91 1.43 1.91 2.62-.24 1.67-1.91 2.86-5.01 2.62-3.1-.24-4.77-1.91-4.77-3.33.25-1.2 1.2-2.15 2.39-2.39zm2.62 4.06c1.43 0 2.62-.24 2.62-1.43 0-.95-.95-1.67-2.38-1.91-1.43 0-2.62.24-2.62 1.43-.24 1.19.95 1.67 2.38 1.91zm.48-4.53c1.43.24 2.15-.24 2.38-1.19 0-.72-.48-1.43-2.15-1.43-1.43-.24-2.15.24-2.38 1.19 0 .71.48 1.19 2.15 1.43zM102.02 352.1l-.24-.24c0-.48-.95-1.19-2.15-.95-1.91 0-2.86 1.67-2.62 3.34.71-.72 1.67-1.43 2.86-1.43 2.38 0 4.05.95 4.05 3.34 0 1.67-1.43 3.33-4.29 3.58-3.34.24-5-2.15-5-4.53-.24-3.1 1.43-5.72 5-5.72 1.67 0 2.86.47 3.34.47.24 0 .24 0 .24-.24h.24l-1.43 2.38zm-.24 4.06c0-.95-1.19-1.91-2.38-1.67-1.19 0-2.15.95-2.15 1.91 0 .95 1.19 1.91 2.38 1.67 1.2-.01 2.15-.72 2.15-1.91zM107.02 353.3c-.95 0-1.91-.71-2.15-1.43-.48-1.43.71-3.1 3.58-3.81 2.86-.95 4.77 0 5.24 1.19.24.95-.24 1.91-1.19 2.62 1.43 0 2.38.71 2.62 1.91.48 1.67-.71 3.33-3.81 4.29-3.1.95-5.24 0-5.48-1.43-.48-1.68 0-2.63 1.19-3.34zm2.63-1.67c1.43-.48 1.91-1.19 1.67-1.91-.24-.71-.95-.95-2.38-.71-1.43.48-1.91 1.19-1.67 1.91-.01.95.95 1.18 2.38.71zm1.19 4.53c1.19-.48 2.38-1.19 1.91-2.15-.24-.95-1.67-1.19-2.86-.71s-2.38 1.19-1.91 2.15c.24.94 1.67 1.18 2.86.71zM60.78 305.62l2.62.95s.24 0 .24-.24l-.72 2.15v-.48l-4.05-1.19v-.24c.24 0 .24 0 .24-.24l2.15-5.72s0-.24-.24-.24v-.24l1.67.48v.24c-.24 0-.24 0-.24.24l-1.67 4.53zM68.41 308.48c0-.24 0-.24-.24-.48l-1.43-.72-.72.95 2.38 1.43s.24 0 .24-.24l-1.19 1.91v-.24l-3.1-2.14v-.24h.24l3.1-5.24v-.47l3.58 2.14s.24 0 .24-.24l-.95 1.91c.24-.24.24-.24 0-.48l-2.38-1.43-.48.95 1.43.95c.24 0 .24 0 .48-.24l-1.2 1.92zM69.84 312.77h.48l3.58-3.58-.95-.95s-.24 0-.24.24l1.67-1.67c-.48 0-.48.23-.48.23l3.1 2.86s.24 0 .48-.24l-1.91 1.91c.24-.24.24-.24.24-.48l-.95-.95-3.34 3.58s-.24.24 0 .24l-1.68-1.19zM74.85 319.45c.24.24.24 0 .48 0l4.53-2.14-.71-1.43h-.48l2.15-.95-.24.24 1.67 3.81h.48l-2.15.95.24-.24-.72-.96-4.53 2.15s-.24 0 0 .24h-.24l-.48-1.67zM79.85 328.51s-.24.24 0 .24h-.24l-.95-1.19h.24c.24.24.24.24.24 0l1.91-1.43-1.19-1.67-1.91 1.43s-.24.24 0 .24h-.25l-.95-1.43h.24c.24.24.24.24.24 0l5-3.58s.24-.24 0-.24h.24l.95 1.43h-.24c-.24-.24-.24-.24-.24 0l-1.91.95 1.19 1.67 1.67-1.19s.24-.24 0-.24h.24l.95 1.43h-.24c-.24-.24-.24-.24-.24 0l-4.75 3.58zM85.81 330.41v-.48l-1.19-.95-.72.95 2.15 1.67s.24 0 .48-.24l-1.43 1.91v-.24l-3.34-2.38h.24l3.58-5.01v-.47l3.34 2.38s.24 0 .24-.24l-1.43 1.91c.24-.24.24-.24 0-.48l-1.91-1.67-.72.95 1.19.95h.48l-.96 1.44zM88.67 334.23s0 .24.24.24v.24l-1.67-.48v-.24c.24 0 .24 0 .24-.24l1.91-5.72c0-.24 0-.24-.24-.24v-.24l2.86.95c1.19.48 1.43 1.19.95 2.62-.48 1.19-.95 1.67-1.91 1.67l.24 2.38c0 .24 0 .24.24.24v.24l-1.67-.48v-.24s.24 0 .24-.24c0 0-.24-2.15-.24-2.38l-.71-.24-.48 2.16zm1.19-3.34l1.43.48c.48.24.71-.24.95-.48 0-.47 0-.72-.48-.95l-1.43-.48-.47 1.43zM97.73 333.75c0-.24-.24-.24-.24-.24h-1.67v1.19l2.62.24s.24 0 .24-.48l-.24 2.15c0-.24 0-.24-.24-.24l-4.29-.24v-.24c.24 0 .24 0 .24-.24l.48-5.96s0-.24-.24-.24v-.24l4.29.24s.24 0 .24-.24l-.24 2.15c0-.24 0-.48-.24-.48l-2.62-.24v1.19h1.67c.24 0 .24 0 .24-.24v2.16zM102.26 329.46s0-.24-.24-.24v-.24l3.1-.95c.95-.24 1.67 0 2.15 1.19.24.72 0 1.19-.48 1.67.71 0 1.19.48 1.43 1.19.24.95 0 1.91-.95 2.38l-3.1.95v-.24c.24 0 .24-.24.24-.24l-2.15-5.47zm1.9 1.67l1.19-.24c.71-.24.95-.24.71-.95-.24-.48-.24-.48-.95-.24l-1.19.24.24 1.19zm.96 2.86l1.43-.48c.48-.24.72-.48.48-.95-.24-.48-.48-.71-.95-.48l-1.43.48.47 1.43zM112.51 329.7c-.24 0-.24-.24-.48 0l-1.43.71.48 1.19 2.38-1.19v-.48l.95 1.91-.24-.24-3.81 1.91v-.24c.24 0 .24-.24 0-.24l-2.86-5.48s0-.24-.24 0v-.24l3.81-1.91v-.48l.95 1.91-.24-.24-2.38 1.19.48.95 1.43-.72c.24 0 .24-.24 0-.48l1.2 2.17zM110.36 307.05l2.86.72s.24 0 .24-.24l-.48 2.15v-.48l-4.29-.95v-.24c.24 0 .24 0 .24-.24l1.43-5.96s0-.24-.24-.24v-.24l1.67.48v.24c-.24 0-.24 0-.24.24l-1.19 4.76zM114.17 309.91l.48-.24 2.38-5.72s0-.24-.24-.24v-.24l1.67.72v.23c-.24 0-.24 0-.24.24l-2.38 5.72s0 .24.24.24v.24l-1.91-.95zM122.76 310.15l-1.19-.24s-.24 0-.24.24l.48-1.67v.24l2.38.72v.23s-.24 0-.24.24l-.48 1.67v.48c-.95.48-1.91.48-2.86.24-1.43-.48-2.38-1.91-1.67-4.05.72-2.38 2.15-3.1 3.58-2.62.48.24.71.24 1.19.71l.48.48h.24l-.95 1.43v-.24s-.72-.72-1.43-.95c-.71-.24-1.67.24-1.91 1.67-.48 1.43.24 2.15.95 2.38.48.24.72.24 1.19 0l.48-.96zM130.86 313.25s0 .24.24.24v.24l-1.67-.24v-.24c.24 0 .24 0 .24-.24l.24-2.38-2.15-.24-.24 2.38s0 .24.24.24v.24h-1.67v-.24c.24 0 .24 0 .24-.24l.48-5.96s0-.24-.24-.24v-.24h1.67v.24c-.24 0-.24 0-.24.24l-.24 2.15 2.15.24.24-2.15c0-.24 0-.24-.24-.24v-.24h1.67v.24c-.24 0-.24 0-.24.24l-.48 6.2zM135.15 313.25c.24-.24.24-.24.24-.48l-.72-4.77-1.43.24v.48l-.48-2.38c0 .24 0 .24.24.24l4.05-.72v-.47l.48 2.38c0-.24 0-.24-.24-.24l-1.43.24.71 4.77c0 .24 0 .24.24.24v.24l-1.66.23zM50.06 329.94c-.48 0-.72 0-.95.24l-5.24 5.48 1.91 1.91c.48.47.48.47.95.24l.24.24-1.67 1.67-.24-.24c.24-.24 0-.48-.24-.71l-5.72-5.48c-.48-.48-.48-.48-.71-.24l-.24-.24 1.67-1.67.24.24c-.24.24-.24.48.24.95l1.91 1.91 5.24-5.48c.24-.24.24-.48 0-.72l.24-.24 2.37 2.14zM37.9 323.5l3.1-2.15c.24-.24.24-.24 0-.72l.24-.24 2.15 2.86-.24.24c-.24-.48-.48-.48-.71-.24l-6.91 4.77c-.24.24-.24.24 0 .72l-.24.24-2.15-2.86.24-.24c.24.48.48.48.71.24l2.62-1.91-2.86-4.05-2.62 1.91c-.24.24-.24.24 0 .72l-.24.24-2.15-2.86.24-.24c.24.48.48.48.71.24l6.91-4.77c.24-.24.24-.24 0-.72l.24-.24 2.15 2.86-.24.24c-.24-.48-.48-.48-.71-.24l-3.1 2.15 2.86 4.05zM32.89 309.68l-2.15-5.01c-.24-.47-.24-.71-.71-.47l-.24-.24 2.15-.95.24.24c-.24.24-.24.48 0 .95l3.34 7.63h-.24c-.24-.48-.48-.71-.71-.48l-7.87 3.58c-.24.24-.24.24-.24.95h-.24l-3.34-7.39c-.24-.48-.24-.72-.71-.48l-.24-.24 2.15-.95.24.24c-.24.24-.24.48 0 .95l2.15 4.53 2.15-.95-1.19-2.62c-.24-.48-.24-.72-.71-.48l-.24-.24 2.15-.95.24.24c-.24.24-.24.48 0 .95l1.19 2.62 2.83-1.43zM17.64 284.17h.24c0 .48.24.48.48.48l5.72-.24c1.19 0 2.15-.95 2.15-2.62 0-1.67-.95-2.62-2.15-2.62l-5.72.24c-.24 0-.48.24-.48.48h-.24v-3.34h.24c0 .48.24.71.48.48l5.72-.24c2.38 0 3.81 1.19 4.05 4.77 0 3.58-1.43 5.01-3.58 5.01l-5.72.24c-.24 0-.48.24-.48.72h-.24l-.47-3.36zM27.65 273.44h-.24c0-.48 0-.48-.48-.71l-8.34-1.43c-.24 0-.48 0-.48.48h-.24l.71-3.81h.24v.48c.24 0 5.96-3.1 6.91-3.34l-5.96-.95c-.24 0-.48 0-.48.48h-.24l.24-3.1h.24c0 .48 0 .48.48.48l8.34 1.43c.48 0 .48 0 .48-.24h.24l-.48 3.34h-.24c0-.24 0-.48-.24-.48s-5.72 3.1-7.39 3.58l6.44.95c.24 0 .48 0 .48-.48h.24l-.23 3.32zM30.27 259.86h-.24c.24-.71 0-.71-.24-.95l-8.1-2.62c-.24 0-.48 0-.71.71h-.24l1.19-3.81h.24c-.24.71 0 .71.24.95l8.1 2.62c.24 0 .48 0 .72-.48h.24l-1.2 3.58zM33.85 250.56c0-.48-.24-.71-.24-.71-.24 0-6.67-.24-9.06-.48-.48 0-.71 0-.95.24h-.24l1.43-2.86h.24v.48c.24.24 5.01.24 7.39.48-1.67-1.91-4.77-5.24-5-5.48 0 0-.24 0-.48.48h-.24l1.43-2.86.24.24c0 .48 0 .48.48.95 2.15 2.38 5.72 6.44 6.2 6.67.24 0 .24 0 .48-.24l.24.24-1.92 2.85zM39.09 238.65l3.34-4.29c.24-.48.48-.71.24-.95l.24-.24 1.91 1.43-.24.24c-.24 0-.48 0-.72.48l-5 6.67h-.71c.24-.48.24-.71 0-.95l-6.91-5.24c-.24-.24-.48-.24-.95.24l-.24-.24 5-6.44c.24-.48.48-.72.24-.95l.24-.24 1.91 1.43-.24.24c-.24 0-.48 0-.71.48l-3.1 4.05 1.91 1.43 1.91-2.38c.24-.48.48-.71.24-.95l.24-.24 1.91 1.43-.24.24c-.24 0-.48 0-.71.48l-1.91 2.38 2.35 1.89zM46.48 231.97c0-.48 0-.72-.24-.95l-5.72-6.2c-.24-.24-.48-.24-.71 0l-.24-.24 4.29-3.81c1.91-1.67 3.81-1.91 5.01-.72.95 1.19.95 2.38 0 3.81l3.34.95c.95.24 1.19.48 1.67.24l.24.24-2.62 2.38-.24-.24c.24-.24.24-.48.24-.48s-.24-.24-.71-.24l-3.58-.95-1.67 1.43 2.38 2.62c.24.24.48.24.71 0l.24.24-2.39 1.92zm-1.67-6.2l1.91-1.91c.95-.95 1.19-1.67.72-2.38-.48-.71-1.43-.48-2.38.48l-2.15 1.91 1.9 1.9zM56.02 220.29h.24v.24c.24.48 2.15 0 3.34-.71 1.91-1.19 2.15-1.91 1.67-2.86-1.19-1.91-6.67 3.1-8.58.24-.72-1.19-.24-3.1 2.38-4.77.95-.71 1.91-.95 2.62-1.19.71-.24 1.19-.24 1.19-.24.24-.24.24-.24.24-.48h.24l.24 2.86h-.24s0-.24-.24-.24c-.24-.48-1.43-.48-3.1.48-1.19.71-1.43 1.43-.95 1.91.95 1.67 6.67-3.34 8.58 0 .71 1.43.24 3.58-2.86 5.48-.95.48-1.91.95-2.62.95-.72.24-1.19.24-1.43.48-.24 0-.24.24-.24.48h-.24l-.24-2.63zM67.93 217.19v-.24c.71-.24.71-.48.48-.71l-3.1-7.87c0-.24-.24-.48-.95-.24v-.24l3.58-1.43v.24c-.72.24-.72.48-.48.71l3.1 7.87c0 .24.24.48.95.24v.24l-3.58 1.43zM77.47 213.85v-.24c.24-.24.48-.24.24-.48l-1.91-7.39-2.62.71c-.48.24-.71.24-.71.72h-.24l-.48-2.38h.24c.24.24.24.24.95.24l7.63-1.91c.48-.48.48-.71.48-.95h.24l.48 2.38h-.24c-.24-.24-.24-.48-.95-.24l-2.62.72 1.91 7.39c0 .24.24.48.71.24v.24l-3.11.95zM92.96 211.47l-3.58.24v-.24c.48 0 .48-.24.48-.48l-.24-3.34-3.81-5.24c-.24-.24-.24-.24-.71-.48v-.24l3.58-.24v.24c-.24 0-.48.24-.48.24 0 .24 1.67 2.15 2.62 3.34.95-.95 2.38-3.1 2.38-3.34 0-.24-.24-.24-.48-.24v-.24l3.34-.24v.24c-.24 0-.48.24-.48.48l-3.34 5.48.24 3.34c0 .24.24.48.48.48v.24zM120.85 205.27c3.34 1.19 4.53 4.05 3.58 6.67-.95 2.62-3.58 4.29-6.91 3.1-3.34-1.19-4.53-4.05-3.58-6.67.71-2.62 3.33-4.29 6.91-3.1zm-2.86 8.35c1.91.71 3.58-.24 4.29-2.38.72-2.15 0-3.81-1.91-4.29-1.91-.71-3.58 0-4.29 2.15-.95 2.13-.24 3.8 1.91 4.52zM124.9 217.91c.72 0 .95 0 .95-.24l4.05-7.39c.24-.24 0-.48-.48-.71l.24-.24 7.15 4.05c.48.24.72.24.72 0l.24.24-1.19 1.91-.24-.24c0-.24 0-.48-.48-.72l-4.53-2.38-1.19 2.15 2.86 1.43c.48.24.71.24.95 0l.24.24-1.19 1.91-.24-.24c0-.24 0-.48-.48-.71l-2.86-1.43-1.67 3.1c-.24.24 0 .48.48.71l-.24.24-3.09-1.68zM158.27 233.88l-2.86.24v-.24h.24c.48-.48.24-1.67-.48-2.62-1.43-1.67-3.1-2.15-5.01-.48-1.43 1.19-1.67 3.34-.48 5.01.95.95 2.15 1.43 2.62.95l.24-.24.24.24-.24 2.86h-.24v-.48c-.24-.48-1.91 0-3.81-2.38-2.38-2.62-1.91-5.72.24-7.63 2.62-2.38 5.96-1.19 7.87 1.19.71.72.95 1.67 1.19 2.15s.24.95.24 1.19l.24.24zM152.31 241.5c.48.24.71 0 .95 0l8.82-.95c.48 0 .48 0 .71-.24 0 0 .24-.24 0-.48l.24-.24 1.91 3.34-.48.48c-.24-.24-.24-.48-.48-.24 0 0-.24.24-.48.72l-5.24 6.67c-.24.24-.24.48-.24.71l-.24.24-1.43-2.86.24-.24c.24.24.24.24.48.24 0 0 .24 0 .24-.24l1.19-1.43-2.15-3.57-1.67.24h-.24c-.24 0-.24.24 0 .72l-.24.24-1.89-3.11zm6.68 4.29l2.86-3.34-4.29.71 1.43 2.63zM167.33 250.8c.24 0 .48-.24.24-.71h.24l1.19 3.58h-.24c-.24-.71-.48-.71-.71-.48l-7.15 2.38 1.67 4.77c.24.48.24.71.71.71v.24l-2.38.71v-.24c.24-.24.24-.24 0-.95l-2.62-7.63h.24c.24.48.48.48.71.48l8.1-2.86zM161.85 264.15h.24c.24.71.24.71.71.71l8.34-1.67c.24 0 .48-.24.24-.95h.24l.71 3.81h-.24c-.24-.72-.24-.72-.72-.72l-8.34 1.67c-.24 0-.48.24-.24.95h-.24l-.7-3.8zM163.04 270.82h.24c0 .71.24.71.48.71l8.58-.48c.24 0 .48-.24.48-.71h.24l.48 8.1c0 .48 0 .71.48.71v.24l-2.38.24v-.24c.24 0 .24-.24.24-.71l-.24-5-2.38-.24.24 3.1c0 .48 0 .71.48.71v.24l-2.38.24v-.24c.24 0 .24-.24.24-.71l-.24-3.1-3.57.24c-.24 0-.48.24-.48.95h-.24l-.27-4.05zM173.05 288.94c-.48 3.58-2.86 5.24-5.72 5.01-2.86-.24-4.77-2.62-4.29-6.2.48-3.57 2.86-5.24 5.72-5 2.86.23 4.77 2.61 4.29 6.19zm-8.58-.96c-.24 2.15.95 3.34 3.1 3.58 2.15.24 3.58-.71 3.81-2.86.24-2.15-.95-3.34-3.1-3.58-2.14-.23-3.33.72-3.81 2.86zM161.61 296.33h.24c0 .48 0 .48.24.72l8.1 2.86c.24 0 .48 0 .71-.47h.24l-1.91 5.72c-.95 2.38-2.38 3.58-4.05 3.1-1.43-.48-2.15-1.67-1.91-3.34l-3.34.72c-.95.24-1.43.24-1.43.71h-.24l1.19-3.33h.24v.47h.71l3.58-.71.71-1.91-3.1-1.19c-.24 0-.48 0-.71.48h-.24l.97-3.83zm4.53 4.53l-.95 2.62c-.48 1.43-.24 2.15.71 2.38.72.24 1.43-.24 1.91-1.43l.95-2.62-2.62-.95zM157.08 309.2c0 .48 0 .71.48.95l7.39 4.29c.24.24.48 0 .72-.24l.24.24-1.91 3.34-.24-.24c.24-.24.24-.48 0-.48-.24-.24-6.67.71-7.63.48l5.24 3.1c.24.24.48 0 .71-.24l.24.24-1.67 2.86-.24-.24c.24-.48 0-.48-.24-.72l-7.39-4.29c-.24-.24-.48 0-.71.24l-.24-.24 1.67-2.86.24.24c0 .24-.24.48 0 .48.24.24 6.44-.95 8.34-.72l-5.72-3.34c-.24-.24-.48-.24-.72.24l-.24-.24 1.68-2.85zM149.69 320.88c-.24.71-.24.95 0 1.19l6.67 5.24c.24.24.48.24.95-.24l.24.24-2.38 3.1-.24-.24c.48-.48.48-.71 0-.95l-6.67-5.24c-.24-.48-.48-.48-.95 0l-.24-.24 2.62-2.86zM145.64 325.65c0 .47 0 .71.24.95l3.1 8.34c.24.24.24.48.24.72 0 0 .24 0 .48-.24l.24.24-2.86 2.62-.24-.24c.24-.24.24-.47.24-.47s-.24-.24-.71-.48l-8.1-3.58c-.24-.24-.48-.24-.71 0l-.24-.24 2.38-2.14.24.24c-.24.24-.24.24-.24.48 0 0 .24 0 .24.24l1.67.72 3.1-2.86-.24-1.67c0-.24 0-.24-.24-.24 0-.24-.24-.24-.71 0l-.24-.24 2.36-2.15zm-2.39 7.62l3.81 1.91-1.67-4.05-2.14 2.14z"/><circle class="st3" cx="24.55" cy="294.9" r="1.67"/><path class="st3" d="M53.39 338.52c-.95 0-1.67.72-1.67 1.67s.71 1.67 1.67 1.67 1.67-.72 1.67-1.67c0-.96-.71-1.67-1.67-1.67zM72.46 349.24c-.95 0-1.67.71-1.67 1.67 0 .95.71 1.67 1.67 1.67s1.67-.71 1.67-1.67c-.24-.95-.95-1.67-1.67-1.67z"/><circle class="st3" cx="118.23" cy="350.2" r="1.67"/><path class="st3" d="M134.44 339.23c-.95 0-1.67.72-1.67 1.67s.71 1.67 1.67 1.67c.95 0 1.67-.72 1.67-1.67-.01-.95-.72-1.67-1.67-1.67z"/><circle class="st3" cx="142.54" cy="223.39" r="1.67"/><circle class="st3" cx="105.83" cy="207.18" r="1.67"/><path class="st3" d="M75.56 303h2.15c.24 0 1.67 0 2.62.24.24 0 .48.95 0 .95l-3.58-.24c-2.14-.23-1.19-.95-1.19-.95zM83.67 303.24c.71 0 6.91.71 7.15 1.19 0 0 .24.24 0 .48-.48.72-1.67-.48-5.96-.71-.95-.24-2.15 0-2.15-.48.48-.24.72-.24.96-.48zM70.79 253.66l-.48 1.43c0 .24-.95 0-.71-.24 0 0 .24-1.67.48-2.15h1.67c0-.24-.48-1.91-.48-1.91-.24 0-.48 2.15-.48 2.15h-.71s.48-3.57 1.19-3.57c.24 0 .48-.24.71 0 .24.48 1.67 5 1.67 5.48-.24.24-.95.48-.95 0 0 0 0-.95-.24-1.19-.48 0-1.19-.24-1.67 0zM75.56 267.01c-.24.72-1.67.24-2.38.24-2.38 0-5 .24-5-.24-.24-.95 2.86-.71 4.05-.71 1.42.23 3.57-.01 3.33.71zM79.14 267.01c-.24.48-.95.48-1.91.24-.24 0-.48 0-.48-.24 0-.71.95-.48 2.15-.48.24 0 .48.24.24.48zM83.67 267.25c-.24.24-2.86.48-2.86-.24-.24-.48.95-.71 2.15-.71 1.18.23.94.71.71.95zM92.25 268.92c-.24.24-3.1-1.19-4.29-1.43-.95-.24-1.67 0-2.38 0-.48 0-.24-.71.24-.71 1.42-.72 6.9 1.66 6.43 2.14zM74.13 271.54c-.24.48-1.67.24-2.38.24-2.38 0-3.34 0-3.34-.71s1.19-.24 2.38-.24c1.43-.01 3.58-.25 3.34.71zM80.09 271.54c-.24.71-1.67.24-2.62.24-2.38 0-2.38 0-2.38-.24 0-.48.24-.71 1.43-.71 1.66.23 3.81-.25 3.57.71zM84.14 271.54c-.24.48-.95.24-1.91.24-.24 0-.48 0-.48-.24 0-.71.95-.48 2.15-.48.24 0 .48.24.24.48zM92.25 273.44c-.24.72-1.43-.48-2.86-.95-.95-.24-3.1-.24-3.81-.48-.48 0-.48-.72 0-.72 2.85-.47 6.9 1.44 6.67 2.15zM92.72 277.97c0 .95-1.91-.24-3.1-.48-.95-.24-2.62-.24-4.05-.24-.48 0-.48-.71 0-.95.95.01 7.15.96 7.15 1.67zM83.19 276.78c-.24.48-1.19.24-2.15.24-.24 0-.48-.24-.71-.48 0-.48.48-.71 1.67-.71 1.43 0 1.43.71 1.19.95zM74.85 276.54c-.24.48-1.91.24-2.62 0-2.38-.48-4.05.71-4.29-.24 0-.72 2.15-.48 3.34-.48 1.66.01 4.04-.23 3.57.72zM78.9 276.54c-.24.48-.95.48-1.91.48-.24 0-.48 0-.72-.24 0-.72.95-.72 2.15-.72.48.01.72.25.48.48zM81.04 247.94c0 .71-1.67.24-2.86.48-2.38.24-2.62.48-2.38 0 .71-1.19 5.24-1.43 5.24-.48zM82.47 248.18c-.24 0-.24-.24 0-.72.95-.71 2.38 0 2.62.24.24.48-.24.71-.48.71-.23.01-1.66.01-2.14-.23zM92.01 250.56c-.24.24-1.91-.95-2.86-1.19-1.43-.48-2.86-.48-2.86-1.19 0-1.43 6.91 1.19 5.72 2.38zM80.57 257.71c-.24.24-1.43 0-2.38 0s-1.91.24-1.91-.24 1.19-.48 2.38-.48c1.19.01 2.38.01 1.91.72zM81.76 257.95c-.48 0-.24-.48 0-.72 1.19-.24 2.38 0 2.86 0s.24.72 0 .72h-2.86zM92.01 260.1c-.24.24-1.43-.48-2.38-.72s-1.43-.24-1.67-.48c-.48-.24-.24-.71 0-.71.23-.24 5 .95 4.05 1.91zM87 257.95c0 .71-.95.48-1.19.48s-.24-.48-.24-.72c.48-.47 1.43 0 1.43.24zM77.71 253.19c.24.71-.95.71-1.19.71s-.24-.48-.24-.71c.47-.48 1.19-.24 1.43 0zM79.61 253.42c-.24 0-.24-.48 0-.71.95-.48 3.58-.24 4.05 0 .71.48.24.95 0 .95l-4.05-.24zM89.62 254.62c-.24.24-2.15-.48-3.1-.48-.95 0-1.67-.24-1.67-.48 0-.72 1.67-.48 2.86-.24 1.44.24 2.63.48 1.91 1.2zM92.01 255.09c0 .72-.71.48-1.19.24-.24 0-.48-.48-.24-.71.47-.24 1.67.23 1.43.47zM68.65 261.53c1.43-.24 2.38 1.43.24 1.19-.72 0-.72-.24-.72-.48 0-.47 0-.71.48-.71zM78.9 262c-.24.71-3.1.48-4.05.48-2.38 0-3.1 0-3.34-.24 0-.72 1.19-.48 2.38-.48.96-.23 5.25-.71 5.01.24zM83.67 262.48l-1.43.24c-.95 0-1.67 0-1.67-.48 0-.72.95-.72 2.15-.72s1.18.48.95.96zM89.62 263.43c-.71.48-.95-.24-2.38-.48l-2.62-.24c-.48-.24-.24-.71.24-.95 2.86-.23 5.48 1.2 4.76 1.67zM91.77 264.39c0 .71-.48.71-1.19.24-.24 0-.48-.48-.24-.71.47-.25 1.19-.01 1.43.47zM91.77 282.5c-.24.71-2.38-.48-4.05-.48h-1.67c-.48 0-.48-.71 0-.95 1.67-.24 5.96.48 5.72 1.43zM81.52 281.55c-.24.47-.95.24-1.91.24-.24 0-1.43.24-1.91 0-.24-.71 1.67-.71 2.15-.71 1.43-.25 1.91.23 1.67.47zM75.32 281.55c-.24.47-3.34 0-4.29 0-1.67 0-2.86.47-2.86-.48.24-.72 3.1-.24 3.81-.24 1.67 0 3.82-.23 3.34.72zM84.62 281.07c.24.71-.95.71-1.19.71s-.24-.48-.24-.71c.24-.24 1.19-.24 1.43 0zM102.73 247.94c1.43 0 1.43.24 1.43.71-.24.24-1.91.24-2.38.24-1.67 0-2.38.95-2.86.95-.71-.24-.24-.72.48-1.19.47-.23 1.66-.71 3.33-.71zM106.07 247.94s1.91 0 2.38.24c.48.24.48.71.24.95 0 .24-2.86-.24-2.86-.24-.24 0-.24-.24-.24-.48s0-.47.48-.47zM123 248.18c.48 0 .71.95.24 1.19-1.91.24-2.38.24-2.38 0-.73-1.43 2.14-1.19 2.14-1.19zM115.84 248.65s2.38 0 2.86.24c.24 0 .48.48.24.95-.24.24-3.1.24-3.34-.72 0-.23-.23-.47.24-.47zM110.84 248.42s1.91.24 2.38.24c.24 0 .71.24.48.71-.24.24-3.1.24-3.34-.71.24.23 0-.24.48-.24zM105.83 253.19c.24-.71 1.91-.48 2.38-.24v.48c-1.19.71-2.62.23-2.38-.24zM110.6 253.42c.48-.48 2.62 0 1.91.72-.24 0-1.67.24-2.15 0 0 .24-.24-.24.24-.72zM117.75 253.9c.71.95-1.91.95-2.15.95s-.95-.24-.95-.48c0-.95 2.62-1.18 3.1-.47zM123.23 253.42c.48 1.19-1.67.95-1.91.95s-.95 0-.95-.24c-.24-.94 2.63-1.42 2.86-.71zM102.73 252.47c.48 0 1.67 0 1.67.72-.48.71-2.62.48-3.1.71-1.91.24-2.38.95-2.86.95-.71-.24-.24-.71.48-1.19.48-.47 2.38-1.19 3.81-1.19zM112.03 257.95c0 .48-.24.48-.24.71-.24.24-2.15.24-2.38-.48 0 0 0-.71.71-.48.48.01 1.91-.46 1.91.25zM114.17 257.71c.24 0 3.58 0 2.62.95-.24.24-.48.24-.71.24-.95 0-2.38-.24-2.62-.24-.24-.24-.24-.24 0-.71l.71-.24zM118.7 257.71c2.38.48 4.29-.24 4.53.24.24.48 0 .71 0 .71-.24.24-5.01.48-5.24-.48 0-.23.47-.47.71-.47zM107.74 257.71c.48.95-1.19.72-1.43.72s-.72-.24-.72-.48c-.24-.95 1.67-.95 2.15-.24zM102.02 257c.48 0 1.43-.24 1.67.48-.48.95-1.43.48-3.1.71-1.91.24-1.91.95-2.38.48-.48-.48 0-.71.71-.95.71-.48 1.67-.72 3.1-.72zM104.64 262c.24 0 .95 0 1.19.48.24.24.24.48 0 .71-2.38.24-2.38-.24-2.38-.24 0-1.18.95-1.18 1.19-.95zM123.23 262.24c1.19.48-.71 1.19-1.91.71 0 0-.24-.24-.48-.24-.23-.47 1.92-.71 2.39-.47zM109.65 262c.71.24.71.95 0 1.19-.24 0-2.38.48-2.62-.24.23-1.42 2.38-1.18 2.62-.95zM119.9 262.48c.24.71-.48.71-1.19.71s-3.1.24-3.1-.48c0-.48.95-.24 1.43-.24.71-.23 2.86-.23 2.86.01zM114.17 262.96c-.24.48-2.62.24-2.38-.48 0-.24 2.62-.71 2.38.48zM100.83 261.53c.48 0 1.43 0 1.67.72-.72.71-1.43.24-3.1.48-1.43.24-1.67.72-1.67-.24 0-.49 1.67-.96 3.1-.96zM104.16 266.53s1.91-.24 2.62 0c.24 0 .48.48.24.71-.24.24-3.1.48-3.1-.48l.24-.23zM109.17 267.01c.71-.24 2.86.24 1.91 1.19-.24.24-1.91 0-2.38-.48-.01.01-.24-.47.47-.71zM113.22 267.01c.48-.24 2.38.24 1.67.95-.24.24-1.43.24-1.91 0 0 0-.23-.71.24-.95zM118.94 267.49c-.71 0-1.67.24-1.67.72s.48.24 2.15.24c.71 0 2.86.24 3.34.24.48-.24.72-.71.48-.71-1.44-.25-2.63-.73-4.3-.49zM101.06 266.53c.48 0 1.43-.24 1.43.48-.48.72-1.43.48-2.86.72s-1.67.48-1.67-.24c-.23-.24 1.67-.96 3.1-.96zM104.88 272.25h1.19c.48 0 .24.71.24.71 0 .24-.95.24-1.67.24-.24 0-.95-.24-.95-.71 0-.24.71-.24 1.19-.24zM108.69 272.25c.24 0 3.34 0 2.38.71 0 0-.48.24-.72.24-.71 0-2.15 0-2.38-.24-.24 0-.24-.24 0-.48.25.01.49.01.72-.23zM113.22 272.49c.48-.24 2.62.48 1.67 1.19-.24 0-1.67 0-2.15-.48.24.01.01-.47.48-.71zM117.51 272.97c.24 0 3.57 0 2.62.95-.24.24-.48.24-.71.24-.95 0-2.38-.24-2.62-.24-.24-.24-.24-.48 0-.71.24-.24.47-.24.71-.24zM100.83 272.02c.71 0 1.67-.24 1.67.48-.48.71-.95.48-2.62.71-1.43.24-1.67.48-1.67-.24 0-.48 1.19-.72 2.62-.95zM121.8 273.21c.48-.24 2.38.24 1.67.95-.24.24-1.43.24-1.91 0 0-.24-.23-.72.24-.95zM110.6 277.73c.24 0 3.34 0 2.38.72 0 0-.48.24-.71.24-.71 0-2.15 0-2.38-.24v-.48c.23-.24.47-.24.71-.24zM115.6 278.21c.95 0 2.62.24 2.62.95 0 .48-.71 0-.95 0-.71 0-2.86.24-2.62-.71 0-.24.72-.24.95-.24zM119.42 279.17c0 .48 2.38 1.19 2.38.48 0-.48-2.14-1.68-2.38-.48zM107.98 277.5s-1.67-.48-2.38-.24c-.24 0-.48.48-.24.72s2.86.71 2.86 0c0-.01.24-.25-.24-.48zM101.78 277.26c.48 0 2.62 0 2.62.95-.24.72-1.91 0-4.05.24-1.43.24-1.67.48-1.67-.24 0-.71 1.67-.95 3.1-.95zM106.79 282.27c.71-.24 3.1.24 2.15.95-.24.24-1.91 0-2.38-.24-.25-.24-.49-.48.23-.71zM111.55 282.74c.48-.24 2.38.24 1.67.95-.24.24-1.43 0-1.91-.24 0 .01-.23-.47.24-.71zM117.51 283.7c.48.95-1.43.71-1.67.71s-.71-.24-.71-.47c0-.96 2.14-.72 2.38-.24zM118.94 284.41c0 .48 1.43.95 1.43 0 0-.24-1.19-1.19-1.43 0zM98.92 282.5c.24 0 5.72-.72 5.48.24 0 .24.24.47-2.86.47-.71 0-2.86.48-3.1.24 0-.23-.47-.71.48-.95zM105.12 291.32s1.91-.24 2.62.24c.24 0 .48.48.24.72s-3.1.24-3.1-.72c0 .24-.24 0 .24-.24zM110.6 292.04c.24 0 3.34.24 2.38.95l-.71.24c-.71 0-2.15-.24-2.38-.48v-.48l.71-.23zM116.08 293.71c-.71-.24-2.15-.48-1.91-.95s.95 0 1.43 0c1.67-.25 1.91 1.18.48.95zM120.37 294.18c-.71 0-2.15-.24-2.15-.96 0-.48.71 0 1.19-.24 2.39-.47 2.63 1.2.96 1.2zM102.73 291.8c0 .48-.71.48-2.15.48-1.43 0-2.38 1.19-2.86.24-.24-.24.24-.48.95-.95.73-.25 4.06-.49 4.06.23zM106.07 286.79c.24 0 2.38 0 1.67.72 0 0-.24.24-.48.24-.48 0-1.67 0-1.67-.24v-.48c.24-.24.24-.24.48-.24zM109.65 287.03c.48-.24 3.81.24 2.86 1.43-.24 0-2.62-.24-3.1-.48-.24-.23-.48-.71.24-.95zM116.56 287.98c.48 0 2.86.48 2.86 1.19 0 .24-.71.24-1.19 0-1.19-.24-1.91-.47-3.1-.47-.48 0-.48-.48-.24-.72 0-.23 1.43 0 1.67 0zM103.69 287.27c0 .96-1.19.48-2.62.48-1.43 0-2.38.95-2.86.24 0-.24.24-.48.95-.95.71-.25 4.53-.49 4.53.23zM118.7 296.8c.24 0 3.57.24 2.62 1.19-.24.24-.48.24-.72.24-.95 0-2.38-.24-2.62-.48-.24-.24 0-.48 0-.71.25 0 .48 0 .72-.24zM116.56 297.52c-.24.48-2.62 0-2.38-.71.23-.24 2.62-.48 2.38.71zM110.36 296.09c.24 0 3.1.24 2.38.95 0 0-.48.24-.72.24-.71 0-2.15-.24-2.38-.48v-.48c.48.01.48-.23.72-.23zM107.5 296.09c.48.95-1.19.71-1.43.71s-.71-.24-.71-.48c-.01-.94 1.66-.94 2.14-.23zM101.06 295.61c.48 0 1.67-.24 1.67.48-.48.71-1.43.48-2.86.71-1.43.24-1.67.48-1.67-.24-.23-.47 1.43-.95 2.86-.95zM98.68 300.38s1.67-.48 2.62-.24c.24 0 .48.24.24.71-.71 0-2.62.24-2.86.48 0 0-.24-.71 0-.95zM78.66 285.6c.95-.24 2.86.95.71.95h-1.43c-.95-.71.48-.95.72-.95zM76.04 286.08c0 .48-2.38.48-4.29.24-2.15-.24-3.58 0-3.58-.48.24-.71 2.38-.24 3.34-.24 1.67.24 4.53-.48 4.53.48zM88.91 287.03c-.24.95-3.34-.24-5.01-.24h-2.15c-.48 0-.48-.71 0-.95 1.2-.48 7.16.48 7.16 1.19zM91.77 288.7c-.24.47-.71 0-1.43-.24-.24 0-.71-.24-.48-.71.48-.48 1.19 0 1.43 0 .48.47.72.71.48.95zM86.05 296.33c0 .72-3.57-.24-5-.47h-2.86c-.48 0-.48-.95 0-.95 1.66-.25 7.86.47 7.86 1.42zM76.27 295.61c0 .48-2.15.24-4.29.24-3.58 0-3.81-.24-3.58-.72.24-.71 2.15-.47 3.34-.71 1.68.24 4.53 0 4.53 1.19zM92.01 298.23c-.24.47-1.43-.48-2.38-.48-.24 0-1.43 0-1.19-.71 0-.72.71-.48 1.91-.24 1.18.24 2.13.96 1.66 1.43zM88.91 292.04c-.24 1.19-1.43-.24-5.01-.24h-2.15c-.48 0-.48-.71 0-.95 1.68-.48 7.16.23 7.16 1.19zM78.9 290.37c.95-.24 2.86.95.71.95h-1.67c-.71-.71.72-.95.96-.95zM76.04 290.61c0 .71-3.81.24-4.77.24-2.15-.24-3.1.24-3.1-.72.24-.72 2.38-.24 3.34-.24 1.67.24 4.53-.24 4.53.72zM91.05 292.51c.95.24 2.15 2.15 0 1.19l-1.43-.71c-.24-1.19 1.19-.71 1.43-.48zM91.53 309.2c.24 0 .48 0 .24.71-.24.48-6.2-.48-6.44-.71-.71 0-.48-.24-.48-.71.24-.24.71-.24.71-.24.01-.24 5.97.71 5.97.95zM82.71 308.48c-.24.24-2.86.48-2.62-.24 0-.71.72-.24 1.67-.24 1.43-.23 1.19.01.95.48zM101.54 308.25c.48 0 .95-.24.95.48-.24.48-.95.24-2.38.71-1.43.24-1.67.72-1.67-.24 0-.24 1.67-.72 3.1-.95zM101.54 303.96c.48 0 1.19-.24 1.19.48-.24.24-1.19.24-2.62.48-1.43.24-1.67.72-1.67 0 0-.25 1.67-.96 3.1-.96zM68.65 248.42v7.62c0-.24-.24-4.29-.24-4.29v-2.38s0-.95.24-.95c1.19-.24 4.77-.71 5.72-.24.24 0 .24 1.19.24 2.62 0 2.15-.24 4.77-.24 5.01 0 .24-1.43.24-2.62.48 1.19 0 2.62-.24 2.62-.48s.24-2.86.24-5.01c0-1.43 0-2.62-.24-2.62-1.19-.48-4.53 0-5.72.24zm0 0zm0 7.86h2.86-2.86zM68.41 248.18c-.48 0-.48.24-.48 3.81v4.529999999999999c0 .71.95.71 1.67.48h2.38c2.38 0 2.62 0 2.86-.48v-4.53c0-3.81-.24-4.05-.48-4.29-1.18-.47-5 .24-5.95.48zm5.48.47v3.34l.24 2.86v.71h-4.999999999999999v-7.15c1.19.24 4.29.01 4.76.24zM179.01 275.11c-.71-4.53-.95-8.34-.95-11.44 0-3.1-.24-5.48-.95-6.91l-6.67-16.45c-1.43-4.77-13.11-18.59-13.59-19.31-1.43-2.15-9.3-8.1-11.44-9.3l-8.82-5.96c-3.58-2.62-9.3-4.77-14.06-6.44l-5.72-1.67c-6.91-2.38-17.88-2.62-19.31-2.62h-3.81c-1.43 0-12.39.24-18.83 2.62l-4.05 1.43c-5.24 1.43-10.01 2.86-13.59 5.48 0 0-9.77 6.91-10.25 7.15-2.15 1.19-12.4 8.58-13.59 10.49-.48.72-11.2 13.35-12.4 18.12l-6.92 16.7c-.71 1.43-.71 4.05-.71 7.39 0 3.1-.48 6.44-1.19 10.97-.72 3.57-.24 6.67.24 10.49.48 3.81.71 8.34 1.43 11.68.48 2.86 1.43 5.24 1.43 7.15.95 4.53 3.34 10.49 4.29 12.16.95 1.19 2.38 3.33 2.38 3.33 1.43 1.91 3.1 4.05 4.05 5.72.95 1.67 1.43 2.62 2.15 4.05 1.19 1.91 2.15 3.81 3.34 5.24 1.19 1.67 2.38 3.1 4.05 4.29.48.24 4.05 2.86 5.72 4.05 2.15 1.43 2.86 1.91 3.1 2.14l1.19 1.19c3.58 3.57 6.2 6.44 8.58 7.63.95.48 3.1 1.19 3.81 1.19.72 0 1.43-.24 1.91-.48.95-.48 1.67-1.43 1.91-3.1 0-.24.48-1.19.95-2.38.72.24 1.67 1.19 2.38 1.91l-.48 1.67c-.48 1.43-.24 2.86.71 4.05 3.81 5 17.88 6.91 30.27 6.44 12.87.47 28.6-3.34 30.75-8.34.48-.95.24-1.91-.48-2.62-.24-.24-.48-.48-.48-.72s.24-.24.48-.48c.48-.24 1.19 0 1.67 0 .48.95 1.19 1.91 1.67 3.1.24.48.72.72 1.19.95 3.81.71 15.73-9.77 15.73-10.01.48-.48 2.62-2.38 4.77-3.58 1.67-1.19 3.34-2.14 3.81-2.62 3.34-2.62 5.72-5.72 7.87-9.53 1.67-2.86 3.34-5.96 6.2-9.77l.24-.24c2.62-3.58 5.96-10.25 6.67-15.25.24-1.91.72-4.29 1.19-7.15 1.68-6.91 3.35-15.25 2.16-22.41zm-112.98 74.85c-.48-.47-1.43-1.19-2.38-1.43 2.62-5.96 3.57-8.82 3.81-10.25v-.72l-.48-.95c-.24-.48-1.19-1.67-1.19-2.38 0-1.19.48-.95.95-.95.48 0 2.86.48 4.53 1.43 1.19.48 2.15 1.91 2.62 2.38.24.24.24.71-.24.95-.24.24-.48.48-1.19.72s-1.91 1.19-2.15 1.43c-1.43.71-2.38 3.1-3.81 7.63v.24l-.48 1.43c.25-.01.01.23.01.47zm-1.43-14.54c-.95-.48-1.67-.95-2.86-1.67-1.67-1.19-5.96-4.53-7.87-5.72-1.19-.72-1.43-1.43-2.86-3.1-1.19-1.43-2.62-2.86-3.81-3.57-1.67-1.19-4.29-5.24-5.24-6.91-3.1-5.01-8.1-15.02-9.3-24.79-.24-1.19-.24-4.53-.24-7.39 0-2.38 0-4.53-.24-5.48.24-1.91.71-7.39 1.19-8.82.48-.95.71-3.1.95-4.77.24-1.43.71-3.57.95-4.29 0 0 1.43-4.05 2.38-5.72l4.53-8.34s2.38-4.77 4.05-6.67l1.67-1.91c1.91-1.91 3.81-4.05 5.48-5.48 2.86-2.15 7.39-5.24 11.44-7.15l5.48-2.62c1.91-.95 2.86-1.43 4.53-1.91 0 0 10.96-3.58 18.12-3.81-.71 1.67-1.19 3.1-1.43 3.57 0 0-1.67.24-4.05.48-1.19 0-5 .71-5 .71 2.62 4.05 5 6.44 5.96 7.63 0 0-1.43 7.63-1.19 8.58.24 0 4.05-2.15 5.48-2.86 1.43-.71 2.86-1.19 3.1-1.19 0 0 3.81 1.67 4.77 2.15 2.15 1.19 3.58 1.91 4.05 2.15 0 0-1.91-8.1-1.91-8.58 0 0 .95-.95 1.67-1.91 1.19-1.43 2.15-2.38 2.86-3.1.71-.95 2.15-2.38 2.15-2.38s-8.82-.95-9.3-1.19c0 0-.95-1.91-1.43-3.57 1.67 0 2.86.24 5 .71 5.24.95 11.2 3.1 13.59 4.05 0 0 2.15.95 2.38.95l3.81 1.67c2.38 1.43 4.77 2.62 5.48 3.34l1.43.95c2.62 1.91 8.58 5.72 9.53 7.39l1.43 1.91c.95 1.19 1.43 2.62 1.91 3.58.71 2.15 2.86 4.53 4.53 6.67 1.19 1.67 2.62 3.1 3.34 4.29 0 0 2.38 3.34 2.86 6.44.71 3.81 1.67 9.77 2.15 11.68 2.86 9.53 1.91 14.54.95 19.55-.24 1.43-1.19 3.57-1.19 5.01-.24 1.67-.48 3.57-1.43 5.96l-1.67 3.81c-.48 1.67-1.19 3.58-2.15 5.01-.48.48-1.19 1.67-2.15 3.34-2.38 3.81-6.2 9.77-9.3 13.82-.95 1.19-3.81 3.58-5.96 5.24-1.43 1.19-2.62 2.14-3.1 2.62-.95.95-2.62 2.15-4.29 3.34v-1.19c-.24-.48-.48-1.19-1.67-1.43s-2.38.24-3.81.95c-1.19.48-2.38.95-4.29 2.62-.71.72-1.67 1.67-1.43 2.38.24.72.95 1.19 1.67 1.67-3.81 1.19-7.39 2.15-8.82 2.62-.95.24-4.05 1.19-5.96 1.43-2.15.48-4.53.71-5.72.71-4.53 0-11.2-1.67-12.63-2.38-3.1-1.19-7.39-2.86-10.01-3.33h.24c1.19-.48 1.91-1.19 2.15-1.91 0-.48 0-1.19-.72-2.14-.71-.95-2.15-1.91-3.34-2.62-.24-.24-3.34-1.19-4.53-1.43-.95 0-1.43 0-1.91.24-.48-.72-.71-.24-.71.47.02.45.02.92.26 1.64zm31.46-112.27c-.95-.71-3.1-4.29-3.1-4.29 0-.48 3.1-6.91 3.1-6.91.24 1.19.24 3.34.24 5.72-.24 2.14-.48 4.53-.24 5.48zm-10.96-2.38c.95.24 3.81 1.19 3.81 1.19 2.15.71 4.05 1.67 6.2 2.15-.24.71-.95 1.91-.95 1.91s-4.77 7.39-5.01 7.87l1.43-7.63c-.48-.49-3.58-3.11-5.48-5.49zm19.78 2.14c0 .24-1.91 2.38-1.91 2.38-.24 0-5.72-1.19-6.2-1.43 0 0 2.15-4.05 3.1-4.53l7.87.71c-.72.24-2.86.72-4.77 1.43-2.38.95-4.53 1.67-4.53 1.67s5.72.01 6.44-.23zm-1.91 10.97c-.72-.24-5.72-3.1-5.72-3.1-.24-.24-.95-5.72-.95-6.67l6.67 9.77zm22.65 120.85c-1.43 3.1-14.54 8.1-27.89 7.63-13.83.48-27.65-1.67-30.51-5.48-.48-.48-.71-1.91-.71-2.62 0-.24 0-.48.24-.72l.71-2.38v-.24c1.19-4.29 2.62-9.3 3.81-9.53.95 0 .95-.72 6.44 1.43 1.91.95 12.4 4.05 14.54 4.29 1.67 0 7.39 0 9.77-.48 1.91-.24 3.34-.95 4.29-.95 1.91-.24 11.68-3.1 13.35-3.58h.24c.48.48.71 1.43.95 2.62l.24.95.72 1.91.24.48c.24.48.48.95.48 1.43l.24.72.72 1.43.48.71.24.48 1.19 1.67.22.23zm.23-4.29l-.71.48c-.48-.95-.95-1.91-1.19-2.86 0-.24 0-.24-.24-.48l-.48-1.19-.24-.95c0-.24-.24-.48-.24-.48-.71-2.38-1.19-4.29-2.62-4.77h-.72c-1.43 0-3.1-.72-3.34-1.19 0 0 0-.72.24-.95 1.43-1.43 2.38-2.38 3.34-2.62.71-.24 2.38-1.19 4.05-.72.48 0 .48.72.48.72v.24c0 .72-.71 1.67-1.19 2.38-.95.72-1.19 1.43-1.19 2.38 0 1.43.95 2.86 2.38 5.24.71 1.19 1.67 2.62 2.62 4.29-.23.24-.47.24-.95.48zm49.58-53.4c-.72 2.86-1.19 5.48-1.19 7.39-.72 6.91-3.1 10.25-6.2 14.3l-.24.24c-2.86 3.82-4.77 7.15-6.2 10.01-2.15 3.82-3.81 6.67-6.91 9.06-.48.24-1.91 1.43-3.57 2.38-3.1 1.91-5.01 3.34-5.48 3.82-3.1 2.86-12.63 10.01-14.3 9.53-2.15-4.05-3.81-6.91-5.24-9.06-1.43-2.38-2.15-3.58-2.15-4.29 0-.47.24-.72.72-1.19.48-.24 4.29-3.33 6.2-5 .48-.48 2.62-1.67 3.81-2.86 2.38-1.91 6.2-6.44 7.39-7.87 3.34-4.05 5-7.15 7.63-10.96.95-1.67 2.62-4.29 2.86-4.77 1.19-1.67 1.67-2.86 2.15-4.77.24-.95.95-2.15 1.43-3.1 1.19-2.38 1.67-5.24 1.67-7.15.24-1.43 0-1.91.48-3.33.71-2.62 1.67-6.67 1.67-10.49 0-3.1-.48-5.72-1.91-10.25-.48-1.67-1.67-7.87-2.15-11.68-.48-3.34-2.86-7.87-2.86-7.87-.95-1.43-2.38-2.86-3.81-4.53-1.91-2.15-3.34-4.53-4.05-6.44-.48-1.43-1.67-2.62-2.62-3.81l-1.43-1.43c-.95-1.67-5-4.53-9.06-7.39l-1.19-.95c-.95-.71-3.57-2.15-6.44-3.58l-3.58-1.91-2.38-.95c-2.62-.95-9.06-3.1-11.44-3.58-2.62-.48-4.77-.71-8.34-.95-.24-.48-.24-.72-.48-.95-.24-.71-1.19-2.38-1.43-3.34-.71.48-1.67 2.38-2.62 4.53-7.39.48-17.64 3.34-18.35 3.58-1.91.48-2.86 1.19-5 2.15l-7.87 3.81c-5.24 2.38-7.87 4.77-9.3 5.96-1.91 1.43-3.34 2.62-5.24 4.53l-1.67 1.43c-1.91 1.91-5.24 8.58-5.48 8.82l-3.1 5.24c-.95 1.91-4.05 9.77-4.05 9.77-.24.71-.71 2.38-.95 3.81-.48 1.67-.95 3.34-1.19 4.29-.48 6.2-.71 9.06-.95 9.77 0 .95-.24 3.1-.24 5.01 0 3.1 0 6.2.24 7.63.48 5.72 3.81 15.49 7.15 20.74.24.24 2.38 5.48 8.34 12.16.95.95 3.1 2.86 4.29 4.29 1.67 1.67 2.15 2.38 3.57 3.33 1.91 1.19 3.58 2.38 5.24 3.58 1.91 1.43 3.81 2.86 5.96 4.05v.72c0 .24-.24.48-.24.95v.24c-.24.24-.24.72-.48 1.19v.24l-.48 1.19c0 .24 0 .24-.24.47-.24.48-.24.95-.48 1.19l-.24.72-.24.72-.24.72c0 .24-.24.48-.24.48-.24.71-.48 1.19-.71 1.67v.48c-.95 1.91-1.19 2.62-1.19 2.86-.24.95-.48 1.67-1.19 1.91-.71.48-1.43.72-2.86.24-1.91-.72-3.58-2.38-5.48-4.05l-4.29-4.05-2.16-1.69c-.48-.47-1.67-1.43-4.77-3.33-.71-.48-1.43-.71-2.15-1.19-.71-.48-2.38-2.14-2.62-2.38-3.1-2.38-3.57-4.29-5.72-7.87-1.67-2.86-3.81-6.91-4.77-7.87l-1.91-2.38c-3.1-4.05-5.48-7.39-6.2-14.3-.24-1.91-.95-3.58-1.43-6.43-.24-1.43-.48-3.58-.71-5.01-1.19-5.72-1.91-11.92-.95-17.4.71-4.53.71-7.63.71-10.73 0-2.86.24-5.01.72-5.96l.24-.95 5.96-15.49c.71-2.38 5.48-10.01 7.15-12.4 1.91-2.62 6.67-7.63 6.67-7.87.95-1.43 8.82-6.91 11.2-8.34l10.25-7.15c3.81-3.1 10.25-5.01 15.02-6.44l3.34-1.19c6.67-2.38 16.45-3.1 17.64-3.1h4.05c1.43 0 12.87.71 19.55 3.1l4.29.95c4.77 1.43 10.25 3.81 13.59 6.2l10.96 7.39c-1.43-.71 9.3 5.24 11.44 9.06.24.24 11.92 14.78 13.11 19.31l5.72 14.54c.48.95.72 4.05.72 6.91 0 3.1.71 7.39 1.43 11.92 1.67 6.9-.48 14.77-1.91 21.44zM91.53 300.86c-.24.72-3.34-.71-4.77-.71-.95 0-3.81-.24-4.05-.24-.48 0-.71-.71-.24-.71 1.43-.25 9.06.94 9.06 1.66zM75.8 299.67h-3.34c-3.58 0-3.81 0-3.58-.48.24-.71 2.38-.24 3.34-.48 1.67 0 3.58-.24 3.58.96zM77.94 299.43c.24-.24 2.38-.48 2.15.24 0 .71-.24.48-1.43.24-1.19-.01-.95-.24-.72-.48zM95.58 192.16c-.95 0-1.67-.71-1.67-1.67 0-.95.71-1.67 1.67-1.67s1.67.71 1.67 1.67c.24.96-.71 1.67-1.67 1.67zM89.62 192.16c-.95 0-1.67-.71-1.67-1.67 0-.95.71-1.67 1.67-1.67.95 0 1.67.71 1.91 1.67-.24.96-.95 1.67-1.91 1.67zM83.67 192.88c-.95.24-1.67-.48-1.91-1.43s.48-1.67 1.43-1.91 1.67.48 1.91 1.43c.23.95-.48 1.67-1.43 1.91zM77.71 193.83c-.95.24-1.91-.48-1.91-1.43-.24-.95.48-1.91 1.43-1.91.95-.24 1.91.48 1.91 1.43 0 .72-.48 1.67-1.43 1.91zM71.75 195.26c-.95.24-1.91-.24-2.15-1.19s.24-1.91 1.19-2.15 1.91.24 2.15 1.19c.24.96-.24 1.91-1.19 2.15zM66.03 196.93c-.95.24-1.91-.24-2.15-.95-.24-.95.24-1.91.95-2.15.95-.24 1.91.24 2.15.95.48.96 0 1.91-.95 2.15zM60.31 199.31c-.95.48-1.91 0-2.15-.95-.48-.95 0-1.91.95-2.15.95-.48 1.91 0 2.15.95.47.72 0 1.68-.95 2.15zM54.82 201.7c-.95.48-1.91 0-2.15-.72-.48-.71-.24-1.91.72-2.38s1.91 0 2.38.71c.25.96.01 2.15-.95 2.39zM49.58 204.8c-.72.48-1.91.24-2.38-.48-.48-.71-.24-1.91.48-2.38.72-.48 1.91-.24 2.38.48.71.71.47 1.9-.48 2.38zM44.57 208.13c-.72.48-1.91.48-2.38-.48-.48-.72-.48-1.91.48-2.38.71-.48 1.91-.48 2.38.48.48.71.24 1.67-.48 2.38zM39.81 211.71c-.72.48-1.67.48-2.38-.24-.48-.72-.48-1.67.24-2.38.71-.71 1.67-.48 2.38.24.47.71.47 1.9-.24 2.38zM35.04 215.76c-.71.71-1.67.71-2.38 0-.71-.72-.71-1.67 0-2.38.72-.71 1.67-.71 2.38 0s.71 1.67 0 2.38zM30.75 220.05c-.71.72-1.67.72-2.38 0-.72-.71-.72-1.67 0-2.38.71-.71 1.67-.71 2.38 0s.71 1.67 0 2.38zM26.94 224.58c-.48.71-1.67.71-2.38.24-.71-.48-.95-1.67-.24-2.38.48-.71 1.67-.71 2.38-.24.71.71.71 1.67.24 2.38zM23.12 229.35c-.48.71-1.67.95-2.38.48-.71-.48-.95-1.67-.48-2.38.48-.71 1.67-.95 2.38-.48.96.71 1.2 1.66.48 2.38zM19.78 234.35c-.48.71-1.43.95-2.38.48-.71-.48-.95-1.43-.48-2.38.48-.72 1.43-.95 2.38-.48.72.72.96 1.67.48 2.38zM16.92 239.84c-.48.95-1.43 1.19-2.15.71-.71-.48-1.19-1.43-.71-2.15.48-.95 1.43-1.19 2.38-.71.72.24.96 1.19.48 2.15zM14.3 245.32c-.48.95-1.43 1.19-2.15.95-.95-.48-1.19-1.43-.95-2.15.48-.95 1.43-1.19 2.15-.95.95.24 1.43 1.2.95 2.15zM12.16 250.8c-.24.95-1.19 1.43-2.14.95-.95-.24-1.43-1.19-.95-2.15.24-.95 1.19-1.43 2.15-.95.7.24 1.18 1.2.94 2.15zM10.25 256.52c-.24.95-1.19 1.43-2.15 1.19-.71-.24-1.19-.95-.95-1.91.24-.95 1.19-1.43 2.15-1.19.71.24 1.19 1.2.95 1.91zM8.82 262.48c0 .95-.95 1.43-1.91 1.43-.95-.24-1.43-.95-1.43-1.91.24-.95.95-1.43 1.91-1.43 1.19.24 1.67.96 1.43 1.91zM7.87 268.44c-.24.95-.95 1.67-1.91 1.43-.95 0-1.67-.95-1.43-1.91.24-.95.95-1.67 1.91-1.43.95.24 1.66.96 1.43 1.91zM7.39 274.64c0 .95-.95 1.67-1.67 1.67-.95 0-1.67-.72-1.67-1.67s.95-1.67 1.91-1.67c.71-.24 1.43.71 1.43 1.67zM7.15 280.6c0 .95-.71 1.67-1.67 1.67-.95 0-1.67-.72-1.67-1.67s.71-1.67 1.67-1.67 1.67.71 1.67 1.67zM7.39 286.55c0 .95-.72 1.67-1.43 1.91-.95 0-1.67-.72-1.91-1.43 0-.95.72-1.67 1.67-1.91.95 0 1.67.72 1.67 1.43zM8.1 292.75c.24.95-.48 1.67-1.43 1.91-.95.23-1.67-.48-1.91-1.43s.48-1.67 1.43-1.91c.96-.24 1.68.48 1.91 1.43zM9.3 298.71c.24.95-.48 1.91-1.19 1.91-.95.24-1.91-.24-1.91-1.19-.48-.95 0-1.91.95-2.14.96-.25 1.91.47 2.15 1.42zM10.73 304.43c.24.96-.24 1.91-1.19 2.15s-1.91-.24-2.15-1.19.24-1.67 1.19-2.15c.96-.24 1.91.24 2.15 1.19zM12.63 310.15c.24.95-.24 1.91-.95 2.15-.95.24-1.91 0-2.15-.95-.48-.71 0-1.67.95-2.15.72-.24 1.68.24 2.15.95zM14.78 315.87c.48.95 0 1.91-.95 2.15-.95.48-1.91 0-2.15-.95-.48-.95 0-1.91.95-2.14.72-.25 1.91-.01 2.15.94zM17.4 321.36c.48.95.24 1.91-.71 2.38-.71.48-1.91.24-2.38-.71-.48-.72-.24-1.91.72-2.38.94-.49 2.13-.25 2.37.71zM20.5 326.6c.48.72.24 1.91-.48 2.38-.71.48-1.91.24-2.38-.48-.48-.72-.24-1.91.48-2.38.95-.71 1.9-.47 2.38.48zM23.84 331.61c.48.71.48 1.91-.48 2.38-.71.48-1.91.48-2.38-.48-.48-.71-.48-1.91.48-2.38.95-.48 1.9-.24 2.38.48zM27.65 336.37c.72.72.48 1.67-.24 2.38s-1.67.48-2.38-.24-.48-1.67.24-2.38c.71-.71 1.67-.47 2.38.24zM31.7 340.9c.71.71.71 1.67 0 2.38-.72.71-1.67.71-2.38 0s-.71-1.67 0-2.38 1.67-.71 2.38 0zM35.99 344.95c.71.72.71 1.67 0 2.38-.72.71-1.67.71-2.38.24-.71-.71-.71-1.67-.24-2.38.95-.71 1.91-.71 2.62-.24zM40.76 349.01c.72.48.95 1.67.24 2.38-.48.72-1.67.95-2.38.24-.72-.48-.95-1.67-.24-2.38.47-.72 1.66-.96 2.38-.24zM45.53 352.58c.72.48.95 1.67.48 2.38s-1.67.95-2.38.48c-.72-.48-.95-1.67-.48-2.38.71-.72 1.66-.96 2.38-.48zM50.53 355.92c.71.48.95 1.43.71 2.38-.48.72-1.43 1.19-2.38.72-.72-.48-1.19-1.43-.72-2.38.72-.96 1.68-1.2 2.39-.72zM56.02 358.78c.95.48 1.19 1.43.71 2.15-.48.95-1.43 1.19-2.15.71-.95-.48-1.19-1.43-.71-2.15.24-.95 1.19-1.19 2.15-.71zM61.5 361.16c.95.48 1.19 1.43.95 2.15-.24.95-1.43 1.19-2.15.95-.95-.47-1.19-1.43-.95-2.14.24-.96 1.19-1.2 2.15-.96zM67.22 363.31c.95.24 1.43 1.19.95 2.14-.24.96-1.19 1.43-2.15.96-.95-.24-1.43-1.19-.95-2.15.24-.71 1.2-1.19 2.15-.95zM72.94 364.98c.95.24 1.43 1.19 1.19 2.14-.24.95-1.19 1.43-2.15 1.19-.95-.24-1.43-1.19-1.19-2.14.48-.72 1.19-1.43 2.15-1.19zM78.9 366.41c.95.24 1.43.95 1.43 1.91-.24.95-.95 1.43-1.91 1.43-.95-.24-1.43-.96-1.43-1.91.24-.96.95-1.67 1.91-1.43zM84.86 367.36c.95 0 1.67.95 1.43 1.91 0 .95-.95 1.67-1.91 1.43-.95 0-1.67-.95-1.43-1.91.24-.95.95-1.67 1.91-1.43zM90.81 367.84c.95 0 1.67.72 1.67 1.67s-.71 1.67-1.67 1.67c-.95 0-1.67-.95-1.67-1.67.01-1.2.72-1.91 1.67-1.67zM97.01 367.84c.95 0 1.67.72 1.67 1.67s-.72 1.67-1.67 1.67-1.67-.71-1.67-1.67c.01-.96.72-1.67 1.67-1.67zM102.97 367.6c.95 0 1.67.71 1.91 1.43 0 .95-.48 1.67-1.43 1.91-.95 0-1.67-.72-1.91-1.43-.24-1.2.48-1.91 1.43-1.91zM108.93 366.64c.95-.24 1.67.48 1.91 1.43s-.48 1.67-1.43 1.91-1.67-.48-1.91-1.43c0-.71.48-1.67 1.43-1.91zM114.89 365.69c.95-.24 1.91.24 1.91 1.19.24.95-.24 1.91-1.19 1.91-.95.24-1.91-.48-1.91-1.19-.24-.96.47-1.91 1.19-1.91zM120.85 364.02c.95-.24 1.91.24 2.15 1.19s-.24 1.91-1.19 2.15-1.91-.24-2.15-1.19c-.24-.96.24-1.91 1.19-2.15zM126.57 362.12c.95-.24 1.91 0 2.15.95s0 1.91-.95 2.15-1.91 0-2.15-.95c-.48-.96 0-1.92.95-2.15zM132.05 359.73c.95-.48 1.91 0 2.15.72.48.95 0 1.91-.71 2.14-.95.48-1.91 0-2.15-.72-.48-.71 0-1.66.71-2.14zM137.54 356.87c.71-.48 1.91-.24 2.38.72.48.71.24 1.91-.71 2.38-.72.48-1.91.24-2.38-.72-.49-.95-.01-1.9.71-2.38zM142.78 353.77c.72-.48 1.91-.24 2.38.48.48.71.24 1.91-.48 2.38-.71.48-1.91.24-2.38-.48-.47-.71-.47-1.9.48-2.38zM147.78 350.44c.71-.48 1.67-.48 2.38.24.48.71.48 1.67-.24 2.38-.72.47-1.91.47-2.38-.24-.71-.95-.47-1.91.24-2.38zM152.31 346.62c.71-.71 1.67-.48 2.38.24.72.71.48 1.67-.24 2.38s-1.67.48-2.38-.24c-.47-.71-.47-1.66.24-2.38zM156.84 342.57c.72-.72 1.67-.72 2.38 0 .71.71.71 1.67 0 2.38-.72.72-1.67.72-2.38 0-.71-.71-.71-1.9 0-2.38zM161.13 338.04c.72-.71 1.67-.71 2.38-.24.71.71.71 1.67.24 2.38-.71.72-1.67.72-2.38.24-.95-.47-.95-1.66-.24-2.38zM164.95 333.51c.48-.71 1.67-.95 2.38-.24.71.48.95 1.67.24 2.38-.48.72-1.67.95-2.38.24-.72-.71-.96-1.66-.24-2.38zM168.52 328.51c.48-.72 1.43-.95 2.38-.47.72.47.95 1.43.48 2.38-.48.71-1.67.95-2.38.47-.96-.72-1.19-1.67-.48-2.38zM171.62 323.26c.48-.72 1.43-1.19 2.38-.72.71.48 1.19 1.43.71 2.38-.48.72-1.43 1.19-2.38.72s-1.19-1.42-.71-2.38zM174.24 318.02c.48-.95 1.43-1.19 2.15-.71.95.48 1.19 1.43.71 2.14-.48.95-1.43 1.19-2.15.71-.71-.47-.95-1.43-.71-2.14zM176.86 312.3c.24-.95 1.43-1.19 2.14-.95.95.24 1.19 1.19.95 2.14-.24.95-1.43 1.19-2.15.95-.94-.23-1.41-1.19-.94-2.14zM178.77 306.58c.24-.95 1.19-1.43 2.15-1.19.95.24 1.43 1.19 1.19 2.14-.24.95-1.19 1.43-2.15 1.19-.95-.24-1.43-1.19-1.19-2.14zM180.44 300.86c.24-.95 1.19-1.43 1.91-1.19.95.24 1.43 1.19 1.19 2.15-.24.95-1.19 1.43-2.15 1.19-.47-.48-1.19-1.2-.95-2.15zM181.63 294.9c.24-.95.95-1.43 1.91-1.43.95.24 1.43.95 1.43 1.91-.24.95-.95 1.43-1.91 1.43s-1.43-.96-1.43-1.91zM182.58 288.94c0-.95.95-1.67 1.91-1.43.95 0 1.67.95 1.43 1.91 0 .95-.95 1.67-1.91 1.43-.95-.24-1.66-.96-1.43-1.91zM182.82 282.98c0-.95.71-1.67 1.67-1.67.95 0 1.67.71 1.67 1.67s-.72 1.67-1.67 1.67-1.67-.72-1.67-1.67zM182.82 276.78c0-.95.71-1.67 1.67-1.67.95 0 1.67.71 1.67 1.67 0 .95-.72 1.67-1.67 1.67-.71 0-1.43-.72-1.67-1.67zM182.58 270.82c0-.95.48-1.67 1.43-1.91.95 0 1.67.48 1.91 1.43 0 .95-.48 1.67-1.43 1.91-1.19.24-1.91-.47-1.91-1.43zM181.63 264.86c-.24-.95.48-1.67 1.43-1.91s1.67.48 1.91 1.43-.48 1.91-1.43 1.91-1.67-.71-1.91-1.43zM180.44 258.9c-.24-.95.24-1.91 1.19-1.91.95-.24 1.91.24 2.15 1.19s-.24 1.91-1.19 2.15c-.96 0-1.91-.47-2.15-1.43zM178.77 252.95c-.24-.95.24-1.91 1.19-2.15s1.91.24 2.15 1.19-.24 1.91-1.19 2.15c-.96.24-1.91-.24-2.15-1.19zM176.62 247.23c-.24-.95 0-1.91.95-2.15s1.91 0 2.15.95 0 1.91-.95 2.15c-.71.47-1.67 0-2.15-.95zM174.24 241.74c-.48-.95 0-1.91.71-2.15.95-.48 1.91 0 2.15.71.48.95 0 1.91-.71 2.15-.72.49-1.67.25-2.15-.71zM171.38 236.5c-.48-.71-.24-1.91.72-2.38.71-.48 1.91-.24 2.38.71.48.71.24 1.91-.71 2.38-.96.24-1.91 0-2.39-.71zM168.28 231.25c-.48-.71-.24-1.91.48-2.38.72-.48 1.91-.24 2.38.48.48.71.24 1.91-.48 2.38-.95.48-1.9.24-2.38-.48zM164.71 226.25c-.48-.71-.48-1.67.24-2.38.72-.48 1.67-.48 2.38.24.48.71.48 1.91-.24 2.38-.71.71-1.9.71-2.38-.24zM160.89 221.72c-.71-.72-.48-1.67.24-2.38s1.67-.48 2.38.24c.71.71.48 1.67-.24 2.38-.71.48-1.9.48-2.38-.24zM156.6 217.19c-.71-.71-.71-1.67 0-2.38.71-.72 1.67-.72 2.38 0 .72.71.72 1.67 0 2.38-.71.72-1.66.72-2.38 0zM152.31 213.14c-.71-.72-.71-1.67-.24-2.38.71-.71 1.67-.71 2.38-.24.71.71.71 1.67.24 2.38-.71.72-1.66.95-2.38.24zM147.54 209.33c-.71-.48-.95-1.67-.24-2.38.48-.71 1.67-.95 2.38-.24.71.48.95 1.67.24 2.38s-1.66.95-2.38.24zM142.54 205.99c-.71-.48-.95-1.43-.48-2.38.48-.71 1.43-.95 2.38-.48.72.48.95 1.43.48 2.38-.71.72-1.67.95-2.38.48zM137.3 202.89c-.71-.48-1.19-1.43-.71-2.38.48-.71 1.43-1.19 2.38-.71.72.48 1.19 1.43.72 2.38-.49.71-1.68 1.19-2.39.71zM131.81 200.03c-.71-.24-1.19-1.19-.71-2.15.24-.71 1.19-1.19 2.15-.71.95.48 1.19 1.43.71 2.15-.24.95-1.19 1.19-2.15.71zM126.33 197.88c-.95-.24-1.19-1.19-.95-2.15.24-.95 1.19-1.43 2.15-.95.95.24 1.43 1.19.95 2.15-.24.72-1.19 1.19-2.15.95zM120.61 195.74c-.95-.24-1.43-1.19-1.19-2.15.24-.71 1.19-1.19 2.15-.95.95.24 1.43 1.19 1.19 2.15-.24.71-1.2 1.43-2.15.95zM114.65 194.31c-.95-.24-1.43-1.19-1.19-1.91.24-.95 1.19-1.43 1.91-1.19.95.24 1.43 1.19 1.19 1.91 0 .71-.96 1.43-1.91 1.19zM108.69 193.12c-.95-.24-1.43-.95-1.43-1.91.24-.95.95-1.67 1.91-1.43.95.24 1.67.95 1.43 1.91 0 .95-.95 1.66-1.91 1.43zM102.73 192.4c-.95 0-1.67-.95-1.43-1.91 0-.95.95-1.67 1.91-1.43.95 0 1.67.95 1.43 1.91-.24.95-.95 1.43-1.91 1.43z"/><path class="st2" d="M712.7 195.26h320.36v172.81h-320.36z"/><g class="st0"><path class="st3" d="M720.76 197.33h-7.67v-1.97h17.37v1.97h-7.53l-.03 21.78h-2.1l-.04-21.78zM734.18 219.1v-23.75h2.14v10.43h12.96v-10.43h2.14v23.75h-2.14v-11.35h-12.96v11.35h-2.14zM758.03 219.1v-23.75h14.11v1.97h-11.97v8.52h11.51v1.97h-11.51v9.31h12.47v1.97l-14.61.01zM796.71 219.6c-6.81 0-10.59-4.97-10.59-12.37s3.78-12.37 10.59-12.37c6.81 0 10.59 4.97 10.59 12.37.01 7.4-3.78 12.37-10.59 12.37zm0-1.98c5.92 0 8.29-5.2 8.29-10.4s-2.37-10.4-8.29-10.4c-5.92 0-8.29 5.2-8.29 10.4s2.37 10.4 8.29 10.4zM815.04 219.1h-2.14v-23.75h7.76c2.07 0 3.78.13 5.59 1.25 1.65.99 2.44 2.7 2.44 4.97 0 2.57-1.81 4.41-4.57 5.1v.07c3.03.49 3.68 2.53 3.98 5.3.43 3.85.3 5.63 1.25 7.07h-2.47c-.56-1.58-.69-3.26-.82-4.94-.49-5.43-.82-6.38-5.13-6.38h-5.89v11.31zm4.57-13.29c3.03 0 6.78-.2 6.78-4.24 0-4.57-4.28-4.24-6.55-4.24h-4.8v8.49l4.57-.01zM834.97 219.1v-23.85h2.14v23.85h-2.14zM861.36 207v11.12c-2.86 1.12-5.46 1.48-8.52 1.48-6.48 0-10.13-5.07-10.13-12.37 0-6.12 3.26-12.37 10.13-12.37 3.95 0 7.99 2.14 8.36 6.35h-2.44c-.43-3.03-3.09-4.38-5.92-4.38-5.69 0-7.83 5.46-7.83 10.4 0 6.05 2.53 10.4 8.95 10.4 1.78 0 3.59-.49 5.26-.99v-7.67h-5.95v-1.97h8.09zM867.87 219.1v-23.85h2.14v23.85h-2.14zM876.52 195.35h2.44l13.09 20.89h.07v-20.89h2.14v23.75h-2.7l-12.83-20.53h-.06v20.53h-2.14l-.01-23.75zM897.54 219.1l9.41-23.75h2.5l9.47 23.75h-2.34l-2.53-6.42h-11.81l-2.5 6.42h-2.2zm15.76-8.38l-5.13-13.39-5.23 13.39h10.36zM922.48 219.1v-23.75h2.14v21.78h11.94v1.97h-14.08z"/></g><g class="st0"><path class="st3" d="M712.93 268.45l9.41-23.75h2.5l9.47 23.75h-2.34l-2.53-6.41h-11.81l-2.5 6.41h-2.2zm15.76-8.39l-5.13-13.39-5.23 13.39h10.36zM738.59 244.69v15.36c.17 4.31 2.63 6.91 6.55 6.91s6.38-2.6 6.55-6.91v-15.36h2.14v15.4c-.07 5.1-2.93 8.85-8.69 8.85s-8.62-3.75-8.68-8.85v-15.4h2.13zM763.65 246.67h-7.67v-1.97h17.37v1.97h-7.53l-.03 21.78h-2.11l-.03-21.78zM777.07 268.45v-23.75h2.14v10.43h12.96v-10.43h2.14v23.75h-2.14v-11.35h-12.96v11.35h-2.14zM809.71 268.94c-6.81 0-10.59-4.97-10.59-12.37 0-7.4 3.78-12.37 10.59-12.37 6.81 0 10.59 4.97 10.59 12.37 0 7.4-3.78 12.37-10.59 12.37zm0-1.97c5.92 0 8.29-5.2 8.29-10.4s-2.37-10.4-8.29-10.4c-5.92 0-8.29 5.2-8.29 10.4s2.37 10.4 8.29 10.4zM828.03 268.45h-2.14v-23.75h7.76c2.07 0 3.78.13 5.59 1.25 1.64.99 2.43 2.7 2.43 4.97 0 2.57-1.81 4.41-4.57 5.1v.07c3.03.49 3.68 2.53 3.98 5.3.43 3.85.3 5.63 1.25 7.07h-2.47c-.56-1.58-.69-3.26-.82-4.94-.49-5.43-.82-6.38-5.13-6.38h-5.89v11.31h.01zm4.57-13.29c3.03 0 6.78-.2 6.78-4.24 0-4.57-4.28-4.24-6.55-4.24h-4.8v8.49l4.57-.01zM847.97 268.45v-23.85h2.14v23.85h-2.14zM861.06 246.67h-7.67v-1.97h17.37v1.97h-7.53l-.03 21.78h-2.11l-.03-21.78zM880.24 258.18l-8.75-13.49h2.73l7.27 11.48 7.27-11.48h2.3l-8.69 13.42v10.33h-2.14v-10.26h.01zM913.27 268.94c-6.81 0-10.59-4.97-10.59-12.37 0-7.4 3.78-12.37 10.59-12.37 6.81 0 10.59 4.97 10.59 12.37 0 7.4-3.78 12.37-10.59 12.37zm0-1.97c5.92 0 8.29-5.2 8.29-10.4s-2.37-10.4-8.29-10.4c-5.92 0-8.29 5.2-8.29 10.4s2.36 10.4 8.29 10.4zM929.09 244.69h2.44l13.09 20.89h.06v-20.89h2.14v23.75h-2.7l-12.83-20.53h-.07v20.53h-2.14l.01-23.75z"/></g><g class="st0"><path class="st3" d="M732.07 317.79c-1.02 0-2.93-.33-4.21.03-.82.26-1.74.46-2.44.46-6.81 0-10.59-4.97-10.59-12.37 0-7.4 3.78-12.37 10.59-12.37 6.81 0 10.59 4.97 10.59 12.37 0 3.85-1.35 7.8-4.34 10.07l.07.07c1.65-.26 3.42-.17 5.17-.23v1.97h-4.84zm-6.64-1.48c5.92 0 8.29-5.2 8.29-10.4s-2.37-10.4-8.29-10.4c-5.92 0-8.29 5.2-8.29 10.4s2.37 10.4 8.29 10.4zM743.55 294.04v15.36c.17 4.31 2.63 6.91 6.55 6.91s6.38-2.6 6.55-6.91v-15.36h2.14v15.4c-.07 5.1-2.93 8.85-8.69 8.85s-8.62-3.75-8.68-8.85v-15.4h2.13zM765.33 317.79v-23.75h14.11v1.97h-11.98v8.52h11.51v1.97h-11.51v9.31h12.47v1.97l-14.6.01zM791.06 318.28c-3.78 0-6.97-2.76-7.07-6.68h2.3c.06 3.65 2.76 4.7 5.95 4.7 2.67 0 5.72-1.55 5.72-4.57 0-2.37-1.71-3.49-3.72-4.15-3.85-1.28-9.7-2.5-9.7-7.63 0-4.15 3.82-6.42 7.57-6.42 3.12 0 7.2 1.09 7.73 5.66h-2.3c-.07-2.93-2.73-3.68-5.17-3.68-2.47 0-5.53 1.25-5.53 4.15 0 6.74 13.42 3.68 13.42 11.88.01 5.16-4.43 6.74-9.2 6.74zM809.64 296.01h-7.66v-1.97h17.37v1.97h-7.53l-.03 21.78h-2.11l-.04-21.78zM823.33 317.79v-23.85h2.14v23.85h-2.14zM841.75 318.28c-6.81 0-10.59-4.97-10.59-12.37s3.78-12.37 10.59-12.37c6.81 0 10.59 4.97 10.59 12.37s-3.78 12.37-10.59 12.37zm0-1.97c5.92 0 8.29-5.2 8.29-10.4s-2.37-10.4-8.29-10.4c-5.92 0-8.29 5.2-8.29 10.4s2.37 10.4 8.29 10.4zM857.57 294.04h2.43l13.09 20.89h.07v-20.89h2.14v23.75h-2.7l-12.83-20.53h-.07v20.53h-2.14l.01-23.75zM881.82 317.79v-23.85h2.14v23.85h-2.14zM890.47 294.04h2.44l13.09 20.89h.07v-20.89h2.14v23.75h-2.7l-12.83-20.53h-.06v20.53h-2.14l-.01-23.75zM931.95 305.68v11.12c-2.86 1.12-5.46 1.48-8.52 1.48-6.48 0-10.13-5.07-10.13-12.37 0-6.12 3.26-12.37 10.13-12.37 3.95 0 7.99 2.14 8.36 6.35h-2.44c-.43-3.03-3.09-4.38-5.92-4.38-5.69 0-7.83 5.46-7.83 10.4 0 6.05 2.53 10.4 8.95 10.4 1.78 0 3.59-.49 5.26-.99v-7.67h-5.95v-1.97h8.09z"/></g><g class="st0"><path class="st3" d="M712.93 367.13l9.41-23.75h2.5l9.47 23.75h-2.34l-2.53-6.42h-11.81l-2.5 6.42h-2.2zm15.76-8.39l-5.13-13.39-5.23 13.39h10.36zM738.59 343.38v15.36c.17 4.31 2.63 6.91 6.55 6.91s6.38-2.6 6.55-6.91v-15.36h2.14v15.4c-.07 5.1-2.93 8.85-8.69 8.85s-8.62-3.75-8.68-8.85v-15.4h2.13zM763.65 345.35h-7.67v-1.97h17.37v1.97h-7.53l-.03 21.78h-2.11l-.03-21.78zM777.07 367.13v-23.75h2.14v10.43h12.96v-10.43h2.14v23.75h-2.14v-11.35h-12.96v11.35h-2.14zM809.71 367.62c-6.81 0-10.59-4.97-10.59-12.37 0-7.4 3.78-12.37 10.59-12.37 6.81 0 10.59 4.97 10.59 12.37 0 7.4-3.78 12.37-10.59 12.37zm0-1.97c5.92 0 8.29-5.2 8.29-10.4s-2.37-10.4-8.29-10.4c-5.92 0-8.29 5.2-8.29 10.4s2.37 10.4 8.29 10.4zM828.03 367.13h-2.14v-23.75h7.76c2.07 0 3.78.13 5.59 1.25 1.64.99 2.43 2.7 2.43 4.97 0 2.57-1.81 4.41-4.57 5.1v.07c3.03.49 3.68 2.53 3.98 5.3.43 3.85.3 5.63 1.25 7.07h-2.47c-.56-1.58-.69-3.26-.82-4.93-.49-5.43-.82-6.38-5.13-6.38h-5.89v11.3h.01zm4.57-13.29c3.03 0 6.78-.2 6.78-4.24 0-4.57-4.28-4.24-6.55-4.24h-4.8v8.49h4.57zM847.97 367.13v-23.85h2.14v23.85h-2.14zM861.06 345.35h-7.67v-1.97h17.37v1.97h-7.53l-.03 21.78h-2.11l-.03-21.78zM880.24 356.87l-8.75-13.49h2.73l7.27 11.48 7.27-11.48h2.3l-8.69 13.42v10.33h-2.14v-10.26h.01z"/></g><path class="st1" d="M691.25 195.26v171.86"/></svg>