<?xml version="1.0" encoding="utf-8"?>

<!-- License Agreement at http://iconmonstr.com/license/ -->

<!DOCTYPE svg PUBLIC "-//W3C//DTD SVG 1.1//EN" "http://www.w3.org/Graphics/SVG/1.1/DTD/svg11.dtd">
<svg version="1.1" xmlns="http://www.w3.org/2000/svg" xmlns:xlink="http://www.w3.org/1999/xlink" x="0px" y="0px"
	 width="512px" height="512px" viewBox="0 0 512 512" enable-background="new 0 0 512 512" xml:space="preserve">
<path id="youtube-new-icon" d="M458.388,180.186c-6.477-55.046-28.296-62.633-71.718-65.586c-61.736-4.2-199.561-4.203-261.34,0
	c-43.421,2.954-65.241,10.541-71.717,65.586c-4.809,40.867-4.825,110.619,0,151.627c6.477,55.046,28.296,62.633,71.717,65.588
	c61.779,4.202,199.604,4.199,261.34,0c43.422-2.955,65.241-10.542,71.718-65.588C463.196,290.946,463.212,221.195,458.388,180.186z
	 M214.974,313.524V198.602l110.208,57.462L214.974,313.524z"/>
</svg>
