<svg xmlns="http://www.w3.org/2000/svg" xmlns:xlink="http://www.w3.org/1999/xlink" version="1.1" id="campaign-thumb" x="0px" y="0px" width="100%" height="100%" viewBox="0 0 200 200" enable-background="new 0 0 200 200" xml:space="preserve">  
  <g id="thumb">
    <path fill="#BA0730" d="M178 135c6-10 0-20 0-20 6-7 6-14 6-14 -5-20-29-13-29-13l-1-1c-6-4-19-7-19-7l-1-2c-1-5 2-17 2-17 6-6 10-18 10-18 3-7 2-21 2-21 -3-24-17-19-17-19 -4 2 0 9 0 9v7l-3 8 -4 7 -1 2c-7 9-9 14-9 14l-5 7c-5 4-13 15-13 15 -16 30-35 35-35 35l-7 2c-6 3-19 6-19 6 -12 3-35 5-35 5v69l50-8c11-2 37 1 37 1 4 1 25 7 25 7l24 2 6 2 7-1 12-4c15.125-10 15-19 15-19 0-4-3-7-3-7 16-11 5-26 5-26V135z"/>
    <path fill="#2C1021" d="M0 121.167c0 0 23-1.834 36.833-4.667L54 110.834l11.667-4.5c0 0 10.661-7.914 15.018-12.812 0 0 8.775-10.115 11.925-15.595 0 0 6.725-13.033 11.725-16.313 0 0 8.434-9.382 9.945-12.237 0 0 6.321-11.743 9.354-14.643 0 0 3.429-5.231 5.147-9.815 0 0 2.219-5.085 2.219-11.418 0 0-1.053-5.328-1.776-7.164 0 0 6.11-9.169 13.443 3.331 0 0 7.838 13.532 2.169 36.433 0 0 1.498-21.099-0.169-26.433 0 0-2.167-13.667-9.167-12 0 0-2.832-0.167-1.166 5.333 0 0 2 17.333-6.167 19.833 0 0-3.333 5.167-4.833 6.167 0 0 5.832 0.833 7.666-0.5 0 0 1.668 0.834-0.666 2.167l-8.5 0.333c0 0-6.333 9.5-8 12 0 0-5.834 8.667-8.834 14.833l-1 4 -4 2.5c0 0-10.166 14.167-10.833 18.833l-13.833 14.167c0 0-3.833 11.999-21 8.166L62 111.667l4-2.833 3.333-3.334 -8 3.5 -23.667 8.167 -8.5 2.167L0 123.5V121.167z"/>
    <path fill="#2C1021" d="M101.834 81.167c0 0-8.834 2.9-11.834 16.617 0 0 6.5 0.883 10.667-6.95C100.667 90.833 104.354 87.03 101.834 81.167z"/>
    <path opacity="0.25" fill="#970A27" d="M152.5 89.49l-9 2.676c0 0 15.334-2 20.167 3.5l-6.667 3 1.834 1.119c0 0 25.666-5.619 9.333 17.214l-1 6.5c0 0 16.334 10.667 1.667 20l-5.334 3.167c0 0 5.166 5.999 2 9.166 0 0 3.613 8.666-6.276 12.5L157 170.167c0 0 13.613 7.499 2.224 16.333l-1.423 2.566c0 0 27.533-14.065 13.866-27.232 0 0 11.492-4.537 9-15.834 0 0 0.167-6.832-4.833-8.666 0 0 9.166-13.334 0.166-22.167 0 0 9.001-5.374 6.167-17.354 0 0-9.333-14.667-29-8.323"/>
  </g>

</svg>
